<svg xmlns="http://www.w3.org/2000/svg" xmlns:xlink="http://www.w3.org/1999/xlink" contentStyleType="text/css" data-diagram-type="STATE" height="696px" preserveAspectRatio="none" style="width:611px;height:696px;background:#FFFFFF;" version="1.1" viewBox="0 0 611 696" width="611px" zoomAndPan="magnify"><?plantuml 1.2026.3beta6?><defs/><g><g class="title" data-source-line="1"><text fill="#000000" font-family="sans-serif" font-size="14" font-weight="700" lengthAdjust="spacing" textLength="269.2334" x="167.5837" y="22.9951">Reminder Lifecycle State Diagram</text></g><g class="start_entity" data-qualified-name=".start." data-source-line="3" id="ent0002"><ellipse cx="363.93" cy="53.2969" fill="#222222" rx="10" ry="10" style="stroke:#222222;stroke-width:1;"/></g><g class="entity" data-qualified-name="NotScheduled" id="ent0003"><rect fill="#F1F1F1" height="50" rx="12.5" ry="12.5" style="stroke:#181818;stroke-width:0.5;" width="117.7471" x="305.06" y="124.2969"/><line style="stroke:#181818;stroke-width:0.5;" x1="305.06" x2="422.8071" y1="150.5938" y2="150.5938"/><text fill="#000000" font-family="sans-serif" font-size="14" lengthAdjust="spacing" textLength="97.7471" x="315.06" y="142.292">NotScheduled</text></g><g class="entity" data-qualified-name="Scheduled" id="ent0005"><rect fill="#F1F1F1" height="50" rx="12.5" ry="12.5" style="stroke:#181818;stroke-width:0.5;" width="93.2197" x="317.32" y="251.2969"/><line style="stroke:#181818;stroke-width:0.5;" x1="317.32" x2="410.5397" y1="277.5938" y2="277.5938"/><text fill="#000000" font-family="sans-serif" font-size="14" lengthAdjust="spacing" textLength="73.2197" x="327.32" y="269.292">Scheduled</text></g><g class="entity" data-qualified-name="Due" id="ent0007"><rect fill="#F1F1F1" height="50" rx="12.5" ry="12.5" style="stroke:#181818;stroke-width:0.5;" width="50" x="216.93" y="378.2969"/><line style="stroke:#181818;stroke-width:0.5;" x1="216.93" x2="266.93" y1="404.5938" y2="404.5938"/><text fill="#000000" font-family="sans-serif" font-size="14" lengthAdjust="spacing" textLength="28.2666" x="227.7967" y="396.292">Due</text></g><g class="entity" data-qualified-name="Sent" id="ent0009"><rect fill="#F1F1F1" height="50" rx="12.5" ry="12.5" style="stroke:#181818;stroke-width:0.5;" width="51.8623" x="7" y="505.2969"/><line style="stroke:#181818;stroke-width:0.5;" x1="7" x2="58.8623" y1="531.5938" y2="531.5938"/><text fill="#000000" font-family="sans-serif" font-size="14" lengthAdjust="spacing" textLength="31.8623" x="17" y="523.292">Sent</text></g><g class="entity" data-qualified-name="Failed" id="ent0011"><rect fill="#F1F1F1" height="50" rx="12.5" ry="12.5" style="stroke:#181818;stroke-width:0.5;" width="61.9111" x="449.98" y="505.2969"/><line style="stroke:#181818;stroke-width:0.5;" x1="449.98" x2="511.8911" y1="531.5938" y2="531.5938"/><text fill="#000000" font-family="sans-serif" font-size="14" lengthAdjust="spacing" textLength="41.9111" x="459.98" y="523.292">Failed</text></g><g class="entity" data-qualified-name="Rescheduled" id="ent0013"><rect fill="#F1F1F1" height="50" rx="12.5" ry="12.5" style="stroke:#181818;stroke-width:0.5;" width="109.9678" x="75.95" y="632.2969"/><line style="stroke:#181818;stroke-width:0.5;" x1="75.95" x2="185.9178" y1="658.5938" y2="658.5938"/><text fill="#000000" font-family="sans-serif" font-size="14" lengthAdjust="spacing" textLength="89.9678" x="85.95" y="650.292">Rescheduled</text></g><!--link *start* to NotScheduled--><g class="link" data-entity-1="ent0002" data-entity-2="ent0003" data-link-type="dependency" data-source-line="3" id="lnk4"><path d="M363.93,63.6569 C363.93,77.5869 363.93,98.2469 363.93,117.9469" fill="none" id="*start*-to-NotScheduled" style="stroke:#181818;stroke-width:1;"/><polygon fill="#181818" points="363.93,123.9469,367.93,114.9469,363.93,118.9469,359.93,114.9469,363.93,123.9469" style="stroke:#181818;stroke-width:1;"/></g><!--link NotScheduled to Scheduled--><g class="link" data-entity-1="ent0003" data-entity-2="ent0005" data-link-type="dependency" data-source-line="4" id="lnk6"><path d="M363.93,174.6969 C363.93,196.7169 363.93,222.9569 363.93,244.9569" fill="none" id="NotScheduled-to-Scheduled" style="stroke:#181818;stroke-width:1;"/><polygon fill="#181818" points="363.93,250.9569,367.93,241.9569,363.93,245.9569,359.93,241.9569,363.93,250.9569" style="stroke:#181818;stroke-width:1;"/><text fill="#000000" font-family="sans-serif" font-size="13" lengthAdjust="spacing" textLength="115.667" x="364.93" y="217.3638">reminderTime set</text></g><!--link Scheduled to Due--><g class="link" data-entity-1="ent0005" data-entity-2="ent0007" data-link-type="dependency" data-source-line="5" id="lnk8"><path d="M328.5,301.5769 C316.89,310.3069 304.33,320.6369 293.93,331.2969 C280.06,345.5169 270.2118,358.6237 260.5818,372.9837" fill="none" id="Scheduled-to-Due" style="stroke:#181818;stroke-width:1;"/><polygon fill="#181818" points="257.24,377.9669,265.5748,372.7199,260.0248,373.8142,258.9306,368.2642,257.24,377.9669" style="stroke:#181818;stroke-width:1;"/><text fill="#000000" font-family="sans-serif" font-size="13" lengthAdjust="spacing" textLength="150.0332" x="294.93" y="344.3638">reminder time reached</text></g><!--link Due to Sent--><g class="link" data-entity-1="ent0007" data-entity-2="ent0009" data-link-type="dependency" data-source-line="6" id="lnk10"><path d="M216.58,407.3469 C167.15,413.8469 60.7,430.7769 37.93,458.2969 C27.38,471.0569 25.8826,483.9387 27.4426,499.0187" fill="none" id="Due-to-Sent" style="stroke:#181818;stroke-width:1;"/><polygon fill="#181818" points="28.06,504.9869,31.1127,495.6231,27.5455,500.0134,23.1551,496.4462,28.06,504.9869" style="stroke:#181818;stroke-width:1;"/><text fill="#000000" font-family="sans-serif" font-size="13" lengthAdjust="spacing" textLength="166.1816" x="38.93" y="471.3638">WhatsApp send succeeds</text></g><!--link Due to Failed--><g class="link" data-entity-1="ent0007" data-entity-2="ent0011" data-link-type="dependency" data-source-line="7" id="lnk12"><path d="M260.25,428.6569 C273.11,444.1369 291.6,463.4369 311.93,475.2969 C356.07,501.0569 374.55,488.8269 422.93,505.2969 C431.7,508.2869 435.4977,509.6284 444.0577,513.1784" fill="none" id="Due-to-Failed" style="stroke:#181818;stroke-width:1;"/><polygon fill="#181818" points="449.6,515.4769,442.8189,508.3343,444.9814,513.5615,439.7542,515.724,449.6,515.4769" style="stroke:#181818;stroke-width:1;"/><text fill="#000000" font-family="sans-serif" font-size="13" lengthAdjust="spacing" textLength="132.3931" x="312.93" y="471.3638">WhatsApp send fails</text></g><!--link Sent to Rescheduled--><g class="link" data-entity-1="ent0009" data-entity-2="ent0013" data-link-type="dependency" data-source-line="8" id="lnk14"><path d="M24.02,555.6469 C20.29,570.1769 18.52,588.4469 26.93,602.2969 C37.81,620.2069 51.2745,630.0386 70.0545,638.2686" fill="none" id="Sent-to-Rescheduled" style="stroke:#181818;stroke-width:1;"/><polygon fill="#181818" points="75.55,640.6769,68.9123,633.4008,70.9704,638.67,65.7013,640.7281,75.55,640.6769" style="stroke:#181818;stroke-width:1;"/><text fill="#000000" font-family="sans-serif" font-size="13" lengthAdjust="spacing" textLength="177.1758" x="27.93" y="598.3638">reminderTime edited again</text></g><!--link Failed to Scheduled--><g class="link" data-entity-1="ent0011" data-entity-2="ent0005" data-link-type="dependency" data-source-line="9" id="lnk15"><path d="M483.23,505.0969 C485.77,465.3669 485.54,385.3369 449.93,331.2969 C440.42,316.8669 430.7901,308.5701 416.1101,300.1201" fill="none" id="Failed-to-Scheduled" style="stroke:#181818;stroke-width:1;"/><polygon fill="#181818" points="410.91,297.1269,416.7146,305.0834,415.2434,299.6212,420.7056,298.15,410.91,297.1269" style="stroke:#181818;stroke-width:1;"/><text fill="#000000" font-family="sans-serif" font-size="13" lengthAdjust="spacing" textLength="113.4707" x="481.93" y="407.8638">retry on later tick</text></g><!--link Rescheduled to Due--><g class="link" data-entity-1="ent0013" data-entity-2="ent0007" data-link-type="dependency" data-source-line="10" id="lnk16"><path d="M179.87,631.8769 C191.37,623.9369 202.45,614.0769 209.93,602.2969 C244.55,547.7669 246.0934,474.2897 244.1534,434.6597" fill="none" id="Rescheduled-to-Due" style="stroke:#181818;stroke-width:1;"/><polygon fill="#181818" points="243.86,428.6669,240.3048,437.8517,244.1045,433.6609,248.2953,437.4605,243.86,428.6669" style="stroke:#181818;stroke-width:1;"/><text fill="#000000" font-family="sans-serif" font-size="13" lengthAdjust="spacing" textLength="181.0352" x="242.93" y="534.8638">new reminder time reached</text></g><?plantuml-src TP112i8m44NtSufP2xs02q4ehiH55Lo8Yv3yrc2RIZ95UdkJMcoBkfm_ZvVv4Iirk41ZdO7dlIsXUnsZeoW1vrPLNZL4bzMLisp3XrQE-WRJrJ0q7uRjDAtPZywJRS01Gaiqxp23M1BbeH93QJVeu2H2vvkIi7qyeiKP3ftMW0aVQgVi-yKbLyOuqA18L87mxpWOAp5LbRAEHjjt6_4zjuxh-2tfN7sdkNAgvF3yNUi5?></g></svg>