<svg xmlns="http://www.w3.org/2000/svg" xmlns:xlink="http://www.w3.org/1999/xlink" contentStyleType="text/css" data-diagram-type="STATE" height="652px" preserveAspectRatio="none" style="width:590px;height:652px;background:#FFFFFF;" version="1.1" viewBox="0 0 590 652" width="590px" zoomAndPan="magnify"><?plantuml 1.2026.3beta6?><defs/><g><g class="title" data-source-line="1"><text fill="#000000" font-family="sans-serif" font-size="14" font-weight="700" lengthAdjust="spacing" textLength="298.6826" x="142.2925" y="22.9951">Schedule Appointment State Diagram</text></g><g class="start_entity" data-qualified-name=".start." data-source-line="3" id="ent0002"><ellipse cx="254.27" cy="53.2969" fill="#222222" rx="10" ry="10" style="stroke:#222222;stroke-width:1;"/></g><g class="entity" data-qualified-name="Unscheduled" id="ent0003"><rect fill="#F1F1F1" height="50" rx="12.5" ry="12.5" style="stroke:#181818;stroke-width:0.5;" width="110.7471" x="198.9" y="124.2969"/><line style="stroke:#181818;stroke-width:0.5;" x1="198.9" x2="309.6471" y1="150.5938" y2="150.5938"/><text fill="#000000" font-family="sans-serif" font-size="14" lengthAdjust="spacing" textLength="90.7471" x="208.9" y="142.292">Unscheduled</text></g><g class="entity" data-qualified-name="Scheduled" id="ent0005"><rect fill="#F1F1F1" height="50" rx="12.5" ry="12.5" style="stroke:#181818;stroke-width:0.5;" width="93.2197" x="207.66" y="251.2969"/><line style="stroke:#181818;stroke-width:0.5;" x1="207.66" x2="300.8797" y1="277.5938" y2="277.5938"/><text fill="#000000" font-family="sans-serif" font-size="14" lengthAdjust="spacing" textLength="73.2197" x="217.66" y="269.292">Scheduled</text></g><g class="entity" data-qualified-name="Rescheduled" id="ent0007"><rect fill="#F1F1F1" height="50" rx="12.5" ry="12.5" style="stroke:#181818;stroke-width:0.5;" width="109.9678" x="199.29" y="378.2969"/><line style="stroke:#181818;stroke-width:0.5;" x1="199.29" x2="309.2578" y1="404.5938" y2="404.5938"/><text fill="#000000" font-family="sans-serif" font-size="14" lengthAdjust="spacing" textLength="89.9678" x="209.29" y="396.292">Rescheduled</text></g><g class="entity" data-qualified-name="Completed" id="ent0010"><rect fill="#F1F1F1" height="50" rx="12.5" ry="12.5" style="stroke:#181818;stroke-width:0.5;" width="96.3574" x="93.09" y="505.2969"/><line style="stroke:#181818;stroke-width:0.5;" x1="93.09" x2="189.4474" y1="531.5938" y2="531.5938"/><text fill="#000000" font-family="sans-serif" font-size="14" lengthAdjust="spacing" textLength="76.3574" x="103.09" y="523.292">Completed</text></g><g class="entity" data-qualified-name="Cancelled" id="ent0013"><rect fill="#F1F1F1" height="50" rx="12.5" ry="12.5" style="stroke:#181818;stroke-width:0.5;" width="88.8174" x="283.86" y="505.2969"/><line style="stroke:#181818;stroke-width:0.5;" x1="283.86" x2="372.6774" y1="531.5938" y2="531.5938"/><text fill="#000000" font-family="sans-serif" font-size="14" lengthAdjust="spacing" textLength="68.8174" x="293.86" y="523.292">Cancelled</text></g><g class="end_entity" data-qualified-name=".end." data-source-line="11" id="ent0016"><ellipse cx="234.27" cy="627.2969" fill="none" rx="11" ry="11" style="stroke:#222222;stroke-width:1;"/><ellipse cx="234.27" cy="627.2969" fill="#222222" rx="6" ry="6" style="stroke:#222222;stroke-width:1;"/></g><!--link *start* to Unscheduled--><g class="link" data-entity-1="ent0002" data-entity-2="ent0003" data-link-type="dependency" data-source-line="3" id="lnk4"><path d="M254.27,63.6569 C254.27,77.5869 254.27,98.2469 254.27,117.9469" fill="none" id="*start*-to-Unscheduled" style="stroke:#181818;stroke-width:1;"/><polygon fill="#181818" points="254.27,123.9469,258.27,114.9469,254.27,118.9469,250.27,114.9469,254.27,123.9469" style="stroke:#181818;stroke-width:1;"/></g><!--link Unscheduled to Scheduled--><g class="link" data-entity-1="ent0003" data-entity-2="ent0005" data-link-type="dependency" data-source-line="4" id="lnk6"><path d="M254.27,174.6969 C254.27,196.7169 254.27,222.9569 254.27,244.9569" fill="none" id="Unscheduled-to-Scheduled" style="stroke:#181818;stroke-width:1;"/><polygon fill="#181818" points="254.27,250.9569,258.27,241.9569,254.27,245.9569,250.27,241.9569,254.27,250.9569" style="stroke:#181818;stroke-width:1;"/><text fill="#000000" font-family="sans-serif" font-size="13" lengthAdjust="spacing" textLength="164.0869" x="255.27" y="217.3638">order assigned date/time</text></g><!--link Scheduled to Rescheduled--><g class="link" data-entity-1="ent0005" data-entity-2="ent0007" data-link-type="dependency" data-source-line="5" id="lnk8"><path d="M254.27,301.6969 C254.27,323.7169 254.27,349.9569 254.27,371.9569" fill="none" id="Scheduled-to-Rescheduled" style="stroke:#181818;stroke-width:1;"/><polygon fill="#181818" points="254.27,377.9569,258.27,368.9569,254.27,372.9569,250.27,368.9569,254.27,377.9569" style="stroke:#181818;stroke-width:1;"/><text fill="#000000" font-family="sans-serif" font-size="13" lengthAdjust="spacing" textLength="187.1606" x="255.27" y="344.3638">customer changes date/time</text></g><!--link Rescheduled to Rescheduled--><g class="link" data-entity-1="ent0007" data-entity-2="ent0007" data-link-type="dependency" data-source-line="6" id="lnk9"><path d="M309.63,391.3969 C328.78,391.2669 344.25,395.2369 344.25,403.2969 C344.25,411.3569 334.7799,415.3676 315.6299,415.2376" fill="none" id="Rescheduled-to-Rescheduled" style="stroke:#181818;stroke-width:1;"/><polygon fill="#181818" points="309.63,415.1969,318.6026,419.2579,314.6299,415.2308,318.6569,411.2581,309.63,415.1969" style="stroke:#181818;stroke-width:1;"/><text fill="#000000" font-family="sans-serif" font-size="13" lengthAdjust="spacing" textLength="111.7695" x="350.25" y="407.8638">reschedule again</text></g><!--link Scheduled to Completed--><g class="link" data-entity-1="ent0005" data-entity-2="ent0010" data-link-type="dependency" data-source-line="7" id="lnk11"><path d="M207.4,283.9869 C155.16,294.2169 73.08,319.2269 35.27,378.2969 C6,424.0269 57.0826,471.9024 98.2426,501.3924" fill="none" id="Scheduled-to-Completed" style="stroke:#181818;stroke-width:1;"/><polygon fill="#181818" points="103.12,504.8869,98.1336,496.3936,99.0555,501.9748,93.4743,502.8967,103.12,504.8869" style="stroke:#181818;stroke-width:1;"/><text fill="#000000" font-family="sans-serif" font-size="13" lengthAdjust="spacing" textLength="145.7358" x="36.27" y="407.8638">delivered or picked up</text></g><!--link Rescheduled to Completed--><g class="link" data-entity-1="ent0007" data-entity-2="ent0010" data-link-type="dependency" data-source-line="8" id="lnk12"><path d="M198.91,422.5769 C171.28,432.9369 142.08,446.2069 134.27,458.2969 C125.39,472.0269 125.891,484.7051 130.051,499.3551" fill="none" id="Rescheduled-to-Completed" style="stroke:#181818;stroke-width:1;"/><polygon fill="#181818" points="131.69,505.1269,133.0794,495.3765,130.3242,500.317,125.3837,497.5618,131.69,505.1269" style="stroke:#181818;stroke-width:1;"/><text fill="#000000" font-family="sans-serif" font-size="13" lengthAdjust="spacing" textLength="145.7358" x="135.27" y="471.3638">delivered or picked up</text></g><!--link Scheduled to Cancelled--><g class="link" data-entity-1="ent0005" data-entity-2="ent0013" data-link-type="dependency" data-source-line="9" id="lnk14"><path d="M301.26,278.1269 C345.4,281.3969 410.6,293.0169 451.27,331.2969 C467.34,346.4169 463.67,356.5269 467.27,378.2969 C470.9,400.2169 477,408.3169 467.27,428.2969 C448.27,467.3169 411.3392,491.9491 378.3692,508.2391" fill="none" id="Scheduled-to-Cancelled" style="stroke:#181818;stroke-width:1;"/><polygon fill="#181818" points="372.99,510.8969,382.8307,510.4963,377.4727,508.682,379.287,503.324,372.99,510.8969" style="stroke:#181818;stroke-width:1;"/><text fill="#000000" font-family="sans-serif" font-size="13" lengthAdjust="spacing" textLength="100.9976" x="473.27" y="407.8638">order cancelled</text></g><!--link Rescheduled to Cancelled--><g class="link" data-entity-1="ent0007" data-entity-2="ent0013" data-link-type="dependency" data-source-line="10" id="lnk15"><path d="M270.68,428.7869 C276.68,437.9569 283.42,448.5169 289.27,458.2969 C298.43,473.6269 305.265,485.9289 312.685,499.7689" fill="none" id="Rescheduled-to-Cancelled" style="stroke:#181818;stroke-width:1;"/><polygon fill="#181818" points="315.52,505.0569,314.7928,495.2349,313.1575,500.6502,307.7421,499.0149,315.52,505.0569" style="stroke:#181818;stroke-width:1;"/><text fill="#000000" font-family="sans-serif" font-size="13" lengthAdjust="spacing" textLength="100.9976" x="298.27" y="471.3638">order cancelled</text></g><!--link Completed to *end*--><g class="link" data-entity-1="ent0010" data-entity-2="ent0016" data-link-type="dependency" data-source-line="11" id="lnk17"><path d="M165.22,555.7569 C185.67,576.6569 209.6023,601.0998 222.7523,614.5298" fill="none" id="Completed-to-*end*" style="stroke:#181818;stroke-width:1;"/><polygon fill="#181818" points="226.95,618.8169,223.5115,609.5878,223.4519,615.2443,217.7954,615.1847,226.95,618.8169" style="stroke:#181818;stroke-width:1;"/></g><!--link Cancelled to *end*--><g class="link" data-entity-1="ent0013" data-entity-2="ent0016" data-link-type="dependency" data-source-line="12" id="lnk18"><path d="M304.06,555.7569 C283.39,576.6569 259.1804,601.1221 245.8904,614.5521" fill="none" id="Cancelled-to-*end*" style="stroke:#181818;stroke-width:1;"/><polygon fill="#181818" points="241.67,618.8169,250.8437,615.2332,245.187,615.2629,245.1573,609.6061,241.67,618.8169" style="stroke:#181818;stroke-width:1;"/></g><?plantuml-src ZP3D2i8m48JlUOez2yMx1q7q2GoUnCEIB6amVoHRdzzOQXijYBVPpJSpRDYo8v2g9prKSKWfsi2U0eDaP8AJHPFH2t7TtA3hzd09PQArQFJu9kTf1p5hoe2bM1FgGjUmBLjFGdvOpbGQaneAHrzzgiTWg3Is5bmRypm16hJXg-KOVNB48wh9sGVbgcE6PDMzgY6jyl-mV7LWKEJQuzLximx_mIx5Bx9-krZeQVC4?></g></svg>