<svg xmlns="http://www.w3.org/2000/svg" xmlns:xlink="http://www.w3.org/1999/xlink" contentStyleType="text/css" data-diagram-type="CLASS" height="995px" preserveAspectRatio="none" style="width:2585px;height:995px;background:#FFFFFF;" version="1.1" viewBox="0 0 2585 995" width="2585px" zoomAndPan="magnify"><?plantuml 1.2026.3beta6?><defs/><g><g class="title" data-source-line="1"><text fill="#000000" font-family="sans-serif" font-size="14" font-weight="700" lengthAdjust="spacing" textLength="173.667" x="1202.4331" y="22.9951">Logical Class Diagram</text></g><!--class App--><g class="entity" data-qualified-name="App" data-source-line="5" id="ent0002"><rect fill="#F1F1F1" height="96.8906" rx="2.5" ry="2.5" style="stroke:#181818;stroke-width:0.5;" width="205.3477" x="869.9" y="44.2969"/><ellipse cx="954.6485" cy="60.2969" fill="#ADD1B2" rx="11" ry="11" style="stroke:#181818;stroke-width:1;"/><path d="M957.6173,65.9375 Q957.0392,66.2344 956.3985,66.375 Q955.7579,66.5313 955.0548,66.5313 Q952.5548,66.5313 951.2267,64.8906 Q949.9142,63.2344 949.9142,60.1094 Q949.9142,56.9844 951.2267,55.3281 Q952.5548,53.6719 955.0548,53.6719 Q955.7579,53.6719 956.3985,53.8281 Q957.0548,53.9844 957.6173,54.2813 L957.6173,57 Q956.9923,56.4219 956.3985,56.1563 Q955.8048,55.875 955.1798,55.875 Q953.836,55.875 953.1485,56.9531 Q952.461,58.0156 952.461,60.1094 Q952.461,62.2031 953.1485,63.2813 Q953.836,64.3438 955.1798,64.3438 Q955.8048,64.3438 956.3985,64.0781 Q956.9923,63.7969 957.6173,63.2188 L957.6173,65.9375 Z " fill="#000000"/><text fill="#000000" font-family="sans-serif" font-size="14" lengthAdjust="spacing" textLength="27.3506" x="975.1485" y="65.1436">App</text><line style="stroke:#181818;stroke-width:0.5;" x1="870.9" x2="1074.2477" y1="76.2969" y2="76.2969"/><line style="stroke:#181818;stroke-width:0.5;" x1="870.9" x2="1074.2477" y1="84.2969" y2="84.2969"/><text fill="#000000" font-family="sans-serif" font-size="14" lengthAdjust="spacing" textLength="101.1719" x="875.9" y="101.292">+startServer()</text><text fill="#000000" font-family="sans-serif" font-size="14" lengthAdjust="spacing" textLength="193.3477" x="875.9" y="117.5889">+startReminderScheduler()</text><text fill="#000000" font-family="sans-serif" font-size="14" lengthAdjust="spacing" textLength="91.0615" x="875.9" y="133.8857">+createBot()</text></g><!--class BotController--><g class="entity" data-qualified-name="BotController" data-source-line="11" id="ent0003"><rect fill="#F1F1F1" height="80.5938" rx="2.5" ry="2.5" style="stroke:#181818;stroke-width:0.5;" width="236.9844" x="1283.08" y="201.1869"/><ellipse cx="1350.9062" cy="217.1869" fill="#ADD1B2" rx="11" ry="11" style="stroke:#181818;stroke-width:1;"/><path d="M1353.8749,222.8275 Q1353.2968,223.1244 1352.6562,223.265 Q1352.0155,223.4213 1351.3124,223.4213 Q1348.8124,223.4213 1347.4843,221.7806 Q1346.1718,220.1244 1346.1718,216.9994 Q1346.1718,213.8744 1347.4843,212.2181 Q1348.8124,210.5619 1351.3124,210.5619 Q1352.0155,210.5619 1352.6562,210.7181 Q1353.3124,210.8744 1353.8749,211.1713 L1353.8749,213.89 Q1353.2499,213.3119 1352.6562,213.0463 Q1352.0624,212.765 1351.4374,212.765 Q1350.0937,212.765 1349.4062,213.8431 Q1348.7187,214.9056 1348.7187,216.9994 Q1348.7187,219.0931 1349.4062,220.1713 Q1350.0937,221.2338 1351.4374,221.2338 Q1352.0624,221.2338 1352.6562,220.9681 Q1353.2499,220.6869 1353.8749,220.1088 L1353.8749,222.8275 Z " fill="#000000"/><text fill="#000000" font-family="sans-serif" font-size="14" lengthAdjust="spacing" textLength="92.832" x="1371.4062" y="222.0336">BotController</text><line style="stroke:#181818;stroke-width:0.5;" x1="1284.08" x2="1519.0644" y1="233.1869" y2="233.1869"/><line style="stroke:#181818;stroke-width:0.5;" x1="1284.08" x2="1519.0644" y1="241.1869" y2="241.1869"/><text fill="#000000" font-family="sans-serif" font-size="14" lengthAdjust="spacing" textLength="224.9844" x="1289.08" y="258.182">+createBot(config, ordersStore)</text><text fill="#000000" font-family="sans-serif" font-size="14" lengthAdjust="spacing" textLength="142.4609" x="1289.08" y="274.4789">+getSystemStatus()</text></g><!--class Server--><g class="entity" data-qualified-name="Server" data-source-line="16" id="ent0004"><rect fill="#F1F1F1" height="64.2969" rx="2.5" ry="2.5" style="stroke:#181818;stroke-width:0.5;" width="550.5762" x="697.28" y="209.3369"/><ellipse cx="945.363" cy="225.3369" fill="#ADD1B2" rx="11" ry="11" style="stroke:#181818;stroke-width:1;"/><path d="M948.3318,230.9775 Q947.7536,231.2744 947.113,231.415 Q946.4724,231.5712 945.7693,231.5712 Q943.2693,231.5712 941.9411,229.9306 Q940.6286,228.2744 940.6286,225.1494 Q940.6286,222.0244 941.9411,220.3681 Q943.2693,218.7119 945.7693,218.7119 Q946.4724,218.7119 947.113,218.8681 Q947.7693,219.0244 948.3318,219.3212 L948.3318,222.04 Q947.7068,221.4619 947.113,221.1962 Q946.5193,220.915 945.8943,220.915 Q944.5505,220.915 943.863,221.9931 Q943.1755,223.0556 943.1755,225.1494 Q943.1755,227.2431 943.863,228.3212 Q944.5505,229.3837 945.8943,229.3837 Q946.5193,229.3837 947.113,229.1181 Q947.7068,228.8369 948.3318,228.2587 L948.3318,230.9775 Z " fill="#000000"/><text fill="#000000" font-family="sans-serif" font-size="14" lengthAdjust="spacing" textLength="45.9102" x="965.863" y="230.1836">Server</text><line style="stroke:#181818;stroke-width:0.5;" x1="698.28" x2="1246.8562" y1="241.3369" y2="241.3369"/><line style="stroke:#181818;stroke-width:0.5;" x1="698.28" x2="1246.8562" y1="249.3369" y2="249.3369"/><text fill="#000000" font-family="sans-serif" font-size="14" lengthAdjust="spacing" textLength="538.5762" x="703.28" y="266.332">+startServer(port, getSystemStatus, whatsappClient, publicDir, ordersStore)</text></g><!--class OrdersStore--><g class="entity" data-qualified-name="OrdersStore" data-source-line="20" id="ent0005"><rect fill="#F1F1F1" height="162.0781" rx="2.5" ry="2.5" style="stroke:#181818;stroke-width:0.5;" width="259.3037" x="475.92" y="341.7769"/><ellipse cx="559.004" cy="357.7769" fill="#ADD1B2" rx="11" ry="11" style="stroke:#181818;stroke-width:1;"/><path d="M561.9727,363.4175 Q561.3946,363.7144 560.754,363.855 Q560.1134,364.0112 559.4102,364.0112 Q556.9102,364.0112 555.5821,362.3706 Q554.2696,360.7144 554.2696,357.5894 Q554.2696,354.4644 555.5821,352.8081 Q556.9102,351.1519 559.4102,351.1519 Q560.1134,351.1519 560.754,351.3081 Q561.4102,351.4644 561.9727,351.7612 L561.9727,354.48 Q561.3477,353.9019 560.754,353.6362 Q560.1602,353.355 559.5352,353.355 Q558.1915,353.355 557.504,354.4331 Q556.8165,355.4956 556.8165,357.5894 Q556.8165,359.6831 557.504,360.7612 Q558.1915,361.8237 559.5352,361.8237 Q560.1602,361.8237 560.754,361.5581 Q561.3477,361.2769 561.9727,360.6987 L561.9727,363.4175 Z " fill="#000000"/><text fill="#000000" font-family="sans-serif" font-size="14" lengthAdjust="spacing" textLength="84.6357" x="579.504" y="362.6236">OrdersStore</text><line style="stroke:#181818;stroke-width:0.5;" x1="476.92" x2="734.2237" y1="373.7769" y2="373.7769"/><line style="stroke:#181818;stroke-width:0.5;" x1="476.92" x2="734.2237" y1="381.7769" y2="381.7769"/><text fill="#000000" font-family="sans-serif" font-size="14" lengthAdjust="spacing" textLength="110.3252" x="481.92" y="398.772">+getAllOrders()</text><text fill="#000000" font-family="sans-serif" font-size="14" lengthAdjust="spacing" textLength="247.3037" x="481.92" y="415.0689">+getOrdersForUser(phoneNumber)</text><text fill="#000000" font-family="sans-serif" font-size="14" lengthAdjust="spacing" textLength="129.3564" x="481.92" y="431.3657">+getOrderById(id)</text><text fill="#000000" font-family="sans-serif" font-size="14" lengthAdjust="spacing" textLength="133.0342" x="481.92" y="447.6626">+saveOrder(order)</text><text fill="#000000" font-family="sans-serif" font-size="14" lengthAdjust="spacing" textLength="190.3125" x="481.92" y="463.9595">+updateOrder(id, updates)</text><text fill="#000000" font-family="sans-serif" font-size="14" lengthAdjust="spacing" textLength="119.5674" x="481.92" y="480.2564">+deleteOrder(id)</text><text fill="#000000" font-family="sans-serif" font-size="14" lengthAdjust="spacing" textLength="121.8711" x="481.92" y="496.5532">+clearAllOrders()</text></g><!--class PricingService--><g class="entity" data-qualified-name="PricingService" data-source-line="30" id="ent0006"><rect fill="#F1F1F1" height="64.2969" rx="2.5" ry="2.5" style="stroke:#181818;stroke-width:0.5;" width="380.874" x="1510.13" y="390.6669"/><ellipse cx="1646.7291" cy="406.6669" fill="#ADD1B2" rx="11" ry="11" style="stroke:#181818;stroke-width:1;"/><path d="M1649.6979,412.3075 Q1649.1197,412.6044 1648.4791,412.745 Q1647.8385,412.9012 1647.1354,412.9012 Q1644.6354,412.9012 1643.3072,411.2606 Q1641.9947,409.6044 1641.9947,406.4794 Q1641.9947,403.3544 1643.3072,401.6981 Q1644.6354,400.0419 1647.1354,400.0419 Q1647.8385,400.0419 1648.4791,400.1981 Q1649.1354,400.3544 1649.6979,400.6512 L1649.6979,403.37 Q1649.0729,402.7919 1648.4791,402.5262 Q1647.8854,402.245 1647.2604,402.245 Q1645.9166,402.245 1645.2291,403.3231 Q1644.5416,404.3856 1644.5416,406.4794 Q1644.5416,408.5731 1645.2291,409.6512 Q1645.9166,410.7137 1647.2604,410.7137 Q1647.8854,410.7137 1648.4791,410.4481 Q1649.0729,410.1669 1649.6979,409.5887 L1649.6979,412.3075 Z " fill="#000000"/><text fill="#000000" font-family="sans-serif" font-size="14" lengthAdjust="spacing" textLength="99.1758" x="1667.2291" y="411.5136">PricingService</text><line style="stroke:#181818;stroke-width:0.5;" x1="1511.13" x2="1890.004" y1="422.6669" y2="422.6669"/><line style="stroke:#181818;stroke-width:0.5;" x1="1511.13" x2="1890.004" y1="430.6669" y2="430.6669"/><text fill="#000000" font-family="sans-serif" font-size="14" lengthAdjust="spacing" textLength="368.874" x="1516.13" y="447.662">+calculatePrice(productKey, width, height, quantity)</text></g><!--class InvoiceService--><g class="entity" data-qualified-name="InvoiceService" data-source-line="34" id="ent0007"><rect fill="#F1F1F1" height="64.2969" rx="2.5" ry="2.5" style="stroke:#181818;stroke-width:0.5;" width="351.2949" x="769.92" y="390.6669"/><ellipse cx="890.4205" cy="406.6669" fill="#ADD1B2" rx="11" ry="11" style="stroke:#181818;stroke-width:1;"/><path d="M893.3892,412.3075 Q892.8111,412.6044 892.1705,412.745 Q891.5299,412.9012 890.8267,412.9012 Q888.3267,412.9012 886.9986,411.2606 Q885.6861,409.6044 885.6861,406.4794 Q885.6861,403.3544 886.9986,401.6981 Q888.3267,400.0419 890.8267,400.0419 Q891.5299,400.0419 892.1705,400.1981 Q892.8267,400.3544 893.3892,400.6512 L893.3892,403.37 Q892.7642,402.7919 892.1705,402.5262 Q891.5767,402.245 890.9517,402.245 Q889.608,402.245 888.9205,403.3231 Q888.233,404.3856 888.233,406.4794 Q888.233,408.5731 888.9205,409.6512 Q889.608,410.7137 890.9517,410.7137 Q891.5767,410.7137 892.1705,410.4481 Q892.7642,410.1669 893.3892,409.5887 L893.3892,412.3075 Z " fill="#000000"/><text fill="#000000" font-family="sans-serif" font-size="14" lengthAdjust="spacing" textLength="101.7939" x="910.9205" y="411.5136">InvoiceService</text><line style="stroke:#181818;stroke-width:0.5;" x1="770.92" x2="1120.2149" y1="422.6669" y2="422.6669"/><line style="stroke:#181818;stroke-width:0.5;" x1="770.92" x2="1120.2149" y1="430.6669" y2="430.6669"/><text fill="#000000" font-family="sans-serif" font-size="14" lengthAdjust="spacing" textLength="339.2949" x="775.92" y="447.662">+generateInvoicePDF(order, filename, docType)</text></g><!--class EmailService--><g class="entity" data-qualified-name="EmailService" data-source-line="38" id="ent0008"><rect fill="#F1F1F1" height="64.2969" rx="2.5" ry="2.5" style="stroke:#181818;stroke-width:0.5;" width="319.5762" x="1155.78" y="390.6669"/><ellipse cx="1266.0266" cy="406.6669" fill="#ADD1B2" rx="11" ry="11" style="stroke:#181818;stroke-width:1;"/><path d="M1268.9953,412.3075 Q1268.4172,412.6044 1267.7766,412.745 Q1267.136,412.9012 1266.4328,412.9012 Q1263.9328,412.9012 1262.6047,411.2606 Q1261.2922,409.6044 1261.2922,406.4794 Q1261.2922,403.3544 1262.6047,401.6981 Q1263.9328,400.0419 1266.4328,400.0419 Q1267.136,400.0419 1267.7766,400.1981 Q1268.4328,400.3544 1268.9953,400.6512 L1268.9953,403.37 Q1268.3703,402.7919 1267.7766,402.5262 Q1267.1828,402.245 1266.5578,402.245 Q1265.2141,402.245 1264.5266,403.3231 Q1263.8391,404.3856 1263.8391,406.4794 Q1263.8391,408.5731 1264.5266,409.6512 Q1265.2141,410.7137 1266.5578,410.7137 Q1267.1828,410.7137 1267.7766,410.4481 Q1268.3703,410.1669 1268.9953,409.5887 L1268.9953,412.3075 Z " fill="#000000"/><text fill="#000000" font-family="sans-serif" font-size="14" lengthAdjust="spacing" textLength="90.583" x="1286.5266" y="411.5136">EmailService</text><line style="stroke:#181818;stroke-width:0.5;" x1="1156.78" x2="1474.3562" y1="422.6669" y2="422.6669"/><line style="stroke:#181818;stroke-width:0.5;" x1="1156.78" x2="1474.3562" y1="430.6669" y2="430.6669"/><text fill="#000000" font-family="sans-serif" font-size="14" lengthAdjust="spacing" textLength="307.5762" x="1161.78" y="447.662">+sendInvoiceEmail(toEmail, order, pdfPath)</text></g><!--class ReminderScheduler--><g class="entity" data-qualified-name="ReminderScheduler" data-source-line="42" id="ent0009"><rect fill="#F1F1F1" height="64.2969" rx="2.5" ry="2.5" style="stroke:#181818;stroke-width:0.5;" width="655.1387" x="7" y="209.3369"/><ellipse cx="261.2764" cy="225.3369" fill="#ADD1B2" rx="11" ry="11" style="stroke:#181818;stroke-width:1;"/><path d="M264.2451,230.9775 Q263.667,231.2744 263.0264,231.415 Q262.3857,231.5712 261.6826,231.5712 Q259.1826,231.5712 257.8545,229.9306 Q256.542,228.2744 256.542,225.1494 Q256.542,222.0244 257.8545,220.3681 Q259.1826,218.7119 261.6826,218.7119 Q262.3857,218.7119 263.0264,218.8681 Q263.6826,219.0244 264.2451,219.3212 L264.2451,222.04 Q263.6201,221.4619 263.0264,221.1962 Q262.4326,220.915 261.8076,220.915 Q260.4639,220.915 259.7764,221.9931 Q259.0889,223.0556 259.0889,225.1494 Q259.0889,227.2431 259.7764,228.3212 Q260.4639,229.3837 261.8076,229.3837 Q262.4326,229.3837 263.0264,229.1181 Q263.6201,228.8369 264.2451,228.2587 L264.2451,230.9775 Z " fill="#000000"/><text fill="#000000" font-family="sans-serif" font-size="14" lengthAdjust="spacing" textLength="138.0859" x="281.7764" y="230.1836">ReminderScheduler</text><line style="stroke:#181818;stroke-width:0.5;" x1="8" x2="661.1387" y1="241.3369" y2="241.3369"/><line style="stroke:#181818;stroke-width:0.5;" x1="8" x2="661.1387" y1="249.3369" y2="249.3369"/><text fill="#000000" font-family="sans-serif" font-size="14" lengthAdjust="spacing" textLength="643.1387" x="13" y="266.332">+startReminderScheduler(ordersStore, whatsappClient, reminderLogger, getSystemStatus)</text></g><!--class ReminderLogger--><g class="entity" data-qualified-name="ReminderLogger" data-source-line="46" id="ent0010"><rect fill="#F1F1F1" height="80.5938" rx="2.5" ry="2.5" style="stroke:#181818;stroke-width:0.5;" width="161.0098" x="254.06" y="382.5169"/><ellipse cx="274.6872" cy="398.5169" fill="#ADD1B2" rx="11" ry="11" style="stroke:#181818;stroke-width:1;"/><path d="M277.6559,404.1575 Q277.0778,404.4544 276.4372,404.595 Q275.7966,404.7512 275.0934,404.7512 Q272.5934,404.7512 271.2653,403.1106 Q269.9528,401.4544 269.9528,398.3294 Q269.9528,395.2044 271.2653,393.5481 Q272.5934,391.8919 275.0934,391.8919 Q275.7966,391.8919 276.4372,392.0481 Q277.0934,392.2044 277.6559,392.5012 L277.6559,395.22 Q277.0309,394.6419 276.4372,394.3762 Q275.8434,394.095 275.2184,394.095 Q273.8747,394.095 273.1872,395.1731 Q272.4997,396.2356 272.4997,398.3294 Q272.4997,400.4231 273.1872,401.5012 Q273.8747,402.5637 275.2184,402.5637 Q275.8434,402.5637 276.4372,402.2981 Q277.0309,402.0169 277.6559,401.4387 L277.6559,404.1575 Z " fill="#000000"/><text fill="#000000" font-family="sans-serif" font-size="14" lengthAdjust="spacing" textLength="116.5049" x="289.9377" y="403.3636">ReminderLogger</text><line style="stroke:#181818;stroke-width:0.5;" x1="255.06" x2="414.0698" y1="414.5169" y2="414.5169"/><line style="stroke:#181818;stroke-width:0.5;" x1="255.06" x2="414.0698" y1="422.5169" y2="422.5169"/><text fill="#000000" font-family="sans-serif" font-size="14" lengthAdjust="spacing" textLength="129.7803" x="260.06" y="439.512">+readReminders()</text><text fill="#000000" font-family="sans-serif" font-size="14" lengthAdjust="spacing" textLength="149.0098" x="260.06" y="455.8089">+logReminder(entry)</text></g><!--class OrderUtils--><g class="entity" data-qualified-name="OrderUtils" data-source-line="51" id="ent0011"><rect fill="#F1F1F1" height="96.8906" rx="2.5" ry="2.5" style="stroke:#181818;stroke-width:0.5;" width="197.4521" x="1925.84" y="374.3769"/><ellipse cx="1984.8957" cy="390.3769" fill="#ADD1B2" rx="11" ry="11" style="stroke:#181818;stroke-width:1;"/><path d="M1987.8644,396.0175 Q1987.2863,396.3144 1986.6457,396.455 Q1986.005,396.6112 1985.3019,396.6112 Q1982.8019,396.6112 1981.4738,394.9706 Q1980.1613,393.3144 1980.1613,390.1894 Q1980.1613,387.0644 1981.4738,385.4081 Q1982.8019,383.7519 1985.3019,383.7519 Q1986.005,383.7519 1986.6457,383.9081 Q1987.3019,384.0644 1987.8644,384.3612 L1987.8644,387.08 Q1987.2394,386.5019 1986.6457,386.2362 Q1986.0519,385.955 1985.4269,385.955 Q1984.0832,385.955 1983.3957,387.0331 Q1982.7082,388.0956 1982.7082,390.1894 Q1982.7082,392.2831 1983.3957,393.3612 Q1984.0832,394.4237 1985.4269,394.4237 Q1986.0519,394.4237 1986.6457,394.1581 Q1987.2394,393.8769 1987.8644,393.2987 L1987.8644,396.0175 Z " fill="#000000"/><text fill="#000000" font-family="sans-serif" font-size="14" lengthAdjust="spacing" textLength="70.8408" x="2005.3957" y="395.2236">OrderUtils</text><line style="stroke:#181818;stroke-width:0.5;" x1="1926.84" x2="2122.2921" y1="406.3769" y2="406.3769"/><line style="stroke:#181818;stroke-width:0.5;" x1="1926.84" x2="2122.2921" y1="414.3769" y2="414.3769"/><text fill="#000000" font-family="sans-serif" font-size="14" lengthAdjust="spacing" textLength="176.0732" x="1931.84" y="431.372">+buildOrderFromCart(...)</text><text fill="#000000" font-family="sans-serif" font-size="14" lengthAdjust="spacing" textLength="185.4521" x="1931.84" y="447.6689">+calculateCartTotals(cart)</text><text fill="#000000" font-family="sans-serif" font-size="14" lengthAdjust="spacing" textLength="171.0215" x="1931.84" y="463.9657">+createSupplyQuote(...)</text></g><!--class Order--><g class="entity" data-qualified-name="Order" data-source-line="57" id="ent0012"><rect fill="#F1F1F1" height="227.2656" rx="2.5" ry="2.5" style="stroke:#181818;stroke-width:0.5;" width="122.9541" x="544.09" y="563.8569"/><ellipse cx="582.0053" cy="579.8569" fill="#ADD1B2" rx="11" ry="11" style="stroke:#181818;stroke-width:1;"/><path d="M584.974,585.4975 Q584.3959,585.7944 583.7553,585.935 Q583.1147,586.0913 582.4115,586.0913 Q579.9115,586.0913 578.5834,584.4506 Q577.2709,582.7944 577.2709,579.6694 Q577.2709,576.5444 578.5834,574.8881 Q579.9115,573.2319 582.4115,573.2319 Q583.1147,573.2319 583.7553,573.3881 Q584.4115,573.5444 584.974,573.8413 L584.974,576.56 Q584.349,575.9819 583.7553,575.7163 Q583.1615,575.435 582.5365,575.435 Q581.1928,575.435 580.5053,576.5131 Q579.8178,577.5756 579.8178,579.6694 Q579.8178,581.7631 580.5053,582.8413 Q581.1928,583.9038 582.5365,583.9038 Q583.1615,583.9038 583.7553,583.6381 Q584.349,583.3569 584.974,582.7788 L584.974,585.4975 Z " fill="#000000"/><text fill="#000000" font-family="sans-serif" font-size="14" lengthAdjust="spacing" textLength="40.0313" x="601.0976" y="584.7036">Order</text><line style="stroke:#181818;stroke-width:0.5;" x1="545.09" x2="666.0441" y1="595.8569" y2="595.8569"/><text fill="#000000" font-family="sans-serif" font-size="14" lengthAdjust="spacing" textLength="12.7764" x="550.09" y="612.852">id</text><text fill="#000000" font-family="sans-serif" font-size="14" lengthAdjust="spacing" textLength="31.5684" x="550.09" y="629.1489">date</text><text fill="#000000" font-family="sans-serif" font-size="14" lengthAdjust="spacing" textLength="43.0186" x="550.09" y="645.4457">status</text><text fill="#000000" font-family="sans-serif" font-size="14" lengthAdjust="spacing" textLength="105.0889" x="550.09" y="661.7426">scheduledDate</text><text fill="#000000" font-family="sans-serif" font-size="14" lengthAdjust="spacing" textLength="97.4326" x="550.09" y="678.0395">scheduleTime</text><text fill="#000000" font-family="sans-serif" font-size="14" lengthAdjust="spacing" textLength="98.7178" x="550.09" y="694.3364">reminderTime</text><text fill="#000000" font-family="sans-serif" font-size="14" lengthAdjust="spacing" textLength="95.8877" x="550.09" y="710.6332">reminderSent</text><text fill="#000000" font-family="sans-serif" font-size="14" lengthAdjust="spacing" textLength="110.9541" x="550.09" y="726.9301">reminderSentAt</text><text fill="#000000" font-family="sans-serif" font-size="14" lengthAdjust="spacing" textLength="43.8115" x="550.09" y="743.227">phone</text><text fill="#000000" font-family="sans-serif" font-size="14" lengthAdjust="spacing" textLength="39.7031" x="550.09" y="759.5239">name</text><text fill="#000000" font-family="sans-serif" font-size="14" lengthAdjust="spacing" textLength="34.8428" x="550.09" y="775.8207">price</text><line style="stroke:#181818;stroke-width:0.5;" x1="545.09" x2="666.0441" y1="783.1225" y2="783.1225"/></g><!--class OrderItem--><g class="entity" data-qualified-name="OrderItem" data-source-line="71" id="ent0013"><rect fill="#F1F1F1" height="129.4844" rx="2.5" ry="2.5" style="stroke:#181818;stroke-width:0.5;" width="103.9004" x="553.62" y="851.1269"/><ellipse cx="568.62" cy="867.1269" fill="#ADD1B2" rx="11" ry="11" style="stroke:#181818;stroke-width:1;"/><path d="M571.5888,872.7675 Q571.0106,873.0644 570.37,873.205 Q569.7294,873.3612 569.0263,873.3612 Q566.5263,873.3612 565.1981,871.7206 Q563.8856,870.0644 563.8856,866.9394 Q563.8856,863.8144 565.1981,862.1581 Q566.5263,860.5019 569.0263,860.5019 Q569.7294,860.5019 570.37,860.6581 Q571.0263,860.8144 571.5888,861.1112 L571.5888,863.83 Q570.9638,863.2519 570.37,862.9862 Q569.7763,862.705 569.1513,862.705 Q567.8075,862.705 567.12,863.7831 Q566.4325,864.8456 566.4325,866.9394 Q566.4325,869.0331 567.12,870.1112 Q567.8075,871.1737 569.1513,871.1737 Q569.7763,871.1737 570.37,870.9081 Q570.9638,870.6269 571.5888,870.0487 L571.5888,872.7675 Z " fill="#000000"/><text fill="#000000" font-family="sans-serif" font-size="14" lengthAdjust="spacing" textLength="71.9004" x="582.62" y="871.9736">OrderItem</text><line style="stroke:#181818;stroke-width:0.5;" x1="554.62" x2="656.5204" y1="883.1269" y2="883.1269"/><text fill="#000000" font-family="sans-serif" font-size="14" lengthAdjust="spacing" textLength="54.1543" x="559.62" y="900.122">product</text><text fill="#000000" font-family="sans-serif" font-size="14" lengthAdjust="spacing" textLength="58.3652" x="559.62" y="916.4189">quantity</text><text fill="#000000" font-family="sans-serif" font-size="14" lengthAdjust="spacing" textLength="38.5889" x="559.62" y="932.7157">width</text><text fill="#000000" font-family="sans-serif" font-size="14" lengthAdjust="spacing" textLength="44.625" x="559.62" y="949.0126">height</text><text fill="#000000" font-family="sans-serif" font-size="14" lengthAdjust="spacing" textLength="77.8408" x="559.62" y="965.3095">description</text><line style="stroke:#181818;stroke-width:0.5;" x1="554.62" x2="656.5204" y1="972.6112" y2="972.6112"/></g><g class="entity" data-qualified-name="GMN29" data-source-line="96" id="ent0030"><path d="M2158.6,395.1169 L2158.6,450.5153 L2570.5331,450.5153 L2570.5331,405.1169 L2560.5331,395.1169 L2158.6,395.1169" fill="#FEFFDD" style="stroke:#181818;stroke-width:0.5;"/><path d="M2560.5331,395.1169 L2560.5331,405.1169 L2570.5331,405.1169 L2560.5331,395.1169" fill="#FEFFDD" style="stroke:#181818;stroke-width:1;"/><text fill="#000000" font-family="sans-serif" font-size="13" lengthAdjust="spacing" textLength="390.9331" x="2164.6" y="412.1838">The implementation uses CommonJS modules and exported</text><text fill="#000000" font-family="sans-serif" font-size="13" lengthAdjust="spacing" textLength="362.1211" x="2164.6" y="427.3166">functions rather than ES6 classes. This diagram models</text><text fill="#000000" font-family="sans-serif" font-size="13" lengthAdjust="spacing" textLength="340.5771" x="2164.6" y="442.4494">the logical service responsibilities of those modules.</text></g><!--link App to BotController--><g class="link" data-entity-1="ent0002" data-entity-2="ent0003" data-link-type="dependency" data-source-line="79" id="lnk14"><path codeLine="79" d="M1075.6,128.9769 C1138.81,150.6069 1214.2429,176.4051 1279.7329,198.8051" fill="none" id="App-to-BotController" style="stroke:#181818;stroke-width:1;"/><polygon fill="#181818" points="1285.41,200.7469,1278.1889,194.0495,1280.6791,199.1287,1275.5998,201.6189,1285.41,200.7469" style="stroke:#181818;stroke-width:1;"/></g><!--link App to Server--><g class="link" data-entity-1="ent0002" data-entity-2="ent0004" data-link-type="dependency" data-source-line="80" id="lnk15"><path codeLine="80" d="M972.57,141.3869 C972.57,163.6469 972.57,183.5269 972.57,203.2469" fill="none" id="App-to-Server" style="stroke:#181818;stroke-width:1;"/><polygon fill="#181818" points="972.57,209.2469,976.57,200.2469,972.57,204.2469,968.57,200.2469,972.57,209.2469" style="stroke:#181818;stroke-width:1;"/></g><!--link App to ReminderScheduler--><g class="link" data-entity-1="ent0002" data-entity-2="ent0009" data-link-type="dependency" data-source-line="81" id="lnk16"><path codeLine="81" d="M869.71,117.3969 C761.77,142.2269 597.3473,180.0418 477.9273,207.5118" fill="none" id="App-to-ReminderScheduler" style="stroke:#181818;stroke-width:1;"/><polygon fill="#181818" points="472.08,208.8569,481.7476,210.7375,476.9527,207.736,479.9542,202.9411,472.08,208.8569" style="stroke:#181818;stroke-width:1;"/></g><!--link BotController to OrdersStore--><g class="link" data-entity-1="ent0003" data-entity-2="ent0005" data-link-type="dependency" data-source-line="82" id="lnk17"><path codeLine="82" d="M1282.81,278.0269 C1277,279.3769 1271.23,280.6369 1265.57,281.7769 C1040.54,327.1269 971.35,272.2969 752.57,341.7769 C746.89,343.5869 746.7742,343.4379 741.0742,345.6479" fill="none" id="BotController-to-OrdersStore" style="stroke:#181818;stroke-width:1;"/><polygon fill="#181818" points="735.48,347.8169,745.3173,348.2929,740.1419,346.0094,742.4254,340.8339,735.48,347.8169" style="stroke:#181818;stroke-width:1;"/></g><!--link BotController to PricingService--><g class="link" data-entity-1="ent0003" data-entity-2="ent0006" data-link-type="dependency" data-source-line="83" id="lnk18"><path codeLine="83" d="M1467.56,282.0569 C1521.9,314.6569 1592.7744,357.171 1643.0144,387.301" fill="none" id="BotController-to-PricingService" style="stroke:#181818;stroke-width:1;"/><polygon fill="#181818" points="1648.16,390.3869,1642.4989,382.3276,1643.872,387.8153,1638.3843,389.1884,1648.16,390.3869" style="stroke:#181818;stroke-width:1;"/></g><!--link BotController to InvoiceService--><g class="link" data-entity-1="ent0003" data-entity-2="ent0007" data-link-type="dependency" data-source-line="84" id="lnk19"><path codeLine="84" d="M1294.1,282.1669 C1246.34,300.0369 1189.51,321.6069 1138.57,341.7769 C1099.28,357.3369 1061.3147,373.0002 1025.5747,387.9602" fill="none" id="BotController-to-InvoiceService" style="stroke:#181818;stroke-width:1;"/><polygon fill="#181818" points="1020.04,390.2769,1029.8865,390.4916,1024.6522,388.3463,1026.7976,383.112,1020.04,390.2769" style="stroke:#181818;stroke-width:1;"/></g><!--link BotController to EmailService--><g class="link" data-entity-1="ent0003" data-entity-2="ent0008" data-link-type="dependency" data-source-line="85" id="lnk20"><path codeLine="85" d="M1382.7,281.8369 C1367.07,314.4169 1347.7541,354.6966 1333.2741,384.8966" fill="none" id="BotController-to-EmailService" style="stroke:#181818;stroke-width:1;"/><polygon fill="#181818" points="1330.68,390.3069,1338.1779,383.9209,1332.8417,385.7983,1330.9642,380.4621,1330.68,390.3069" style="stroke:#181818;stroke-width:1;"/></g><!--link BotController to OrderUtils--><g class="link" data-entity-1="ent0003" data-entity-2="ent0011" data-link-type="dependency" data-source-line="86" id="lnk21"><path codeLine="86" d="M1520.33,251.8969 C1625.71,263.4369 1782.1,288.5069 1908.57,341.7769 C1928.19,350.0469 1942.9412,358.5153 1960.3712,370.6153" fill="none" id="BotController-to-OrderUtils" style="stroke:#181818;stroke-width:1;"/><polygon fill="#181818" points="1965.3,374.0369,1960.1879,365.6187,1961.1927,371.1856,1955.6258,372.1904,1965.3,374.0369" style="stroke:#181818;stroke-width:1;"/></g><!--link Server to OrdersStore--><g class="link" data-entity-1="ent0004" data-entity-2="ent0005" data-link-type="dependency" data-source-line="87" id="lnk22"><path codeLine="87" d="M898.84,274.1169 C855.82,292.9869 800.69,317.8569 752.57,341.7769 C746.97,344.5569 746.6183,344.6978 740.8883,347.6378" fill="none" id="Server-to-OrdersStore" style="stroke:#181818;stroke-width:1;"/><polygon fill="#181818" points="735.55,350.3769,745.3835,349.8272,739.9986,348.0943,741.7315,342.7094,735.55,350.3769" style="stroke:#181818;stroke-width:1;"/></g><!--link Server to InvoiceService--><g class="link" data-entity-1="ent0004" data-entity-2="ent0007" data-link-type="dependency" data-source-line="88" id="lnk23"><path codeLine="88" d="M967.87,273.7169 C962.94,306.4369 956.1433,351.5937 951.2033,384.4037" fill="none" id="Server-to-InvoiceService" style="stroke:#181818;stroke-width:1;"/><polygon fill="#181818" points="950.31,390.3369,955.6054,382.0327,951.0544,385.3926,947.6946,380.8416,950.31,390.3369" style="stroke:#181818;stroke-width:1;"/></g><!--link Server to EmailService--><g class="link" data-entity-1="ent0004" data-entity-2="ent0008" data-link-type="dependency" data-source-line="89" id="lnk24"><path codeLine="89" d="M1032.71,273.9269 C1095.25,306.6269 1187.2729,354.7369 1249.8929,387.4769" fill="none" id="Server-to-EmailService" style="stroke:#181818;stroke-width:1;"/><polygon fill="#181818" points="1255.21,390.2569,1249.0876,382.5422,1250.7791,387.9402,1245.381,389.6316,1255.21,390.2569" style="stroke:#181818;stroke-width:1;"/></g><!--link ReminderScheduler to OrdersStore--><g class="link" data-entity-1="ent0009" data-entity-2="ent0005" data-link-type="dependency" data-source-line="90" id="lnk25"><path codeLine="90" d="M382.08,273.9269 C410.47,292.7069 442.9264,314.1856 479.0564,338.0956" fill="none" id="ReminderScheduler-to-OrdersStore" style="stroke:#181818;stroke-width:1;"/><polygon fill="#181818" points="484.06,341.4069,478.7621,333.1043,479.8904,338.6475,474.3472,339.7757,484.06,341.4069" style="stroke:#181818;stroke-width:1;"/></g><!--link ReminderScheduler to ReminderLogger--><g class="link" data-entity-1="ent0009" data-entity-2="ent0010" data-link-type="dependency" data-source-line="91" id="lnk26"><path codeLine="91" d="M334.57,273.7169 C334.57,303.8269 334.57,343.4969 334.57,376.1569" fill="none" id="ReminderScheduler-to-ReminderLogger" style="stroke:#181818;stroke-width:1;"/><polygon fill="#181818" points="334.57,382.1569,338.57,373.1569,334.57,377.1569,330.57,373.1569,334.57,382.1569" style="stroke:#181818;stroke-width:1;"/></g><!--reverse link OrdersStore to Order--><g class="link" data-entity-1="ent0005" data-entity-2="ent0012" data-link-type="aggregation" data-source-line="92" id="lnk27"><path codeLine="92" d="M605.57,516.1169 C605.57,535.0469 605.57,543.5669 605.57,563.6369" fill="none" id="OrdersStore-backto-Order" style="stroke:#181818;stroke-width:1;"/><polygon fill="none" points="605.57,504.1169,601.57,510.1169,605.57,516.1169,609.57,510.1169,605.57,504.1169" style="stroke:#181818;stroke-width:1;"/><text fill="#000000" font-family="sans-serif" font-size="13" lengthAdjust="spacing" textLength="8.271" x="597.2377" y="523.8208">1</text><text fill="#000000" font-family="sans-serif" font-size="13" lengthAdjust="spacing" textLength="23.0356" x="581.8346" y="552.9339">0..*</text></g><!--reverse link Order to OrderItem--><g class="link" data-entity-1="ent0012" data-entity-2="ent0013" data-link-type="composition" data-source-line="93" id="lnk28"><path codeLine="93" d="M605.57,803.4869 C605.57,823.8969 605.57,832.5269 605.57,850.9069" fill="none" id="Order-backto-OrderItem" style="stroke:#181818;stroke-width:1;"/><polygon fill="#181818" points="605.57,791.4869,601.57,797.4869,605.57,803.4869,609.57,797.4869,605.57,791.4869" style="stroke:#181818;stroke-width:1;"/><text fill="#000000" font-family="sans-serif" font-size="13" lengthAdjust="spacing" textLength="8.271" x="597.3226" y="811.3414">1</text><text fill="#000000" font-family="sans-serif" font-size="13" lengthAdjust="spacing" textLength="23.0356" x="581.3141" y="840.0555">1..*</text></g><!--link BotController to GMN29--><g class="link" data-entity-1="ent0003" data-entity-2="ent0030" data-link-type="association" data-source-line="96" id="lnk31"><path d="M1520.42,250.7369 C1667.62,262.7269 1925.31,289.4769 2140.57,341.7769 C2195.55,355.1369 2255.83,377.1169 2300,394.6769" fill="none" id="BotController-GMN29" style="stroke:#181818;stroke-width:1;stroke-dasharray:7,7;"/></g><?plantuml-src TLLDSzCm4BtxL-pqv4AIQIyScKcJTYR0GC7f3r2iZRs3B1b9BWI6_yvASXBR2PTO--7trhjF6qzU8Nmo5PL2mKe9vs1DehAYoJBtdNGh-0Xb22ozjxJhF6vAemlwZN2NPJ42oxQ5Fnd0M-U5zGNQLxJvxSdn3HlI4crHrYWxTOoL5eN71-FP_7k4OdDbjBT6SLu2FUSnyPwg6HZBQAxmnc94gj0N1-UnARpmdHlYfM8kgskDzJEOl3Y3dxNmJhJjIX5gJcYxdQ9oJNP2UiB_SlOc4ePSAfNS-R6wP3uP--82TsqqVkwQ7TfHmiDX8tEIgN7Y5QCpZxpHrxMI6v6y96UGR1TZ4XMUOwc_2eKTrd8g-jbIIReAhQ2ohvi5K7QAyK8GyzOQsPN-8nwuAIHzFOCQgQgv9pyweJtvmm1meryDlpK2h52ZPRm-zhn-IfyoWpqfrAB16KXJRW_ji9-FZI0rmd6ePOyHWxatyTbFX6Sazy_2rmEG2y4Dvdyfni5WBmLW-tI-8rKWcoZc2cdAJ8oiN7dqzsfGfZfwScQmXwcONZmfbrxVTQHaT3vPqwou-donMDoEnXMyM-E5Sdd9ny7DAhgsLOUldV6ONXlpH0gI_1DKn0yNloWS-jR8TH_exIqrmJosP68M_3KJSnaSKUty31CFPf3Nf9GDzpEMqwkEJqUHyJ7AZvz9Vw5UTAMbrfFH0IXid_dy_NXrdBpflf_CY_5duuqJSWPt-afqV7ck98mlmvM4eSR_HnzLaFNRQrhKm3qX6qH6B9StOefvFMCiwcouxMxkRy3Cvt1pjrYykKbOAI66teJG_JaKPfnbciK8E-EzQS3i9oFRrWZKj0eRreu8uuNEeOELQHgZFnJGc52P0w4buA-mmb5c-qwN8TS1RvkQsNqjD3mMxzBV5he5R6jo8DF_MW11RYsdWkh_-5o_Roowbe5eHueyCH6Nw6lZyCYyo7WPGVY8Vm00?></g></svg>