<svg xmlns="http://www.w3.org/2000/svg" xmlns:xlink="http://www.w3.org/1999/xlink" contentStyleType="text/css" data-diagram-type="DESCRIPTION" height="1046px" preserveAspectRatio="none" style="width:586px;height:1046px;background:#FFFFFF;" version="1.1" viewBox="0 0 586 1046" width="586px" zoomAndPan="magnify"><?plantuml 1.2026.3beta6?><defs/><g><g class="title" data-source-line="1"><text fill="#000000" font-family="sans-serif" font-size="14" font-weight="700" lengthAdjust="spacing" textLength="150.2744" x="214.8128" y="22.9951">Use Case Overview</text></g><!--cluster White Rose WhatsApp Order System--><g class="cluster" data-qualified-name="White Rose WhatsApp Order System" data-source-line="8" id="ent0005"><rect fill="none" height="983" rx="2.5" ry="2.5" style="stroke:#181818;stroke-width:1;" width="303.56" x="269.34" y="44.2969"/><text fill="#000000" font-family="sans-serif" font-size="14" font-weight="700" lengthAdjust="spacing" textLength="288.4219" x="276.9091" y="59.292">White Rose WhatsApp Order System</text></g><!--entity UCQuote--><g class="entity" data-qualified-name="White Rose WhatsApp Order System.UCQuote" data-source-line="9" id="ent0006"><ellipse cx="420.6201" cy="164.2989" fill="#F1F1F1" rx="69.2601" ry="16.252" style="stroke:#181818;stroke-width:0.5;"/><text fill="#000000" font-family="sans-serif" font-size="14" lengthAdjust="spacing" textLength="104.5078" x="368.3662" y="168.9473">Request Quote</text></g><!--entity UCStatusLookup--><g class="entity" data-qualified-name="White Rose WhatsApp Order System.UCStatusLookup" data-source-line="10" id="ent0007"><ellipse cx="420.6227" cy="234.2934" fill="#F1F1F1" rx="82.5327" ry="18.9065" style="stroke:#181818;stroke-width:0.5;"/><text fill="#000000" font-family="sans-serif" font-size="14" lengthAdjust="spacing" textLength="136.6094" x="352.318" y="238.9419">Check Order Status</text></g><!--entity UCOrder--><g class="entity" data-qualified-name="White Rose WhatsApp Order System.UCOrder" data-source-line="11" id="ent0008"><ellipse cx="420.6215" cy="304.2992" fill="#F1F1F1" rx="67.4615" ry="15.8923" style="stroke:#181818;stroke-width:0.5;"/><text fill="#000000" font-family="sans-serif" font-size="14" lengthAdjust="spacing" textLength="99.9072" x="370.6679" y="308.9476">Confirm Order</text></g><!--entity UCManage--><g class="entity" data-qualified-name="White Rose WhatsApp Order System.UCManage" data-source-line="12" id="ent0009"><ellipse cx="420.6207" cy="444.297" fill="#F1F1F1" rx="70.4007" ry="16.4801" style="stroke:#181818;stroke-width:0.5;"/><text fill="#000000" font-family="sans-serif" font-size="14" lengthAdjust="spacing" textLength="107.3857" x="366.9278" y="448.9454">Manage Orders</text></g><!--entity UCRetrieve--><g class="entity" data-qualified-name="White Rose WhatsApp Order System.UCRetrieve" data-source-line="13" id="ent0010"><ellipse cx="420.6163" cy="606.2961" fill="#F1F1F1" rx="75.4963" ry="17.4993" style="stroke:#181818;stroke-width:0.5;"/><text fill="#000000" font-family="sans-serif" font-size="14" lengthAdjust="spacing" textLength="119.9297" x="360.6514" y="610.9446">Retrieve Booking</text></g><!--entity UCSchedule--><g class="entity" data-qualified-name="White Rose WhatsApp Order System.UCSchedule" data-source-line="14" id="ent0011"><ellipse cx="420.6231" cy="533.2935" fill="#F1F1F1" rx="92.5831" ry="20.9166" style="stroke:#181818;stroke-width:0.5;"/><text fill="#000000" font-family="sans-serif" font-size="14" lengthAdjust="spacing" textLength="159.5645" x="340.8409" y="537.9419">Schedule Appointment</text></g><!--entity UCCancel--><g class="entity" data-qualified-name="White Rose WhatsApp Order System.UCCancel" data-source-line="15" id="ent0012"><ellipse cx="420.6234" cy="96.2956" fill="#F1F1F1" rx="70.7934" ry="16.5587" style="stroke:#181818;stroke-width:0.5;"/><text fill="#000000" font-family="sans-serif" font-size="14" lengthAdjust="spacing" textLength="108.3701" x="366.4384" y="100.944">Cancel Booking</text></g><!--entity UCReminders--><g class="entity" data-qualified-name="White Rose WhatsApp Order System.UCReminders" data-source-line="16" id="ent0013"><ellipse cx="420.6201" cy="374.3009" fill="#F1F1F1" rx="81.9201" ry="18.784" style="stroke:#181818;stroke-width:0.5;"/><text fill="#000000" font-family="sans-serif" font-size="14" lengthAdjust="spacing" textLength="135.1807" x="353.0297" y="378.9493">Receive Reminders</text></g><!--entity UCDashboard--><g class="entity" data-qualified-name="White Rose WhatsApp Order System.UCDashboard" data-source-line="17" id="ent0014"><ellipse cx="420.6172" cy="927.2943" fill="#F1F1F1" rx="73.1372" ry="17.0274" style="stroke:#181818;stroke-width:0.5;"/><text fill="#000000" font-family="sans-serif" font-size="14" lengthAdjust="spacing" textLength="114.1807" x="363.5269" y="931.9428">View Dashboard</text></g><!--entity UCStatus--><g class="entity" data-qualified-name="White Rose WhatsApp Order System.UCStatus" data-source-line="18" id="ent0015"><ellipse cx="420.6201" cy="758.2949" fill="#F1F1F1" rx="77.9401" ry="17.988" style="stroke:#181818;stroke-width:0.5;"/><text fill="#000000" font-family="sans-serif" font-size="14" lengthAdjust="spacing" textLength="125.7949" x="357.7226" y="762.9433">Update Job Status</text></g><!--entity UCCompletion--><g class="entity" data-qualified-name="White Rose WhatsApp Order System.UCCompletion" data-source-line="19" id="ent0016"><ellipse cx="420.6178" cy="682.2964" fill="#F1F1F1" rx="104.3978" ry="23.2796" style="stroke:#181818;stroke-width:0.5;"/><text fill="#000000" font-family="sans-serif" font-size="14" lengthAdjust="spacing" textLength="185.7051" x="327.7653" y="686.9449">Send Completion Message</text></g><!--entity UCProactive--><g class="entity" data-qualified-name="White Rose WhatsApp Order System.UCProactive" data-source-line="20" id="ent0017"><ellipse cx="420.6191" cy="851.2927" fill="#F1F1F1" rx="106.2791" ry="23.6558" style="stroke:#181818;stroke-width:0.5;"/><text fill="#000000" font-family="sans-serif" font-size="14" lengthAdjust="spacing" textLength="189.8066" x="325.7157" y="855.9411">Send Proactive Notification</text></g><!--entity UCPricing--><g class="entity" data-qualified-name="White Rose WhatsApp Order System.UCPricing" data-source-line="21" id="ent0018"><ellipse cx="420.6153" cy="995.2979" fill="#F1F1F1" rx="68.5053" ry="16.1011" style="stroke:#181818;stroke-width:0.5;"/><text fill="#000000" font-family="sans-serif" font-size="14" lengthAdjust="spacing" textLength="102.5869" x="369.3218" y="999.9464">Update Pricing</text></g><!--entity Customer--><g class="entity" data-qualified-name="Customer" data-source-line="4" id="ent0002"><ellipse cx="82.172" cy="309.6469" fill="#F1F1F1" rx="8" ry="8" style="stroke:#181818;stroke-width:0.5;"/><path d="M82.172,317.6469 L82.172,344.6469 M69.172,325.6469 L95.172,325.6469 M82.172,344.6469 L69.172,359.6469 M82.172,344.6469 L95.172,359.6469" fill="none" style="stroke:#181818;stroke-width:0.5;"/><text fill="#000000" font-family="sans-serif" font-size="14" lengthAdjust="spacing" textLength="68.0039" x="48.17" y="374.142">Customer</text></g><!--entity Administrator--><g class="entity" data-qualified-name="Administrator" data-source-line="5" id="ent0003"><ellipse cx="82.1713" cy="759.6469" fill="#F1F1F1" rx="8" ry="8" style="stroke:#181818;stroke-width:0.5;"/><path d="M82.1713,767.6469 L82.1713,794.6469 M69.1713,775.6469 L95.1713,775.6469 M82.1713,794.6469 L69.1713,809.6469 M82.1713,794.6469 L95.1713,809.6469" fill="none" style="stroke:#181818;stroke-width:0.5;"/><text fill="#000000" font-family="sans-serif" font-size="14" lengthAdjust="spacing" textLength="95.6826" x="34.33" y="824.142">Administrator</text></g><!--entity Maintainer--><g class="entity" data-qualified-name="Maintainer" data-source-line="6" id="ent0004"><ellipse cx="82.1694" cy="965.6469" fill="#F1F1F1" rx="8" ry="8" style="stroke:#181818;stroke-width:0.5;"/><path d="M82.1694,973.6469 L82.1694,1000.6469 M69.1694,981.6469 L95.1694,981.6469 M82.1694,1000.6469 L69.1694,1015.6469 M82.1694,1000.6469 L95.1694,1015.6469" fill="none" style="stroke:#181818;stroke-width:0.5;"/><text fill="#000000" font-family="sans-serif" font-size="14" lengthAdjust="spacing" textLength="152.3389" x="6" y="1030.142">System Administrator</text></g><!--link Customer to UCQuote--><g class="link" data-entity-1="ent0002" data-entity-2="ent0006" data-link-type="dependency" data-source-line="24" id="lnk19"><path d="M116.41,305.1169 C149.96,272.6569 204.79,224.9569 261.34,198.2969 C291.21,184.2169 321.0779,176.8605 351.0679,171.9805" fill="none" id="Customer-to-UCQuote" style="stroke:#181818;stroke-width:1;"/><polygon fill="#181818" points="356.99,171.0169,347.4644,168.5143,352.0549,171.8199,348.7493,176.4104,356.99,171.0169" style="stroke:#181818;stroke-width:1;"/></g><!--link Customer to UCStatusLookup--><g class="link" data-entity-1="ent0002" data-entity-2="ent0007" data-link-type="dependency" data-source-line="25" id="lnk20"><path d="M116.27,326.2269 C136.95,318.0969 164.16,307.4869 188.34,298.2969 C220.68,286.0169 228.21,281.2569 261.34,271.2969 C292.82,261.8369 322.5692,254.602 352.0292,248.142" fill="none" id="Customer-to-UCStatusLookup" style="stroke:#181818;stroke-width:1;"/><polygon fill="#181818" points="357.89,246.8569,348.2421,244.8774,353.006,247.9278,349.9556,252.6918,357.89,246.8569" style="stroke:#181818;stroke-width:1;"/></g><!--link Customer to UCOrder--><g class="link" data-entity-1="ent0002" data-entity-2="ent0008" data-link-type="dependency" data-source-line="26" id="lnk21"><path d="M116.31,335.3869 C137.01,332.9869 164.22,329.8769 188.34,327.2969 C245.71,321.1669 305.1879,315.295 351.7779,310.785" fill="none" id="Customer-to-UCOrder" style="stroke:#181818;stroke-width:1;"/><polygon fill="#181818" points="357.75,310.2069,348.4065,307.0926,352.7733,310.6886,349.1773,315.0554,357.75,310.2069" style="stroke:#181818;stroke-width:1;"/></g><!--link Customer to UCManage--><g class="link" data-entity-1="ent0002" data-entity-2="ent0009" data-link-type="dependency" data-source-line="27" id="lnk22"><path d="M116.39,354.4869 C151.74,370.1869 209.57,394.5469 261.34,410.2969 C294.55,420.4069 326.6582,427.5326 357.0982,433.3926" fill="none" id="Customer-to-UCManage" style="stroke:#181818;stroke-width:1;"/><polygon fill="#181818" points="362.99,434.5269,354.9084,428.8976,358.0802,433.5817,353.3961,436.7534,362.99,434.5269" style="stroke:#181818;stroke-width:1;"/></g><!--link Customer to UCRetrieve--><g class="link" data-entity-1="ent0002" data-entity-2="ent0010" data-link-type="dependency" data-source-line="28" id="lnk23"><path d="M91.32,377.9069 C103.68,426.6069 131.93,509.3969 188.34,554.2969 C232.45,589.4169 289.6094,601.3551 338.7694,605.3151" fill="none" id="Customer-to-UCRetrieve" style="stroke:#181818;stroke-width:1;"/><polygon fill="#181818" points="344.75,605.7969,336.1002,601.0872,339.7661,605.3954,335.4579,609.0613,344.75,605.7969" style="stroke:#181818;stroke-width:1;"/></g><!--link Customer to UCSchedule--><g class="link" data-entity-1="ent0002" data-entity-2="ent0011" data-link-type="dependency" data-source-line="29" id="lnk24"><path d="M116.6,370.9069 C150.74,401.7869 206.38,448.3769 261.34,478.2969 C292,494.9869 322.9503,506.3689 353.2903,515.6089" fill="none" id="Customer-to-UCSchedule" style="stroke:#181818;stroke-width:1;"/><polygon fill="#181818" points="359.03,517.3569,351.5858,510.9084,354.2469,515.9002,349.2551,518.5613,359.03,517.3569" style="stroke:#181818;stroke-width:1;"/></g><!--link Customer to UCCancel--><g class="link" data-entity-1="ent0002" data-entity-2="ent0012" data-link-type="dependency" data-source-line="30" id="lnk25"><path d="M103.33,300.7669 C131.4,251.5569 187.29,168.2269 261.34,130.2969 C289.98,115.6269 318.7458,108.2279 348.3358,103.4779" fill="none" id="Customer-to-UCCancel" style="stroke:#181818;stroke-width:1;"/><polygon fill="#181818" points="354.26,102.5269,344.7398,100.0039,349.3232,103.3194,346.0078,107.9028,354.26,102.5269" style="stroke:#181818;stroke-width:1;"/></g><!--link Customer to UCReminders--><g class="link" data-entity-1="ent0002" data-entity-2="ent0013" data-link-type="dependency" data-source-line="31" id="lnk26"><path d="M116.31,343.2069 C137.01,345.6069 164.22,348.7169 188.34,351.2969 C240.4,356.8569 293.1282,362.1059 338.3582,366.5059" fill="none" id="Customer-to-UCReminders" style="stroke:#181818;stroke-width:1;"/><polygon fill="#181818" points="344.33,367.0869,335.7596,362.2343,339.3535,366.6028,334.985,370.1967,344.33,367.0869" style="stroke:#181818;stroke-width:1;"/></g><!--link Administrator to UCDashboard--><g class="link" data-entity-1="ent0003" data-entity-2="ent0014" data-link-type="dependency" data-source-line="33" id="lnk27"><path d="M130.3,821.9269 C165.11,844.6469 214.39,874.0369 261.34,892.2969 C292.16,904.2869 322.1311,911.5399 351.9211,917.0799" fill="none" id="Administrator-to-UCDashboard" style="stroke:#181818;stroke-width:1;"/><polygon fill="#181818" points="357.82,918.1769,349.703,912.5988,352.9043,917.2627,348.2404,920.4639,357.82,918.1769" style="stroke:#181818;stroke-width:1;"/></g><!--link Administrator to UCStatus--><g class="link" data-entity-1="ent0003" data-entity-2="ent0015" data-link-type="dependency" data-source-line="34" id="lnk28"><path d="M130.31,784.9569 C186.73,779.7569 275.8454,771.5481 341.5254,765.4881" fill="none" id="Administrator-to-UCStatus" style="stroke:#181818;stroke-width:1;"/><polygon fill="#181818" points="347.5,764.9369,338.1706,761.7807,342.5211,765.3963,338.9056,769.7468,347.5,764.9369" style="stroke:#181818;stroke-width:1;"/></g><!--link Administrator to UCCompletion--><g class="link" data-entity-1="ent0003" data-entity-2="ent0016" data-link-type="dependency" data-source-line="35" id="lnk29"><path d="M130.36,770.3269 C166.01,756.3569 216.33,737.4269 261.34,723.2969 C289.37,714.4969 314.7918,707.5826 342.0618,700.7126" fill="none" id="Administrator-to-UCCompletion" style="stroke:#181818;stroke-width:1;"/><polygon fill="#181818" points="347.88,699.2469,338.1755,697.5667,343.0315,700.4683,340.1299,705.3243,347.88,699.2469" style="stroke:#181818;stroke-width:1;"/></g><!--link Administrator to UCProactive--><g class="link" data-entity-1="ent0003" data-entity-2="ent0017" data-link-type="dependency" data-source-line="36" id="lnk30"><path d="M130.31,797.9869 C183.93,807.8669 266.5695,823.089 331.5995,835.079" fill="none" id="Administrator-to-UCProactive" style="stroke:#181818;stroke-width:1;"/><polygon fill="#181818" points="337.5,836.1669,329.3745,830.6013,332.5829,835.2603,327.9239,838.4687,337.5,836.1669" style="stroke:#181818;stroke-width:1;"/></g><!--link Maintainer to UCPricing--><g class="link" data-entity-1="ent0004" data-entity-2="ent0018" data-link-type="dependency" data-source-line="38" id="lnk31"><path d="M158.68,995.2969 C216.6,995.2969 289.87,995.2969 345.79,995.2969" fill="none" id="Maintainer-to-UCPricing" style="stroke:#181818;stroke-width:1;"/><polygon fill="#181818" points="351.79,995.2969,342.79,991.2969,346.79,995.2969,342.79,999.2969,351.79,995.2969" style="stroke:#181818;stroke-width:1;"/></g><!--link UCManage to UCSchedule--><g class="link" data-entity-1="ent0009" data-entity-2="ent0011" data-link-type="dependency" data-source-line="40" id="lnk32"><path d="M420.62,461.0769 C420.62,475.5669 420.62,490.5769 420.62,506.2069" fill="none" id="UCManage-to-UCSchedule" style="stroke:#181818;stroke-width:1;stroke-dasharray:7,7;"/><polygon fill="#181818" points="420.62,512.2069,424.62,503.2069,420.62,507.2069,416.62,503.2069,420.62,512.2069" style="stroke:#181818;stroke-width:1;"/><text fill="#000000" font-family="sans-serif" font-size="13" lengthAdjust="spacing" textLength="63.0068" x="377.62" y="491.1438">&#171;include&#187;</text></g><!--link UCManage to UCRetrieve--><g class="link" data-entity-1="ent0009" data-entity-2="ent0010" data-link-type="dependency" data-source-line="41" id="lnk33"><path d="M357.06,451.7469 C287.32,462.9069 189.25,489.1869 221.47,546.7969 C245.2,589.2369 293.1525,602.9682 338.9025,606.9382" fill="none" id="UCManage-to-UCRetrieve" style="stroke:#181818;stroke-width:1;stroke-dasharray:7,7;"/><polygon fill="#181818" points="344.88,607.4569,336.2595,602.6938,339.8987,607.0246,335.5679,610.6638,344.88,607.4569" style="stroke:#181818;stroke-width:1;"/><text fill="#000000" font-family="sans-serif" font-size="13" lengthAdjust="spacing" textLength="63.0068" x="189.34" y="542.8638">&#171;include&#187;</text></g><!--link UCManage to UCCancel--><g class="link" data-entity-1="ent0009" data-entity-2="ent0012" data-link-type="dependency" data-source-line="42" id="lnk34"><path d="M351.16,441.4069 C321.32,437.2969 287.41,428.5269 261.34,410.2969 C234.03,391.1969 230.69,378.8169 221.47,346.7969 C210.9,310.0769 162.13,230.8069 261.34,130.2969 C284.18,107.1569 312.6703,98.5488 343.7103,95.4188" fill="none" id="UCManage-to-UCCancel" style="stroke:#181818;stroke-width:1;stroke-dasharray:7,7;"/><polygon fill="#181818" points="349.68,94.8169,340.3241,91.74,344.7052,95.3185,341.1267,99.6997,349.68,94.8169" style="stroke:#181818;stroke-width:1;"/><text fill="#000000" font-family="sans-serif" font-size="13" lengthAdjust="spacing" textLength="63.0068" x="189.34" y="342.8638">&#171;include&#187;</text></g><!--link UCStatus to UCProactive--><g class="link" data-entity-1="ent0015" data-entity-2="ent0017" data-link-type="dependency" data-source-line="43" id="lnk35"><path d="M420.62,776.5869 C420.62,791.1069 420.62,805.5269 420.62,821.3469" fill="none" id="UCStatus-to-UCProactive" style="stroke:#181818;stroke-width:1;stroke-dasharray:7,7;"/><polygon fill="#181818" points="420.62,827.3469,424.62,818.3469,420.62,822.3469,416.62,818.3469,420.62,827.3469" style="stroke:#181818;stroke-width:1;"/><text fill="#000000" font-family="sans-serif" font-size="13" lengthAdjust="spacing" textLength="63.0068" x="377.62" y="806.5338">&#171;include&#187;</text></g><?plantuml-src VLF1Rjim3BthAmZVsmyOYW2TTngMjKkHzgpAJ4pKbZo9pb0K-_V9aMHRgh633PFlaNxYevYuGpWwX5hwryC5xONmZ-ZmnC06B9rRXeOiAYQZXP2AZOLwT6nwj36yRthIvDXA7yLSzVJk6FiSgq0ws4lIx1zVBgQ-Kf-zXkgb9KOu62_ZfPNixeS17co35aAd2Zu4mEXGJKgh0_uUqJ7y6WtZjU-nldwlINMBwYrrOScZYymG_33cRHoo0gDFPFjG4hdNxpLfBxKyO-2aXY6N2sHBU47uwlz2-Xo9ARscFgaMcz4FmP_P-E7qg3a9ZL0cKcg5NT4t97C12id__u3UWPNKELwJdxthy4swzjL8sqJc7A-Pnw6HtgZlvdLhfDcnK3TGctxeS5eUsADpVaX9y0nygdcqnY_HfFsdOJgHaXCjritWXgX7IsePIOp4No7ImiBDpMvUb2APxKI1XHqeaj7p8ZiRNBPFJXRvQDodBiaaaTsW22_ERA7HYYreDVKjU1ckMAxfZ8LnYdHok5sV2xx0tHrfrOqDxdO5QRuC_oF5lIufuJI1icn6nle7?></g></svg>