<svg xmlns="http://www.w3.org/2000/svg" xmlns:xlink="http://www.w3.org/1999/xlink" contentStyleType="text/css" data-diagram-type="CLASS" height="759px" preserveAspectRatio="none" style="width:837px;height:759px;background:#FFFFFF;" version="1.1" viewBox="0 0 837 759" width="837px" zoomAndPan="magnify"><?plantuml 1.2026.3beta6?><defs/><g><g class="title" data-source-line="1"><text fill="#000000" font-family="sans-serif" font-size="14" font-weight="700" lengthAdjust="spacing" textLength="112.7793" x="358.9273" y="22.9951">Domain Model</text></g><!--class Customer--><g class="entity" data-qualified-name="Customer" data-source-line="6" id="ent0002"><rect fill="#F1F1F1" height="72.5938" rx="2.5" ry="2.5" style="stroke:#181818;stroke-width:0.5;" width="112.0508" x="268.71" y="44.2969"/><ellipse cx="289.1311" cy="60.2969" fill="#ADD1B2" rx="11" ry="11" style="stroke:#181818;stroke-width:1;"/><path d="M292.0998,65.9375 Q291.5217,66.2344 290.8811,66.375 Q290.2405,66.5313 289.5373,66.5313 Q287.0373,66.5313 285.7092,64.8906 Q284.3967,63.2344 284.3967,60.1094 Q284.3967,56.9844 285.7092,55.3281 Q287.0373,53.6719 289.5373,53.6719 Q290.2405,53.6719 290.8811,53.8281 Q291.5373,53.9844 292.0998,54.2813 L292.0998,57 Q291.4748,56.4219 290.8811,56.1563 Q290.2873,55.875 289.6623,55.875 Q288.3186,55.875 287.6311,56.9531 Q286.9436,58.0156 286.9436,60.1094 Q286.9436,62.2031 287.6311,63.2813 Q288.3186,64.3438 289.6623,64.3438 Q290.2873,64.3438 290.8811,64.0781 Q291.4748,63.7969 292.0998,63.2188 L292.0998,65.9375 Z " fill="#000000"/><text fill="#000000" font-family="sans-serif" font-size="14" lengthAdjust="spacing" textLength="68.0039" x="304.3358" y="65.1436">Customer</text><line style="stroke:#181818;stroke-width:0.5;" x1="269.71" x2="379.7608" y1="76.2969" y2="76.2969"/><text fill="#000000" font-family="sans-serif" font-size="14" lengthAdjust="spacing" textLength="100.0508" x="274.71" y="93.292">phoneNumber</text><text fill="#000000" font-family="sans-serif" font-size="14" lengthAdjust="spacing" textLength="91.0137" x="274.71" y="109.5889">displayName</text></g><!--class Admin--><g class="entity" data-qualified-name="Admin" data-source-line="11" id="ent0003"><rect fill="#F1F1F1" height="72.5938" rx="2.5" ry="2.5" style="stroke:#181818;stroke-width:0.5;" width="86.5254" x="428.47" y="44.2969"/><ellipse cx="447.8175" cy="60.2969" fill="#ADD1B2" rx="11" ry="11" style="stroke:#181818;stroke-width:1;"/><path d="M450.7863,65.9375 Q450.2081,66.2344 449.5675,66.375 Q448.9269,66.5313 448.2238,66.5313 Q445.7238,66.5313 444.3956,64.8906 Q443.0831,63.2344 443.0831,60.1094 Q443.0831,56.9844 444.3956,55.3281 Q445.7238,53.6719 448.2238,53.6719 Q448.9269,53.6719 449.5675,53.8281 Q450.2238,53.9844 450.7863,54.2813 L450.7863,57 Q450.1613,56.4219 449.5675,56.1563 Q448.9738,55.875 448.3488,55.875 Q447.005,55.875 446.3175,56.9531 Q445.63,58.0156 445.63,60.1094 Q445.63,62.2031 446.3175,63.2813 Q447.005,64.3438 448.3488,64.3438 Q448.9738,64.3438 449.5675,64.0781 Q450.1613,63.7969 450.7863,63.2188 L450.7863,65.9375 Z " fill="#000000"/><text fill="#000000" font-family="sans-serif" font-size="14" lengthAdjust="spacing" textLength="44.8643" x="462.7836" y="65.1436">Admin</text><line style="stroke:#181818;stroke-width:0.5;" x1="429.47" x2="513.9954" y1="76.2969" y2="76.2969"/><text fill="#000000" font-family="sans-serif" font-size="14" lengthAdjust="spacing" textLength="70.2393" x="434.47" y="93.292">username</text><text fill="#000000" font-family="sans-serif" font-size="14" lengthAdjust="spacing" textLength="74.5254" x="434.47" y="109.5889">authToken</text></g><!--class Order--><g class="entity" data-qualified-name="Order" data-source-line="16" id="ent0004"><rect fill="#F1F1F1" height="186.6719" rx="2.5" ry="2.5" style="stroke:#181818;stroke-width:0.5;" width="117.0889" x="339.19" y="193.8869"/><ellipse cx="374.4659" cy="209.8869" fill="#ADD1B2" rx="11" ry="11" style="stroke:#181818;stroke-width:1;"/><path d="M377.4347,215.5275 Q376.8566,215.8244 376.2159,215.965 Q375.5753,216.1213 374.8722,216.1213 Q372.3722,216.1213 371.0441,214.4806 Q369.7316,212.8244 369.7316,209.6994 Q369.7316,206.5744 371.0441,204.9181 Q372.3722,203.2619 374.8722,203.2619 Q375.5753,203.2619 376.2159,203.4181 Q376.8722,203.5744 377.4347,203.8713 L377.4347,206.59 Q376.8097,206.0119 376.2159,205.7463 Q375.6222,205.465 374.9972,205.465 Q373.6534,205.465 372.9659,206.5431 Q372.2784,207.6056 372.2784,209.6994 Q372.2784,211.7931 372.9659,212.8713 Q373.6534,213.9338 374.9972,213.9338 Q375.6222,213.9338 376.2159,213.6681 Q376.8097,213.3869 377.4347,212.8088 L377.4347,215.5275 Z " fill="#000000"/><text fill="#000000" font-family="sans-serif" font-size="14" lengthAdjust="spacing" textLength="40.0313" x="392.9717" y="214.7336">Order</text><line style="stroke:#181818;stroke-width:0.5;" x1="340.19" x2="455.2789" y1="225.8869" y2="225.8869"/><text fill="#000000" font-family="sans-serif" font-size="14" lengthAdjust="spacing" textLength="12.7764" x="345.19" y="242.882">id</text><text fill="#000000" font-family="sans-serif" font-size="14" lengthAdjust="spacing" textLength="31.5684" x="345.19" y="259.1789">date</text><text fill="#000000" font-family="sans-serif" font-size="14" lengthAdjust="spacing" textLength="43.0186" x="345.19" y="275.4757">status</text><text fill="#000000" font-family="sans-serif" font-size="14" lengthAdjust="spacing" textLength="105.0889" x="345.19" y="291.7726">scheduledDate</text><text fill="#000000" font-family="sans-serif" font-size="14" lengthAdjust="spacing" textLength="97.4326" x="345.19" y="308.0695">scheduleTime</text><text fill="#000000" font-family="sans-serif" font-size="14" lengthAdjust="spacing" textLength="98.7178" x="345.19" y="324.3664">reminderTime</text><text fill="#000000" font-family="sans-serif" font-size="14" lengthAdjust="spacing" textLength="95.8877" x="345.19" y="340.6632">reminderSent</text><text fill="#000000" font-family="sans-serif" font-size="14" lengthAdjust="spacing" textLength="70.9023" x="345.19" y="356.9601">fulfillment</text><text fill="#000000" font-family="sans-serif" font-size="14" lengthAdjust="spacing" textLength="66.4111" x="345.19" y="373.257">totalPrice</text></g><!--class OrderItem--><g class="entity" data-qualified-name="OrderItem" data-source-line="28" id="ent0005"><rect fill="#F1F1F1" height="105.1875" rx="2.5" ry="2.5" style="stroke:#181818;stroke-width:0.5;" width="103.9004" x="181.79" y="457.5569"/><ellipse cx="196.79" cy="473.5569" fill="#ADD1B2" rx="11" ry="11" style="stroke:#181818;stroke-width:1;"/><path d="M199.7588,479.1975 Q199.1806,479.4944 198.54,479.635 Q197.8994,479.7913 197.1963,479.7913 Q194.6963,479.7913 193.3681,478.1506 Q192.0556,476.4944 192.0556,473.3694 Q192.0556,470.2444 193.3681,468.5881 Q194.6963,466.9319 197.1963,466.9319 Q197.8994,466.9319 198.54,467.0881 Q199.1963,467.2444 199.7588,467.5413 L199.7588,470.26 Q199.1338,469.6819 198.54,469.4163 Q197.9463,469.135 197.3213,469.135 Q195.9775,469.135 195.29,470.2131 Q194.6025,471.2756 194.6025,473.3694 Q194.6025,475.4631 195.29,476.5413 Q195.9775,477.6038 197.3213,477.6038 Q197.9463,477.6038 198.54,477.3381 Q199.1338,477.0569 199.7588,476.4788 L199.7588,479.1975 Z " fill="#000000"/><text fill="#000000" font-family="sans-serif" font-size="14" lengthAdjust="spacing" textLength="71.9004" x="210.79" y="478.4036">OrderItem</text><line style="stroke:#181818;stroke-width:0.5;" x1="182.79" x2="284.6904" y1="489.5569" y2="489.5569"/><text fill="#000000" font-family="sans-serif" font-size="14" lengthAdjust="spacing" textLength="54.1543" x="187.79" y="506.552">product</text><text fill="#000000" font-family="sans-serif" font-size="14" lengthAdjust="spacing" textLength="58.3652" x="187.79" y="522.8489">quantity</text><text fill="#000000" font-family="sans-serif" font-size="14" lengthAdjust="spacing" textLength="77.8408" x="187.79" y="539.1457">description</text><text fill="#000000" font-family="sans-serif" font-size="14" lengthAdjust="spacing" textLength="34.8428" x="187.79" y="555.4426">price</text></g><!--class ProductCatalog--><g class="entity" data-qualified-name="ProductCatalog" data-source-line="35" id="ent0006"><rect fill="#F1F1F1" height="56.2969" rx="2.5" ry="2.5" style="stroke:#181818;stroke-width:0.5;" width="139.4746" x="7" y="482.0069"/><ellipse cx="22" cy="498.0069" fill="#ADD1B2" rx="11" ry="11" style="stroke:#181818;stroke-width:1;"/><path d="M24.9688,503.6475 Q24.3906,503.9444 23.75,504.085 Q23.1094,504.2413 22.4063,504.2413 Q19.9063,504.2413 18.5781,502.6006 Q17.2656,500.9444 17.2656,497.8194 Q17.2656,494.6944 18.5781,493.0381 Q19.9063,491.3819 22.4063,491.3819 Q23.1094,491.3819 23.75,491.5381 Q24.4063,491.6944 24.9688,491.9913 L24.9688,494.71 Q24.3438,494.1319 23.75,493.8663 Q23.1563,493.585 22.5313,493.585 Q21.1875,493.585 20.5,494.6631 Q19.8125,495.7256 19.8125,497.8194 Q19.8125,499.9131 20.5,500.9913 Q21.1875,502.0538 22.5313,502.0538 Q23.1563,502.0538 23.75,501.7881 Q24.3438,501.5069 24.9688,500.9288 L24.9688,503.6475 Z " fill="#000000"/><text fill="#000000" font-family="sans-serif" font-size="14" lengthAdjust="spacing" textLength="107.4746" x="36" y="502.8536">ProductCatalog</text><line style="stroke:#181818;stroke-width:0.5;" x1="8" x2="145.4746" y1="514.0069" y2="514.0069"/><text fill="#000000" font-family="sans-serif" font-size="14" lengthAdjust="spacing" textLength="102.5801" x="13" y="531.002">installationFee</text></g><!--class Product--><g class="entity" data-qualified-name="Product" data-source-line="39" id="ent0007"><rect fill="#F1F1F1" height="105.1875" rx="2.5" ry="2.5" style="stroke:#181818;stroke-width:0.5;" width="85.71" x="77.88" y="639.7469"/><ellipse cx="92.88" cy="655.7469" fill="#ADD1B2" rx="11" ry="11" style="stroke:#181818;stroke-width:1;"/><path d="M95.8488,661.3875 Q95.2706,661.6844 94.63,661.825 Q93.9894,661.9812 93.2863,661.9812 Q90.7863,661.9812 89.4581,660.3406 Q88.1456,658.6844 88.1456,655.5594 Q88.1456,652.4344 89.4581,650.7781 Q90.7863,649.1219 93.2863,649.1219 Q93.9894,649.1219 94.63,649.2781 Q95.2863,649.4344 95.8488,649.7312 L95.8488,652.45 Q95.2238,651.8719 94.63,651.6062 Q94.0363,651.325 93.4113,651.325 Q92.0675,651.325 91.38,652.4031 Q90.6925,653.4656 90.6925,655.5594 Q90.6925,657.6531 91.38,658.7312 Q92.0675,659.7937 93.4113,659.7937 Q94.0363,659.7937 94.63,659.5281 Q95.2238,659.2469 95.8488,658.6687 L95.8488,661.3875 Z " fill="#000000"/><text fill="#000000" font-family="sans-serif" font-size="14" lengthAdjust="spacing" textLength="53.71" x="106.88" y="660.5936">Product</text><line style="stroke:#181818;stroke-width:0.5;" x1="78.88" x2="162.59" y1="671.7469" y2="671.7469"/><text fill="#000000" font-family="sans-serif" font-size="14" lengthAdjust="spacing" textLength="25.0059" x="83.88" y="688.742">key</text><text fill="#000000" font-family="sans-serif" font-size="14" lengthAdjust="spacing" textLength="39.7031" x="83.88" y="705.0389">name</text><text fill="#000000" font-family="sans-serif" font-size="14" lengthAdjust="spacing" textLength="31.2744" x="83.88" y="721.3357">type</text><text fill="#000000" font-family="sans-serif" font-size="14" lengthAdjust="spacing" textLength="63.1914" x="83.88" y="737.6326">available</text></g><!--class InvoiceDocument--><g class="entity" data-qualified-name="InvoiceDocument" data-source-line="46" id="ent0008"><rect fill="#F1F1F1" height="72.5938" rx="2.5" ry="2.5" style="stroke:#181818;stroke-width:0.5;" width="154.582" x="320.45" y="473.8569"/><ellipse cx="335.45" cy="489.8569" fill="#ADD1B2" rx="11" ry="11" style="stroke:#181818;stroke-width:1;"/><path d="M338.4188,495.4975 Q337.8406,495.7944 337.2,495.935 Q336.5594,496.0913 335.8563,496.0913 Q333.3563,496.0913 332.0281,494.4506 Q330.7156,492.7944 330.7156,489.6694 Q330.7156,486.5444 332.0281,484.8881 Q333.3563,483.2319 335.8563,483.2319 Q336.5594,483.2319 337.2,483.3881 Q337.8563,483.5444 338.4188,483.8413 L338.4188,486.56 Q337.7938,485.9819 337.2,485.7163 Q336.6063,485.435 335.9813,485.435 Q334.6375,485.435 333.95,486.5131 Q333.2625,487.5756 333.2625,489.6694 Q333.2625,491.7631 333.95,492.8413 Q334.6375,493.9038 335.9813,493.9038 Q336.6063,493.9038 337.2,493.6381 Q337.7938,493.3569 338.4188,492.7788 L338.4188,495.4975 Z " fill="#000000"/><text fill="#000000" font-family="sans-serif" font-size="14" lengthAdjust="spacing" textLength="122.582" x="349.45" y="494.7036">InvoiceDocument</text><line style="stroke:#181818;stroke-width:0.5;" x1="321.45" x2="474.032" y1="505.8569" y2="505.8569"/><text fill="#000000" font-family="sans-serif" font-size="14" lengthAdjust="spacing" textLength="61.0244" x="326.45" y="522.852">filename</text><text fill="#000000" font-family="sans-serif" font-size="14" lengthAdjust="spacing" textLength="104.9727" x="326.45" y="539.1489">documentType</text></g><!--class ReminderLog--><g class="entity" data-qualified-name="ReminderLog" data-source-line="51" id="ent0009"><rect fill="#F1F1F1" height="105.1875" rx="2.5" ry="2.5" style="stroke:#181818;stroke-width:0.5;" width="125.249" x="510.11" y="457.5569"/><ellipse cx="525.11" cy="473.5569" fill="#ADD1B2" rx="11" ry="11" style="stroke:#181818;stroke-width:1;"/><path d="M528.0788,479.1975 Q527.5006,479.4944 526.86,479.635 Q526.2194,479.7913 525.5163,479.7913 Q523.0163,479.7913 521.6881,478.1506 Q520.3756,476.4944 520.3756,473.3694 Q520.3756,470.2444 521.6881,468.5881 Q523.0163,466.9319 525.5163,466.9319 Q526.2194,466.9319 526.86,467.0881 Q527.5163,467.2444 528.0788,467.5413 L528.0788,470.26 Q527.4538,469.6819 526.86,469.4163 Q526.2663,469.135 525.6413,469.135 Q524.2975,469.135 523.61,470.2131 Q522.9225,471.2756 522.9225,473.3694 Q522.9225,475.4631 523.61,476.5413 Q524.2975,477.6038 525.6413,477.6038 Q526.2663,477.6038 526.86,477.3381 Q527.4538,477.0569 528.0788,476.4788 L528.0788,479.1975 Z " fill="#000000"/><text fill="#000000" font-family="sans-serif" font-size="14" lengthAdjust="spacing" textLength="93.249" x="539.11" y="478.4036">ReminderLog</text><line style="stroke:#181818;stroke-width:0.5;" x1="511.11" x2="634.359" y1="489.5569" y2="489.5569"/><text fill="#000000" font-family="sans-serif" font-size="14" lengthAdjust="spacing" textLength="50.5928" x="516.11" y="506.552">orderId</text><text fill="#000000" font-family="sans-serif" font-size="14" lengthAdjust="spacing" textLength="94.001" x="516.11" y="522.8489">scheduledFor</text><text fill="#000000" font-family="sans-serif" font-size="14" lengthAdjust="spacing" textLength="43.0186" x="516.11" y="539.1457">status</text><text fill="#000000" font-family="sans-serif" font-size="14" lengthAdjust="spacing" textLength="62.7949" x="516.11" y="555.4426">loggedAt</text></g><g class="entity" data-qualified-name="GMN17" data-source-line="67" id="ent0018"><path d="M490.84,259.5269 L490.84,283.2269 L456.67,287.2269 L490.84,291.2269 L490.84,314.9253 A0,0 0 0 0 490.84,314.9253 L822.6339,314.9253 A0,0 0 0 0 822.6339,314.9253 L822.6339,269.5269 L812.6339,259.5269 L490.84,259.5269 A0,0 0 0 0 490.84,259.5269" fill="#FEFFDD" style="stroke:#181818;stroke-width:0.5;"/><path d="M812.6339,259.5269 L812.6339,269.5269 L822.6339,269.5269 L812.6339,259.5269" fill="#FEFFDD" style="stroke:#181818;stroke-width:0.5;"/><text fill="#000000" font-family="sans-serif" font-size="13" lengthAdjust="spacing" textLength="293.9028" x="496.84" y="276.5938">Persistent order data is stored in orders.json.</text><text fill="#000000" font-family="sans-serif" font-size="13" lengthAdjust="spacing" textLength="294.0742" x="496.84" y="291.7266">Reminder fields and status values are part of</text><text fill="#000000" font-family="sans-serif" font-size="13" lengthAdjust="spacing" textLength="310.7939" x="496.84" y="306.8594">the order record in the current implementation.</text></g><!--link Customer to Order--><g class="link" data-entity-1="ent0002" data-entity-2="ent0004" data-link-type="association" data-source-line="58" id="lnk10"><path codeLine="58" d="M318.68,117.0169 C317.37,131.7569 317.46,148.9069 321.74,163.8869 C325.72,177.8369 331.79,191.7369 338.81,204.9069" fill="none" id="Customer-Order" style="stroke:#181818;stroke-width:1;"/><text fill="#000000" font-family="sans-serif" font-size="13" lengthAdjust="spacing" textLength="105.9868" x="322.74" y="159.9538">places/manages</text><text fill="#000000" font-family="sans-serif" font-size="13" lengthAdjust="spacing" textLength="8.271" x="308.913" y="136.9194">1</text><text fill="#000000" font-family="sans-serif" font-size="13" lengthAdjust="spacing" textLength="23.0356" x="308.1093" y="192.1574">0..*</text></g><!--link Admin to Order--><g class="link" data-entity-1="ent0003" data-entity-2="ent0004" data-link-type="association" data-source-line="59" id="lnk11"><path codeLine="59" d="M458.85,117.2369 C451.19,138.4169 441.08,166.3569 431.3,193.4069" fill="none" id="Admin-Order" style="stroke:#181818;stroke-width:1;"/><text fill="#000000" font-family="sans-serif" font-size="13" lengthAdjust="spacing" textLength="107.0088" x="448.74" y="159.9538">reviews/updates</text><text fill="#000000" font-family="sans-serif" font-size="13" lengthAdjust="spacing" textLength="8.271" x="447.9716" y="136.9023">1</text><text fill="#000000" font-family="sans-serif" font-size="13" lengthAdjust="spacing" textLength="23.0356" x="409.9908" y="182.7219">0..*</text></g><!--reverse link Order to OrderItem--><g class="link" data-entity-1="ent0004" data-entity-2="ent0005" data-link-type="composition" data-source-line="60" id="lnk12"><path codeLine="60" d="M331.6071,377.3121 C309.4771,407.1221 292.06,430.5769 272.26,457.2669" fill="none" id="Order-backto-OrderItem" style="stroke:#181818;stroke-width:1;"/><polygon fill="#181818" points="338.76,367.6769,331.9718,370.1102,331.6071,377.3121,338.3953,374.8787,338.76,367.6769" style="stroke:#181818;stroke-width:1;"/><text fill="#000000" font-family="sans-serif" font-size="13" lengthAdjust="spacing" textLength="55.0278" x="307.74" y="423.6238">contains</text><text fill="#000000" font-family="sans-serif" font-size="13" lengthAdjust="spacing" textLength="8.271" x="323.1015" y="373.6431">1</text><text fill="#000000" font-family="sans-serif" font-size="13" lengthAdjust="spacing" textLength="23.0356" x="252.7242" y="446.6056">1..*</text></g><!--reverse link ProductCatalog to Product--><g class="link" data-entity-1="ent0006" data-entity-2="ent0007" data-link-type="aggregation" data-source-line="61" id="lnk13"><path codeLine="61" d="M86.2646,550.1848 C92.7746,576.8648 100.01,606.4569 108.05,639.3769" fill="none" id="ProductCatalog-backto-Product" style="stroke:#181818;stroke-width:1;"/><polygon fill="none" points="83.42,538.5269,80.9563,545.3041,86.2646,550.1848,88.7283,543.4077,83.42,538.5269" style="stroke:#181818;stroke-width:1;"/><text fill="#000000" font-family="sans-serif" font-size="13" lengthAdjust="spacing" textLength="47.4487" x="101.74" y="605.8138">defines</text><text fill="#000000" font-family="sans-serif" font-size="13" lengthAdjust="spacing" textLength="8.271" x="76.0365" y="558.4552">1</text><text fill="#000000" font-family="sans-serif" font-size="13" lengthAdjust="spacing" textLength="23.0356" x="81.9536" y="628.7054">1..*</text></g><!--link OrderItem to Product--><g class="link" data-entity-1="ent0005" data-entity-2="ent0007" data-link-type="dependency" data-source-line="62" id="lnk14"><path codeLine="62" d="M201.36,562.7869 C186.29,586.8169 171.598,610.2439 156.508,634.3039" fill="none" id="OrderItem-to-Product" style="stroke:#181818;stroke-width:1;stroke-dasharray:7,7;"/><polygon fill="#181818" points="153.32,639.3869,161.4906,633.8877,155.9766,635.151,154.7133,629.6371,153.32,639.3869" style="stroke:#181818;stroke-width:1;"/><text fill="#000000" font-family="sans-serif" font-size="13" lengthAdjust="spacing" textLength="75.2769" x="181.74" y="605.8138">priced from</text></g><!--link Order to InvoiceDocument--><g class="link" data-entity-1="ent0004" data-entity-2="ent0008" data-link-type="dependency" data-source-line="63" id="lnk15"><path codeLine="63" d="M397.74,380.9569 C397.74,413.6669 397.74,442.5069 397.74,467.5969" fill="none" id="Order-to-InvoiceDocument" style="stroke:#181818;stroke-width:1;"/><polygon fill="#181818" points="397.74,473.5969,401.74,464.5969,397.74,468.5969,393.74,464.5969,397.74,473.5969" style="stroke:#181818;stroke-width:1;"/><text fill="#000000" font-family="sans-serif" font-size="13" lengthAdjust="spacing" textLength="65.6665" x="398.74" y="423.6238">generates</text><text fill="#000000" font-family="sans-serif" font-size="13" lengthAdjust="spacing" textLength="24.8066" x="372.8526" y="400.7796">0..1</text><text fill="#000000" font-family="sans-serif" font-size="13" lengthAdjust="spacing" textLength="24.8066" x="371.6742" y="462.828">0..1</text></g><!--link Order to ReminderLog--><g class="link" data-entity-1="ent0004" data-entity-2="ent0009" data-link-type="dependency" data-source-line="64" id="lnk16"><path codeLine="64" d="M456.74,362.7169 C481.35,393.7769 505.6047,424.4035 527.9247,452.5835" fill="none" id="Order-to-ReminderLog" style="stroke:#181818;stroke-width:1;"/><polygon fill="#181818" points="531.65,457.2869,529.1976,447.7482,528.5456,453.3674,522.9264,452.7153,531.65,457.2869" style="stroke:#181818;stroke-width:1;"/><text fill="#000000" font-family="sans-serif" font-size="13" lengthAdjust="spacing" textLength="59.96" x="506.74" y="423.6238">produces</text><text fill="#000000" font-family="sans-serif" font-size="13" lengthAdjust="spacing" textLength="23.0356" x="464.4535" y="367.2279">0..*</text><text fill="#000000" font-family="sans-serif" font-size="13" lengthAdjust="spacing" textLength="23.0356" x="501.9149" y="446.6282">0..*</text></g><?plantuml-src RLFBRXin3BphAmWV0sIJN7q8OCG8OA1DZSO_8AzehsezjXBbmYtwxoMrk_7MxKsKXaDoXY9B3c4TlRO1FaU3JgdE6WIFr4MJLJxPqEkaFRHEvxmYIdPV23Tj3E_s9yAZKlK5Nagcw371BmNGTp7WM_5xJ1mPctkdBs_Qe_ezuLV6Sqq1bumfo1k0BjJjuWd35VSbcP7K6k7I9C1CcagMGzkXAGxDUdmOuvsjX0cv2XFSXEyOYCD3SGVhd1yYYgJTDjaMRwfl2FqmLegcj8BzNdGWInVf27ERR4ysXWhvAtyxPBnefex7OOp0pJkd9U4L_yLMq0c5UbI5BdqLvwojqtitIzc4S-HwwzWM6QAcyaGu9fhnVYS47qbVHn4-ZGt5EgEPY_aQqrnaRls8PaN2yU7puca1z_UmU6oQkyLeqnBOw1RpWzT17p6hmUN_GnEUBVx83wKNKxCQxWLx9-2dAxWQi0JUEU95pUf6LKc9rvH9noLRSx1XOguaJVCyUwzc6JYawAVgt69jzdawtagyX2C6JFEEXx6c73xE5LwEMyDm5I8X97li2E9X64rjCMMRIQYh4RBX6cnczMFYvbY-Uf-RRpc6HatSx3Cwaq47Cne5P-qAyar2u3yhDHHrED8cRFaWT7BNbfIafFMzGvchhcEZaDcaopy0?></g></svg>