<svg xmlns="http://www.w3.org/2000/svg" xmlns:xlink="http://www.w3.org/1999/xlink" contentStyleType="text/css" data-diagram-type="STATE" height="819px" preserveAspectRatio="none" style="width:464px;height:819px;background:#FFFFFF;" version="1.1" viewBox="0 0 464 819" width="464px" zoomAndPan="magnify"><?plantuml 1.2026.3beta6?><defs/><g><g class="title" data-source-line="1"><text fill="#000000" font-family="sans-serif" font-size="14" font-weight="700" lengthAdjust="spacing" textLength="220.3018" x="118.7208" y="22.9951">Order Status State Diagram</text></g><g class="start_entity" data-qualified-name=".start." data-source-line="3" id="ent0002"><ellipse cx="382.66" cy="53.2969" fill="#222222" rx="10" ry="10" style="stroke:#222222;stroke-width:1;"/></g><g class="entity" data-qualified-name="AwaitingDeposit" id="ent0003"><rect fill="#F1F1F1" height="50" rx="12.5" ry="12.5" style="stroke:#181818;stroke-width:0.5;" width="134.1533" x="315.59" y="123.2969"/><line style="stroke:#181818;stroke-width:0.5;" x1="315.59" x2="449.7433" y1="149.5938" y2="149.5938"/><text fill="#000000" font-family="sans-serif" font-size="14" lengthAdjust="spacing" textLength="114.1533" x="325.59" y="141.292">AwaitingDeposit</text></g><g class="entity" data-qualified-name="DepositPaid" id="ent0005"><rect fill="#F1F1F1" height="50" rx="12.5" ry="12.5" style="stroke:#181818;stroke-width:0.5;" width="103.3164" x="279.01" y="233.2969"/><line style="stroke:#181818;stroke-width:0.5;" x1="279.01" x2="382.3264" y1="259.5938" y2="259.5938"/><text fill="#000000" font-family="sans-serif" font-size="14" lengthAdjust="spacing" textLength="83.3164" x="289.01" y="251.292">DepositPaid</text></g><g class="entity" data-qualified-name="PendingDelivery" id="ent0007"><rect fill="#F1F1F1" height="50" rx="12.5" ry="12.5" style="stroke:#181818;stroke-width:0.5;" width="134.5771" x="177.38" y="343.2969"/><line style="stroke:#181818;stroke-width:0.5;" x1="177.38" x2="311.9571" y1="369.5938" y2="369.5938"/><text fill="#000000" font-family="sans-serif" font-size="14" lengthAdjust="spacing" textLength="114.5771" x="187.38" y="361.292">PendingDelivery</text></g><g class="entity" data-qualified-name="InProgress" id="ent0009"><rect fill="#F1F1F1" height="50" rx="12.5" ry="12.5" style="stroke:#181818;stroke-width:0.5;" width="93.6094" x="146.86" y="453.2969"/><line style="stroke:#181818;stroke-width:0.5;" x1="146.86" x2="240.4694" y1="479.5938" y2="479.5938"/><text fill="#000000" font-family="sans-serif" font-size="14" lengthAdjust="spacing" textLength="73.6094" x="156.86" y="471.292">InProgress</text></g><g class="entity" data-qualified-name="Ready" id="ent0011"><rect fill="#F1F1F1" height="50" rx="12.5" ry="12.5" style="stroke:#181818;stroke-width:0.5;" width="64.0918" x="105.62" y="563.2969"/><line style="stroke:#181818;stroke-width:0.5;" x1="105.62" x2="169.7118" y1="589.5938" y2="589.5938"/><text fill="#000000" font-family="sans-serif" font-size="14" lengthAdjust="spacing" textLength="44.0918" x="115.62" y="581.292">Ready</text></g><g class="entity" data-qualified-name="Delivered" id="ent0013"><rect fill="#F1F1F1" height="50" rx="12.5" ry="12.5" style="stroke:#181818;stroke-width:0.5;" width="87.3271" x="7" y="673.2969"/><line style="stroke:#181818;stroke-width:0.5;" x1="7" x2="94.3271" y1="699.5938" y2="699.5938"/><text fill="#000000" font-family="sans-serif" font-size="14" lengthAdjust="spacing" textLength="67.3271" x="17" y="691.292">Delivered</text></g><g class="entity" data-qualified-name="PickedUp" id="ent0015"><rect fill="#F1F1F1" height="50" rx="12.5" ry="12.5" style="stroke:#181818;stroke-width:0.5;" width="84.7705" x="129.28" y="673.2969"/><line style="stroke:#181818;stroke-width:0.5;" x1="129.28" x2="214.0505" y1="699.5938" y2="699.5938"/><text fill="#000000" font-family="sans-serif" font-size="14" lengthAdjust="spacing" textLength="64.7705" x="139.28" y="691.292">PickedUp</text></g><g class="entity" data-qualified-name="Cancelled" id="ent0017"><rect fill="#F1F1F1" height="50" rx="12.5" ry="12.5" style="stroke:#181818;stroke-width:0.5;" width="88.8174" x="249.25" y="673.2969"/><line style="stroke:#181818;stroke-width:0.5;" x1="249.25" x2="338.0674" y1="699.5938" y2="699.5938"/><text fill="#000000" font-family="sans-serif" font-size="14" lengthAdjust="spacing" textLength="68.8174" x="259.25" y="691.292">Cancelled</text></g><g class="end_entity" data-qualified-name=".end." data-source-line="17" id="ent0023"><ellipse cx="171.66" cy="794.2969" fill="none" rx="11" ry="11" style="stroke:#222222;stroke-width:1;"/><ellipse cx="171.66" cy="794.2969" fill="#222222" rx="6" ry="6" style="stroke:#222222;stroke-width:1;"/></g><!--link *start* to AwaitingDeposit--><g class="link" data-entity-1="ent0002" data-entity-2="ent0003" data-link-type="dependency" data-source-line="3" id="lnk4"><path d="M382.66,63.5569 C382.66,77.2469 382.66,97.3669 382.66,116.8169" fill="none" id="*start*-to-AwaitingDeposit" style="stroke:#181818;stroke-width:1;"/><polygon fill="#181818" points="382.66,122.8169,386.66,113.8169,382.66,117.8169,378.66,113.8169,382.66,122.8169" style="stroke:#181818;stroke-width:1;"/></g><!--link AwaitingDeposit to DepositPaid--><g class="link" data-entity-1="ent0003" data-entity-2="ent0005" data-link-type="dependency" data-source-line="4" id="lnk6"><path d="M370.99,173.5369 C362.43,191.3169 353.4551,209.9719 344.8951,227.7319" fill="none" id="AwaitingDeposit-to-DepositPaid" style="stroke:#181818;stroke-width:1;"/><polygon fill="#181818" points="342.29,233.1369,349.8009,226.7662,344.4609,228.6327,342.5943,223.2927,342.29,233.1369" style="stroke:#181818;stroke-width:1;"/></g><!--link DepositPaid to PendingDelivery--><g class="link" data-entity-1="ent0005" data-entity-2="ent0007" data-link-type="dependency" data-source-line="5" id="lnk8"><path d="M311.36,283.5369 C297.2,301.3169 281.7888,320.6842 267.6388,338.4442" fill="none" id="DepositPaid-to-PendingDelivery" style="stroke:#181818;stroke-width:1;"/><polygon fill="#181818" points="263.9,343.1369,272.6367,338.5904,267.0157,339.2263,266.3798,333.6053,263.9,343.1369" style="stroke:#181818;stroke-width:1;"/></g><!--link PendingDelivery to InProgress--><g class="link" data-entity-1="ent0007" data-entity-2="ent0009" data-link-type="dependency" data-source-line="6" id="lnk10"><path d="M233.22,393.5369 C224.82,411.3169 216.0229,429.9518 207.6329,447.7118" fill="none" id="PendingDelivery-to-InProgress" style="stroke:#181818;stroke-width:1;"/><polygon fill="#181818" points="205.07,453.1369,212.531,446.7078,207.2057,448.616,205.2976,443.2906,205.07,453.1369" style="stroke:#181818;stroke-width:1;"/></g><!--link InProgress to Ready--><g class="link" data-entity-1="ent0009" data-entity-2="ent0011" data-link-type="dependency" data-source-line="7" id="lnk12"><path d="M181.1,503.5369 C171.87,521.3169 162.1622,540.0505 152.9522,557.8105" fill="none" id="InProgress-to-Ready" style="stroke:#181818;stroke-width:1;"/><polygon fill="#181818" points="150.19,563.1369,157.8842,556.9887,152.4918,558.6982,150.7823,553.3058,150.19,563.1369" style="stroke:#181818;stroke-width:1;"/></g><!--link Ready to Delivered--><g class="link" data-entity-1="ent0011" data-entity-2="ent0013" data-link-type="dependency" data-source-line="8" id="lnk14"><path d="M118.14,613.5369 C103.81,631.3169 88.2061,650.7061 73.8861,668.4661" fill="none" id="Ready-to-Delivered" style="stroke:#181818;stroke-width:1;"/><polygon fill="#181818" points="70.12,673.1369,78.883,668.6414,73.2584,669.2445,72.6553,663.6199,70.12,673.1369" style="stroke:#181818;stroke-width:1;"/></g><!--link Ready to PickedUp--><g class="link" data-entity-1="ent0011" data-entity-2="ent0015" data-link-type="dependency" data-source-line="9" id="lnk16"><path d="M145.29,613.5369 C150.89,631.3169 156.6686,649.6537 162.2586,667.4137" fill="none" id="Ready-to-PickedUp" style="stroke:#181818;stroke-width:1;"/><polygon fill="#181818" points="164.06,673.1369,165.1734,663.3512,162.5588,668.3675,157.5425,665.753,164.06,673.1369" style="stroke:#181818;stroke-width:1;"/></g><!--link AwaitingDeposit to Cancelled--><g class="link" data-entity-1="ent0003" data-entity-2="ent0017" data-link-type="dependency" data-source-line="11" id="lnk18"><path d="M392.63,173.6769 C407.99,213.4769 435.66,295.2369 435.66,367.2969 C435.66,367.2969 435.66,367.2969 435.66,479.2969 C435.66,560.8269 369.5493,631.7649 327.9093,668.8749" fill="none" id="AwaitingDeposit-to-Cancelled" style="stroke:#181818;stroke-width:1;"/><polygon fill="#181818" points="323.43,672.8669,332.8103,669.8651,327.1627,669.5402,327.4876,663.8927,323.43,672.8669" style="stroke:#181818;stroke-width:1;"/></g><!--link DepositPaid to Cancelled--><g class="link" data-entity-1="ent0005" data-entity-2="ent0017" data-link-type="dependency" data-source-line="12" id="lnk19"><path d="M331.28,283.5369 C331.78,310.3969 332.06,354.9869 329.66,393.2969 C323.51,491.5669 315.26,515.5269 303.66,613.2969 C301.28,633.4269 299.2701,650.299 297.2701,667.079" fill="none" id="DepositPaid-to-Cancelled" style="stroke:#181818;stroke-width:1;"/><polygon fill="#181818" points="296.56,673.0369,301.5971,664.5735,297.1518,668.072,293.6533,663.6267,296.56,673.0369" style="stroke:#181818;stroke-width:1;"/></g><!--link PendingDelivery to Cancelled--><g class="link" data-entity-1="ent0007" data-entity-2="ent0017" data-link-type="dependency" data-source-line="13" id="lnk20"><path d="M248.46,393.5469 C251.08,410.3269 254.62,433.1569 257.66,453.2969 C269.82,533.7369 282.8965,623.2393 289.2765,667.1093" fill="none" id="PendingDelivery-to-Cancelled" style="stroke:#181818;stroke-width:1;"/><polygon fill="#181818" points="290.14,673.0469,292.8031,663.5649,289.4204,668.0989,284.8864,664.7162,290.14,673.0469" style="stroke:#181818;stroke-width:1;"/></g><!--link InProgress to Cancelled--><g class="link" data-entity-1="ent0009" data-entity-2="ent0017" data-link-type="dependency" data-source-line="14" id="lnk21"><path d="M204.75,503.4569 C223.97,545.3669 260.768,625.5934 280.028,667.5734" fill="none" id="InProgress-to-Cancelled" style="stroke:#181818;stroke-width:1;"/><polygon fill="#181818" points="282.53,673.0269,282.4127,663.1787,280.445,668.4823,275.1414,666.5147,282.53,673.0269" style="stroke:#181818;stroke-width:1;"/></g><!--link Ready to Cancelled--><g class="link" data-entity-1="ent0011" data-entity-2="ent0017" data-link-type="dependency" data-source-line="15" id="lnk22"><path d="M169.99,611.6769 C195.78,629.5269 226.9271,651.0912 253.4571,669.4612" fill="none" id="Ready-to-Cancelled" style="stroke:#181818;stroke-width:1;"/><polygon fill="#181818" points="258.39,672.8769,253.2678,664.4648,254.2793,670.0305,248.7136,671.042,258.39,672.8769" style="stroke:#181818;stroke-width:1;"/></g><!--link Delivered to *end*--><g class="link" data-entity-1="ent0013" data-entity-2="ent0023" data-link-type="dependency" data-source-line="17" id="lnk24"><path d="M82.14,723.7469 C109.31,744.8569 141.9713,770.2366 158.4913,783.0666" fill="none" id="Delivered-to-*end*" style="stroke:#181818;stroke-width:1;"/><polygon fill="#181818" points="163.23,786.7469,158.5754,778.0673,159.2811,783.68,153.6684,784.3856,163.23,786.7469" style="stroke:#181818;stroke-width:1;"/></g><!--link PickedUp to *end*--><g class="link" data-entity-1="ent0015" data-entity-2="ent0023" data-link-type="dependency" data-source-line="18" id="lnk25"><path d="M171.66,723.5069 C171.66,742.8669 171.66,763.0469 171.66,777.1969" fill="none" id="PickedUp-to-*end*" style="stroke:#181818;stroke-width:1;"/><polygon fill="#181818" points="171.66,783.1969,175.66,774.1969,171.66,778.1969,167.66,774.1969,171.66,783.1969" style="stroke:#181818;stroke-width:1;"/></g><!--link Cancelled to *end*--><g class="link" data-entity-1="ent0017" data-entity-2="ent0023" data-link-type="dependency" data-source-line="19" id="lnk26"><path d="M261.93,723.7469 C234.53,744.8569 201.5737,770.256 184.9137,783.086" fill="none" id="Cancelled-to-*end*" style="stroke:#181818;stroke-width:1;"/><polygon fill="#181818" points="180.16,786.7469,189.7312,784.4247,184.1214,783.6961,184.85,778.0864,180.16,786.7469" style="stroke:#181818;stroke-width:1;"/></g><?plantuml-src RP312i8m44Jl-nKv2_q5GUp5aq7n91wMPWcBCIr9glJlbQLDIkmbcPsP9OyaJexKEHWAwfemZL4kKYsZ3VW2kEyUgcdswl11JknjIqCVEK4rIsVM6jd0IakcoHkfEtvJcA2QfNFoElGsK8nGf2GNGZE1dFDBiaPcvMdkdcHk0soo7T5tv1pzavLaYwca5L892aBn81DAyFj5MFYoaTkBymK0?></g></svg>