<svg xmlns="http://www.w3.org/2000/svg" xmlns:xlink="http://www.w3.org/1999/xlink" contentStyleType="text/css" data-diagram-type="DESCRIPTION" height="713px" preserveAspectRatio="none" style="width:1658px;height:713px;background:#FFFFFF;" version="1.1" viewBox="0 0 1658 713" width="1658px" zoomAndPan="magnify"><?plantuml 1.2026.3beta6?><defs/><g><g class="title" data-source-line="1"><text fill="#000000" font-family="sans-serif" font-size="14" font-weight="700" lengthAdjust="spacing" textLength="161.9434" x="744.98" y="22.9951">Component Diagram</text></g><!--entity Customer--><g class="entity" data-qualified-name="Customer" data-source-line="4" id="ent0002"><ellipse cx="296.382" cy="343.9369" fill="#F1F1F1" rx="8" ry="8" style="stroke:#181818;stroke-width:0.5;"/><path d="M296.382,351.9369 L296.382,378.9369 M283.382,359.9369 L309.382,359.9369 M296.382,378.9369 L283.382,393.9369 M296.382,378.9369 L309.382,393.9369" fill="none" style="stroke:#181818;stroke-width:0.5;"/><text fill="#000000" font-family="sans-serif" font-size="14" lengthAdjust="spacing" textLength="68.0039" x="262.38" y="408.432">Customer</text></g><!--entity Administrator--><g class="entity" data-qualified-name="Administrator" data-source-line="5" id="ent0003"><ellipse cx="53.8413" cy="239.9369" fill="#F1F1F1" rx="8" ry="8" style="stroke:#181818;stroke-width:0.5;"/><path d="M53.8413,247.9369 L53.8413,274.9369 M40.8413,255.9369 L66.8413,255.9369 M53.8413,274.9369 L40.8413,289.9369 M53.8413,274.9369 L66.8413,289.9369" fill="none" style="stroke:#181818;stroke-width:0.5;"/><text fill="#000000" font-family="sans-serif" font-size="14" lengthAdjust="spacing" textLength="95.6826" x="6" y="304.432">Administrator</text></g><!--entity Bot--><g class="entity" data-qualified-name="Bot" data-source-line="7" id="ent0004"><rect fill="#F1F1F1" height="62.5938" rx="2.5" ry="2.5" style="stroke:#181818;stroke-width:0.5;" width="213.1611" x="1013.21" y="335.2969"/><rect fill="#F1F1F1" height="10" style="stroke:#181818;stroke-width:0.5;" width="15" x="1206.3711" y="340.2969"/><rect fill="#F1F1F1" height="2" style="stroke:#181818;stroke-width:0.5;" width="4" x="1204.3711" y="342.2969"/><rect fill="#F1F1F1" height="2" style="stroke:#181818;stroke-width:0.5;" width="4" x="1204.3711" y="346.2969"/><text fill="#000000" font-family="sans-serif" font-size="14" lengthAdjust="spacing" textLength="173.1611" x="1028.21" y="368.292">WhatsApp Bot Controller</text><text fill="#000000" font-family="sans-serif" font-size="14" lengthAdjust="spacing" textLength="74.9629" x="1028.21" y="384.5889">(src/bot.js)</text></g><!--entity Dashboard--><g class="entity" data-qualified-name="Dashboard" data-source-line="8" id="ent0005"><rect fill="#F1F1F1" height="62.5938" rx="2.5" ry="2.5" style="stroke:#181818;stroke-width:0.5;" width="267.3906" x="162.68" y="238.2969"/><rect fill="#F1F1F1" height="10" style="stroke:#181818;stroke-width:0.5;" width="15" x="410.0706" y="243.2969"/><rect fill="#F1F1F1" height="2" style="stroke:#181818;stroke-width:0.5;" width="4" x="408.0706" y="245.2969"/><rect fill="#F1F1F1" height="2" style="stroke:#181818;stroke-width:0.5;" width="4" x="408.0706" y="249.2969"/><text fill="#000000" font-family="sans-serif" font-size="14" lengthAdjust="spacing" textLength="144.3408" x="177.68" y="271.292">Admin Dashboard UI</text><text fill="#000000" font-family="sans-serif" font-size="14" lengthAdjust="spacing" textLength="227.3906" x="177.68" y="287.5889">(public/*.html, public/js/script.js)</text></g><!--entity Api--><g class="entity" data-qualified-name="Api" data-source-line="9" id="ent0006"><rect fill="#F1F1F1" height="62.5938" rx="2.5" ry="2.5" style="stroke:#181818;stroke-width:0.5;" width="171.9336" x="518.17" y="240.2969"/><rect fill="#F1F1F1" height="10" style="stroke:#181818;stroke-width:0.5;" width="15" x="670.1036" y="245.2969"/><rect fill="#F1F1F1" height="2" style="stroke:#181818;stroke-width:0.5;" width="4" x="668.1036" y="247.2969"/><rect fill="#F1F1F1" height="2" style="stroke:#181818;stroke-width:0.5;" width="4" x="668.1036" y="251.2969"/><text fill="#000000" font-family="sans-serif" font-size="14" lengthAdjust="spacing" textLength="131.9336" x="533.17" y="273.292">Express API Server</text><text fill="#000000" font-family="sans-serif" font-size="14" lengthAdjust="spacing" textLength="96.3389" x="533.17" y="289.5889">(src/server.js)</text></g><!--entity Pricing--><g class="entity" data-qualified-name="Pricing" data-source-line="10" id="ent0007"><rect fill="#F1F1F1" height="62.5938" rx="2.5" ry="2.5" style="stroke:#181818;stroke-width:0.5;" width="143.626" x="1309.35" y="418.2969"/><rect fill="#F1F1F1" height="10" style="stroke:#181818;stroke-width:0.5;" width="15" x="1432.976" y="423.2969"/><rect fill="#F1F1F1" height="2" style="stroke:#181818;stroke-width:0.5;" width="4" x="1430.976" y="425.2969"/><rect fill="#F1F1F1" height="2" style="stroke:#181818;stroke-width:0.5;" width="4" x="1430.976" y="429.2969"/><text fill="#000000" font-family="sans-serif" font-size="14" lengthAdjust="spacing" textLength="103.626" x="1324.35" y="451.292">Pricing Service</text><text fill="#000000" font-family="sans-serif" font-size="14" lengthAdjust="spacing" textLength="99.9004" x="1324.35" y="467.5889">(src/pricing.js)</text></g><!--entity Orders--><g class="entity" data-qualified-name="Orders" data-source-line="11" id="ent0008"><rect fill="#F1F1F1" height="62.5938" rx="2.5" ry="2.5" style="stroke:#181818;stroke-width:0.5;" width="136.8926" x="1312.72" y="516.2969"/><rect fill="#F1F1F1" height="10" style="stroke:#181818;stroke-width:0.5;" width="15" x="1429.6126" y="521.2969"/><rect fill="#F1F1F1" height="2" style="stroke:#181818;stroke-width:0.5;" width="4" x="1427.6126" y="523.2969"/><rect fill="#F1F1F1" height="2" style="stroke:#181818;stroke-width:0.5;" width="4" x="1427.6126" y="527.2969"/><text fill="#000000" font-family="sans-serif" font-size="14" lengthAdjust="spacing" textLength="81.792" x="1327.72" y="549.292">Order Store</text><text fill="#000000" font-family="sans-serif" font-size="14" lengthAdjust="spacing" textLength="96.8926" x="1327.72" y="565.5889">(src/orders.js)</text></g><!--entity Scheduler--><g class="entity" data-qualified-name="Scheduler" data-source-line="12" id="ent0009"><rect fill="#F1F1F1" height="62.5938" rx="2.5" ry="2.5" style="stroke:#181818;stroke-width:0.5;" width="226.1357" x="491.07" y="550.2969"/><rect fill="#F1F1F1" height="10" style="stroke:#181818;stroke-width:0.5;" width="15" x="697.2057" y="555.2969"/><rect fill="#F1F1F1" height="2" style="stroke:#181818;stroke-width:0.5;" width="4" x="695.2057" y="557.2969"/><rect fill="#F1F1F1" height="2" style="stroke:#181818;stroke-width:0.5;" width="4" x="695.2057" y="561.2969"/><text fill="#000000" font-family="sans-serif" font-size="14" lengthAdjust="spacing" textLength="142.5361" x="506.07" y="583.292">Reminder Scheduler</text><text fill="#000000" font-family="sans-serif" font-size="14" lengthAdjust="spacing" textLength="186.1357" x="506.07" y="599.5889">(src/reminderScheduler.js)</text></g><!--entity ReminderLog--><g class="entity" data-qualified-name="ReminderLog" data-source-line="13" id="ent0010"><rect fill="#F1F1F1" height="62.5938" rx="2.5" ry="2.5" style="stroke:#181818;stroke-width:0.5;" width="163.3408" x="1038.12" y="634.2969"/><rect fill="#F1F1F1" height="10" style="stroke:#181818;stroke-width:0.5;" width="15" x="1181.4608" y="639.2969"/><rect fill="#F1F1F1" height="2" style="stroke:#181818;stroke-width:0.5;" width="4" x="1179.4608" y="641.2969"/><rect fill="#F1F1F1" height="2" style="stroke:#181818;stroke-width:0.5;" width="4" x="1179.4608" y="645.2969"/><text fill="#000000" font-family="sans-serif" font-size="14" lengthAdjust="spacing" textLength="120.9551" x="1053.12" y="667.292">Reminder Logger</text><text fill="#000000" font-family="sans-serif" font-size="14" lengthAdjust="spacing" textLength="123.3408" x="1053.12" y="683.5889">(src/reminders.js)</text></g><!--entity Invoice--><g class="entity" data-qualified-name="Invoice" data-source-line="14" id="ent0011"><rect fill="#F1F1F1" height="62.5938" rx="2.5" ry="2.5" style="stroke:#181818;stroke-width:0.5;" width="146.2441" x="1308.05" y="240.2969"/><rect fill="#F1F1F1" height="10" style="stroke:#181818;stroke-width:0.5;" width="15" x="1434.2941" y="245.2969"/><rect fill="#F1F1F1" height="2" style="stroke:#181818;stroke-width:0.5;" width="4" x="1432.2941" y="247.2969"/><rect fill="#F1F1F1" height="2" style="stroke:#181818;stroke-width:0.5;" width="4" x="1432.2941" y="251.2969"/><text fill="#000000" font-family="sans-serif" font-size="14" lengthAdjust="spacing" textLength="106.2441" x="1323.05" y="273.292">Invoice Service</text><text fill="#000000" font-family="sans-serif" font-size="14" lengthAdjust="spacing" textLength="101.835" x="1323.05" y="289.5889">(src/invoice.js)</text></g><!--entity Email--><g class="entity" data-qualified-name="Email" data-source-line="15" id="ent0012"><rect fill="#F1F1F1" height="62.5938" rx="2.5" ry="2.5" style="stroke:#181818;stroke-width:0.5;" width="135.0332" x="1313.65" y="44.2969"/><rect fill="#F1F1F1" height="10" style="stroke:#181818;stroke-width:0.5;" width="15" x="1428.6832" y="49.2969"/><rect fill="#F1F1F1" height="2" style="stroke:#181818;stroke-width:0.5;" width="4" x="1426.6832" y="51.2969"/><rect fill="#F1F1F1" height="2" style="stroke:#181818;stroke-width:0.5;" width="4" x="1426.6832" y="55.2969"/><text fill="#000000" font-family="sans-serif" font-size="14" lengthAdjust="spacing" textLength="95.0332" x="1328.65" y="77.292">Email Service</text><text fill="#000000" font-family="sans-serif" font-size="14" lengthAdjust="spacing" textLength="90.6309" x="1328.65" y="93.5889">(src/email.js)</text></g><!--entity Config--><g class="entity" data-qualified-name="Config" data-source-line="16" id="ent0013"><rect fill="#F1F1F1" height="62.5938" rx="2.5" ry="2.5" style="stroke:#181818;stroke-width:0.5;" width="187.5947" x="1287.37" y="142.2969"/><rect fill="#F1F1F1" height="10" style="stroke:#181818;stroke-width:0.5;" width="15" x="1454.9647" y="147.2969"/><rect fill="#F1F1F1" height="2" style="stroke:#181818;stroke-width:0.5;" width="4" x="1452.9647" y="149.2969"/><rect fill="#F1F1F1" height="2" style="stroke:#181818;stroke-width:0.5;" width="4" x="1452.9647" y="153.2969"/><text fill="#000000" font-family="sans-serif" font-size="14" lengthAdjust="spacing" textLength="147.5947" x="1302.37" y="175.292">Configuration Loader</text><text fill="#000000" font-family="sans-serif" font-size="14" lengthAdjust="spacing" textLength="94.8623" x="1302.37" y="191.5889">(src/config.js)</text></g><!--entity PricesFile--><g class="entity" data-qualified-name="PricesFile" data-source-line="18" id="ent0014"><path d="M1537.33,229.9369 C1537.33,219.9369 1584.9345,219.9369 1584.9345,219.9369 C1584.9345,219.9369 1632.539,219.9369 1632.539,229.9369 L1632.539,255.2338 C1632.539,265.2338 1584.9345,265.2338 1584.9345,265.2338 C1584.9345,265.2338 1537.33,265.2338 1537.33,255.2338 L1537.33,229.9369" fill="#F1F1F1" style="stroke:#181818;stroke-width:0.5;"/><path d="M1537.33,229.9369 C1537.33,239.9369 1584.9345,239.9369 1584.9345,239.9369 C1584.9345,239.9369 1632.539,239.9369 1632.539,229.9369" fill="none" style="stroke:#181818;stroke-width:0.5;"/><text fill="#000000" font-family="sans-serif" font-size="14" lengthAdjust="spacing" textLength="75.209" x="1547.33" y="256.932">prices.json</text></g><!--entity OrdersFile--><g class="entity" data-qualified-name="OrdersFile" data-source-line="19" id="ent0015"><path d="M1535.96,534.9369 C1535.96,524.9369 1584.9317,524.9369 1584.9317,524.9369 C1584.9317,524.9369 1633.9034,524.9369 1633.9034,534.9369 L1633.9034,560.2338 C1633.9034,570.2338 1584.9317,570.2338 1584.9317,570.2338 C1584.9317,570.2338 1535.96,570.2338 1535.96,560.2338 L1535.96,534.9369" fill="#F1F1F1" style="stroke:#181818;stroke-width:0.5;"/><path d="M1535.96,534.9369 C1535.96,544.9369 1584.9317,544.9369 1584.9317,544.9369 C1584.9317,544.9369 1633.9034,544.9369 1633.9034,534.9369" fill="none" style="stroke:#181818;stroke-width:0.5;"/><text fill="#000000" font-family="sans-serif" font-size="14" lengthAdjust="spacing" textLength="77.9434" x="1545.96" y="561.932">orders.json</text></g><!--entity ReminderFile--><g class="entity" data-qualified-name="ReminderFile" data-source-line="20" id="ent0016"><path d="M1318.97,652.9369 C1318.97,642.9369 1381.1658,642.9369 1381.1658,642.9369 C1381.1658,642.9369 1443.3616,642.9369 1443.3616,652.9369 L1443.3616,678.2338 C1443.3616,688.2338 1381.1658,688.2338 1381.1658,688.2338 C1381.1658,688.2338 1318.97,688.2338 1318.97,678.2338 L1318.97,652.9369" fill="#F1F1F1" style="stroke:#181818;stroke-width:0.5;"/><path d="M1318.97,652.9369 C1318.97,662.9369 1381.1658,662.9369 1381.1658,662.9369 C1381.1658,662.9369 1443.3616,662.9369 1443.3616,652.9369" fill="none" style="stroke:#181818;stroke-width:0.5;"/><text fill="#000000" font-family="sans-serif" font-size="14" lengthAdjust="spacing" textLength="104.3916" x="1328.97" y="679.932">reminders.json</text></g><!--entity SupplyFile--><g class="entity" data-qualified-name="SupplyFile" data-source-line="21" id="ent0017"><path d="M1298.42,347.9369 C1298.42,337.9369 1381.1646,337.9369 1381.1646,337.9369 C1381.1646,337.9369 1463.9093,337.9369 1463.9093,347.9369 L1463.9093,373.2338 C1463.9093,383.2338 1381.1646,383.2338 1381.1646,383.2338 C1381.1646,383.2338 1298.42,383.2338 1298.42,373.2338 L1298.42,347.9369" fill="#F1F1F1" style="stroke:#181818;stroke-width:0.5;"/><path d="M1298.42,347.9369 C1298.42,357.9369 1381.1646,357.9369 1381.1646,357.9369 C1381.1646,357.9369 1463.9093,357.9369 1463.9093,347.9369" fill="none" style="stroke:#181818;stroke-width:0.5;"/><text fill="#000000" font-family="sans-serif" font-size="14" lengthAdjust="spacing" textLength="145.4893" x="1308.42" y="374.932">cleaning_supply.json</text></g><!--entity WhatsApp--><g class="entity" data-qualified-name="WhatsApp" data-source-line="23" id="ent0018"><path d="M530.7853,358.8947 C534.5543,351.8203 539.9862,352.8304 544.4029,358.1852 C548.568,352.723 552.6445,352.7366 556.5121,358.506 C559.8158,351.9666 563.8808,352.1292 568.0766,357.6506 C572.5137,350.4359 576.5843,350.7095 581.4271,357.2572 C585.0418,351.9091 589.3401,352.1212 593.0276,357.176 C595.6323,350.8781 601.2413,350.5628 604.5503,356.5135 C609.3642,349.3778 613.804,350.0606 618.1734,356.9455 C621.4445,351.9964 627.1095,351.4833 629.4484,357.8726 C633.6004,351.8924 638.9148,351.6379 643.0564,357.8842 C646.0076,351.7946 651.3269,352.4866 654.7204,357.4162 C659.0435,351.8457 662.8812,353.6309 665.9696,358.7193 C670.423,353.4779 675.2833,353.9243 678.6445,359.9483 C687.157,363.404 688.2244,368.8629 682.2199,375.6287 C688.4767,380.377 687.7087,386.7054 680.4451,389.755 C677.2923,397.8554 670.9763,398.5128 666.1121,391.3634 C662.589,396.3126 657.6522,395.7483 654.8011,390.6099 C651.8464,396.9323 647.8643,398.0188 642.9766,392.548 C639.1514,399.1961 634.8098,398.7277 630.6032,392.9272 C627.8103,400.3332 621.7129,400.4695 617.6814,394.088 C614.3641,399.4035 609.6965,400.4155 606.1173,394.3542 C601.4768,399.3307 596.3929,399.4085 592.8386,393.0784 C588.9356,399.1671 582.9831,398.6489 579.4593,392.6584 C576.2316,398.3348 571.3386,398.4054 567.8439,392.9367 C562.5642,397.6221 558.7061,396.8676 555.6751,390.4681 C552.1326,396.0509 546.3154,395.7262 543.3645,389.8334 C539.5961,394.4946 535.616,395.0001 531.9321,389.7361 C521.6452,388.6351 517.3651,384.3772 522.8444,374.1081 C517.384,364.6919 520.3678,360.0233 530.7853,358.8947" fill="#F1F1F1" style="stroke:#181818;stroke-width:0.5;"/><text fill="#000000" font-family="sans-serif" font-size="14" lengthAdjust="spacing" textLength="134.333" x="536.97" y="378.432">WhatsApp Network</text></g><!--link Customer to WhatsApp--><g class="link" data-entity-1="ent0002" data-entity-2="ent0018" data-link-type="dependency" data-source-line="25" id="lnk19"><path d="M330.68,373.5869 C376.19,373.5869 453.27,373.5869 515.77,373.5869" fill="none" id="Customer-to-WhatsApp" style="stroke:#181818;stroke-width:1;"/><polygon fill="#181818" points="521.77,373.5869,512.77,369.5869,516.77,373.5869,512.77,377.5869,521.77,373.5869" style="stroke:#181818;stroke-width:1;"/></g><!--link WhatsApp to Bot--><g class="link" data-entity-1="ent0018" data-entity-2="ent0004" data-link-type="dependency" data-source-line="26" id="lnk20"><path d="M686.53,372.4769 C774.79,371.2769 910.0006,369.4386 1006.8506,368.1186" fill="none" id="WhatsApp-to-Bot" style="stroke:#181818;stroke-width:1;"/><polygon fill="#181818" points="1012.85,368.0369,1003.7963,364.1599,1007.8505,368.105,1003.9053,372.1592,1012.85,368.0369" style="stroke:#181818;stroke-width:1;"/></g><!--link Administrator to Dashboard--><g class="link" data-entity-1="ent0003" data-entity-2="ent0005" data-link-type="dependency" data-source-line="27" id="lnk21"><path d="M102.08,269.5869 C119.73,269.5869 134.75,269.5869 156.33,269.5869" fill="none" id="Administrator-to-Dashboard" style="stroke:#181818;stroke-width:1;"/><polygon fill="#181818" points="162.33,269.5869,153.33,265.5869,157.33,269.5869,153.33,273.5869,162.33,269.5869" style="stroke:#181818;stroke-width:1;"/></g><!--link Dashboard to Api--><g class="link" data-entity-1="ent0005" data-entity-2="ent0006" data-link-type="dependency" data-source-line="28" id="lnk22"><path d="M430.16,270.4569 C459.97,270.6569 484.8301,270.8172 512.0701,270.9972" fill="none" id="Dashboard-to-Api" style="stroke:#181818;stroke-width:1;"/><polygon fill="#181818" points="518.07,271.0369,509.0966,266.9775,513.0701,271.0038,509.0438,274.9773,518.07,271.0369" style="stroke:#181818;stroke-width:1;"/></g><!--link Api to Orders--><g class="link" data-entity-1="ent0006" data-entity-2="ent0008" data-link-type="dependency" data-source-line="29" id="lnk23"><path d="M669.95,303.2569 C685.89,312.0169 702.56,322.0269 717.21,332.5869 C732,343.2569 731.37,351.5469 747.21,360.5869 C845.64,416.8269 1164.2334,496.4663 1306.4834,530.3563" fill="none" id="Api-to-Orders" style="stroke:#181818;stroke-width:1;"/><polygon fill="#181818" points="1312.32,531.7469,1304.4921,525.77,1307.4561,530.5881,1302.638,533.5522,1312.32,531.7469" style="stroke:#181818;stroke-width:1;"/></g><!--link Api to Invoice--><g class="link" data-entity-1="ent0006" data-entity-2="ent0011" data-link-type="dependency" data-source-line="30" id="lnk24"><path d="M690.3,271.5869 C843.76,271.5869 1158.07,271.5869 1301.72,271.5869" fill="none" id="Api-to-Invoice" style="stroke:#181818;stroke-width:1;"/><polygon fill="#181818" points="1307.72,271.5869,1298.72,267.5869,1302.72,271.5869,1298.72,275.5869,1307.72,271.5869" style="stroke:#181818;stroke-width:1;"/></g><!--link Api to Email--><g class="link" data-entity-1="ent0006" data-entity-2="ent0012" data-link-type="dependency" data-source-line="31" id="lnk25"><path d="M690.3,250.0569 C845.72,210.7469 1166.4831,129.6278 1307.3431,94.0078" fill="none" id="Api-to-Email" style="stroke:#181818;stroke-width:1;"/><polygon fill="#181818" points="1313.16,92.5369,1303.454,90.8654,1308.3126,93.7627,1305.4153,98.6212,1313.16,92.5369" style="stroke:#181818;stroke-width:1;"/></g><!--link Api to Bot--><g class="link" data-entity-1="ent0006" data-entity-2="ent0004" data-link-type="dependency" data-source-line="32" id="lnk26"><path d="M690.6,299.7869 C709.12,305.2469 728.71,310.5169 747.21,314.5869 C835.96,334.1069 932.3576,347.1264 1007.1476,355.5364" fill="none" id="Api-to-Bot" style="stroke:#181818;stroke-width:1;"/><polygon fill="#181818" points="1013.11,356.2069,1004.6133,351.2262,1008.1413,355.6482,1003.7194,359.1761,1013.11,356.2069" style="stroke:#181818;stroke-width:1;"/><text fill="#000000" font-family="sans-serif" font-size="13" lengthAdjust="spacing" textLength="234.2729" x="748.21" y="310.6538">getSystemStatus()/send notification</text></g><!--link Bot to Pricing--><g class="link" data-entity-1="ent0004" data-entity-2="ent0007" data-link-type="dependency" data-source-line="33" id="lnk27"><path d="M1219.96,398.3269 C1249.56,407.7969 1275.706,416.1565 1303.146,424.9465" fill="none" id="Bot-to-Pricing" style="stroke:#181818;stroke-width:1;"/><polygon fill="#181818" points="1308.86,426.7769,1301.5093,420.222,1304.0983,425.2515,1299.0688,427.8406,1308.86,426.7769" style="stroke:#181818;stroke-width:1;"/></g><!--link Bot to Orders--><g class="link" data-entity-1="ent0004" data-entity-2="ent0008" data-link-type="dependency" data-source-line="34" id="lnk28"><path d="M1170.55,398.3069 C1197.38,416.3769 1230.42,440.2169 1257.37,464.5869 C1272.32,478.1069 1271.53,486.1269 1287.37,498.5869 C1295.24,504.7869 1298.8567,507.5306 1307.7767,512.8106" fill="none" id="Bot-to-Orders" style="stroke:#181818;stroke-width:1;"/><polygon fill="#181818" points="1312.94,515.8669,1307.2326,507.8403,1308.6373,513.32,1303.1576,514.7246,1312.94,515.8669" style="stroke:#181818;stroke-width:1;"/></g><!--link Bot to Invoice--><g class="link" data-entity-1="ent0004" data-entity-2="ent0011" data-link-type="dependency" data-source-line="35" id="lnk29"><path d="M1207.52,334.8269 C1240.07,322.9069 1271.0463,311.5613 1302.1563,300.1613" fill="none" id="Bot-to-Invoice" style="stroke:#181818;stroke-width:1;"/><polygon fill="#181818" points="1307.79,298.0969,1297.9632,297.4377,1303.0953,299.8172,1300.7158,304.9493,1307.79,298.0969" style="stroke:#181818;stroke-width:1;"/></g><!--link Bot to Email--><g class="link" data-entity-1="ent0004" data-entity-2="ent0012" data-link-type="dependency" data-source-line="36" id="lnk30"><path d="M1136.06,335.1369 C1161.57,285.2169 1217.05,187.1269 1287.37,124.5869 C1295.13,117.6869 1298.8984,114.5361 1308.0584,108.9861" fill="none" id="Bot-to-Email" style="stroke:#181818;stroke-width:1;"/><polygon fill="#181818" points="1313.19,105.8769,1303.4199,107.1196,1308.9137,108.4679,1307.5654,113.9617,1313.19,105.8769" style="stroke:#181818;stroke-width:1;"/></g><!--link Bot to SupplyFile--><g class="link" data-entity-1="ent0004" data-entity-2="ent0017" data-link-type="dependency" data-source-line="37" id="lnk31"><path d="M1226.66,364.1369 C1250.48,363.5869 1269.4016,363.1571 1292.0716,362.6271" fill="none" id="Bot-to-SupplyFile" style="stroke:#181818;stroke-width:1;"/><polygon fill="#181818" points="1298.07,362.4869,1288.979,358.6983,1293.0714,362.6037,1289.1659,366.6961,1298.07,362.4869" style="stroke:#181818;stroke-width:1;"/></g><!--link Scheduler to Orders--><g class="link" data-entity-1="ent0009" data-entity-2="ent0008" data-link-type="dependency" data-source-line="38" id="lnk32"><path d="M717.42,576.6669 C880.72,569.4969 1172.7858,556.6899 1306.3158,550.8299" fill="none" id="Scheduler-to-Orders" style="stroke:#181818;stroke-width:1;"/><polygon fill="#181818" points="1312.31,550.5669,1303.1433,546.9653,1307.3148,550.7861,1303.494,554.9576,1312.31,550.5669" style="stroke:#181818;stroke-width:1;"/></g><!--link Scheduler to ReminderLog--><g class="link" data-entity-1="ent0009" data-entity-2="ent0010" data-link-type="dependency" data-source-line="39" id="lnk33"><path d="M717.54,602.4369 C727.57,604.2169 737.57,605.9569 747.21,607.5869 C847.15,624.5269 956.5967,641.3646 1031.9367,652.6946" fill="none" id="Scheduler-to-ReminderLog" style="stroke:#181818;stroke-width:1;"/><polygon fill="#181818" points="1037.87,653.5869,1029.5649,648.2929,1032.9256,652.8433,1028.3752,656.204,1037.87,653.5869" style="stroke:#181818;stroke-width:1;"/></g><!--link Scheduler to Bot--><g class="link" data-entity-1="ent0009" data-entity-2="ent0004" data-link-type="dependency" data-source-line="40" id="lnk34"><path d="M680.93,549.8669 C778.18,509.1569 940.3754,441.2738 1037.5754,400.5838" fill="none" id="Scheduler-to-Bot" style="stroke:#181818;stroke-width:1;"/><polygon fill="#181818" points="1043.11,398.2669,1033.2635,398.0525,1038.4978,400.1976,1036.3527,405.432,1043.11,398.2669" style="stroke:#181818;stroke-width:1;"/><text fill="#000000" font-family="sans-serif" font-size="13" lengthAdjust="spacing" textLength="106.1646" x="812.21" y="420.6538">WhatsApp client</text></g><!--link Config to PricesFile--><g class="link" data-entity-1="ent0013" data-entity-2="ent0014" data-link-type="dependency" data-source-line="41" id="lnk35"><path d="M1475.08,205.3669 C1496.49,212.6869 1512.7038,218.2226 1531.1838,224.5526" fill="none" id="Config-to-PricesFile" style="stroke:#181818;stroke-width:1;"/><polygon fill="#181818" points="1536.86,226.4969,1529.6418,219.7963,1532.1298,224.8766,1527.0494,227.3646,1536.86,226.4969" style="stroke:#181818;stroke-width:1;"/></g><!--link Pricing to PricesFile--><g class="link" data-entity-1="ent0007" data-entity-2="ent0014" data-link-type="dependency" data-source-line="42" id="lnk36"><path d="M1451.54,417.8169 C1459.85,412.6369 1467.88,406.8869 1474.96,400.5869 C1519.8,360.7469 1552.7014,304.1551 1569.9214,270.8951" fill="none" id="Pricing-to-PricesFile" style="stroke:#181818;stroke-width:1;"/><polygon fill="#181818" points="1572.68,265.5669,1564.9899,271.7201,1570.3811,270.0071,1572.0942,275.3983,1572.68,265.5669" style="stroke:#181818;stroke-width:1;"/></g><!--link Orders to OrdersFile--><g class="link" data-entity-1="ent0008" data-entity-2="ent0015" data-link-type="dependency" data-source-line="43" id="lnk37"><path d="M1449.91,547.5869 C1477.96,547.5869 1503.86,547.5869 1529.49,547.5869" fill="none" id="Orders-to-OrdersFile" style="stroke:#181818;stroke-width:1;"/><polygon fill="#181818" points="1535.49,547.5869,1526.49,543.5869,1530.49,547.5869,1526.49,551.5869,1535.49,547.5869" style="stroke:#181818;stroke-width:1;"/></g><!--link ReminderLog to ReminderFile--><g class="link" data-entity-1="ent0010" data-entity-2="ent0016" data-link-type="dependency" data-source-line="44" id="lnk38"><path d="M1201.79,665.5869 C1239.55,665.5869 1277.74,665.5869 1312.69,665.5869" fill="none" id="ReminderLog-to-ReminderFile" style="stroke:#181818;stroke-width:1;"/><polygon fill="#181818" points="1318.69,665.5869,1309.69,661.5869,1313.69,665.5869,1309.69,669.5869,1318.69,665.5869" style="stroke:#181818;stroke-width:1;"/></g><?plantuml-src RLF1RjmW4Btp5MXFITLaxprKsYQjj5AKHhMgNYfLB9wr9yM0O9msVr_0W5cd1qkUntipm_26a1JmEpDPeq4JlqSnE34n1MVYPBZ3OIJUemD9Q3HZGf9n_6xsP2PmEJpq4shqv4I869CrtUx7ACWVhEMV38KocfnH2jnFVUMTt9yCtJxxwnqNFX9QOKh9xuKVJqQuddy_1esTJmhb_jtjI9DwptFuxFTUEhHhhYfhCtx-QnrupmzFHzw1UwbT-1HKyS5YAtjoA54FIO8IiiOkQ1LbLYlywdfml0iJAI8J4LyrYU1RoJS8bqugEK8_huDo-Q3YDKb5_fldmGp3coHh1uKNQAtyg5zCkEhcohYWLPnP5oEU1AgD329MHOdHIe8dpZZCmJd1Ng5VqTT-PJggqeN9M2z8d8G7lekF0F4sHjT70Fy55JIaElHCMgQ-8RMZoRmocmrJAX0wlFGlFrkhNbT-b-B4PbAPkM_C_mZqnxZVYLT0nieIyPkRZojSHH6DIt6nN0bTxRtkHyIZSyEN_hEvIbWUgyJBEvGeBkS7FW1rhvvWwaZGxA-kmsRedcj3U4QP7eX5PbGKlvSubojXALVYfLo9cb5L-xPPBi7Mf9SdIzjrO59Xi1HRV5Axp8OeQxo1bufDyOGs9IzQY8V_0000?></g></svg>