<svg xmlns="http://www.w3.org/2000/svg" xmlns:xlink="http://www.w3.org/1999/xlink" contentStyleType="text/css" data-diagram-type="DESCRIPTION" height="876px" preserveAspectRatio="none" style="width:1209px;height:876px;background:#FFFFFF;" version="1.1" viewBox="0 0 1209 876" width="1209px" zoomAndPan="magnify"><?plantuml 1.2026.3beta6?><defs/><g><g class="title" data-source-line="1"><text fill="#000000" font-family="sans-serif" font-size="14" font-weight="700" lengthAdjust="spacing" textLength="167.125" x="517.4375" y="22.9951">Deployment Diagram</text></g><!--cluster CustomerDevice--><g class="cluster" data-qualified-name="CustomerDevice" data-source-line="3" id="ent0002"><polygon fill="none" points="132,53.2969,142,43.2969,383,43.2969,383,144.5969,373,154.5969,132,154.5969,132,53.2969" style="stroke:#181818;stroke-width:1;"/><line style="stroke:#181818;stroke-width:1;" x1="373" x2="383" y1="53.2969" y2="43.2969"/><line style="stroke:#181818;stroke-width:1;" x1="132" x2="373" y1="53.2969" y2="53.2969"/><line style="stroke:#181818;stroke-width:1;" x1="373" x2="373" y1="53.2969" y2="154.5969"/><text fill="#000000" font-family="sans-serif" font-size="14" font-weight="700" lengthAdjust="spacing" textLength="133.5811" x="186.7095" y="69.292">Customer Device</text></g><!--cluster AdminDevice--><g class="cluster" data-qualified-name="AdminDevice" data-source-line="7" id="ent0004"><polygon fill="none" points="478,213.5969,488,203.5969,721,203.5969,721,304.8869,711,314.8869,478,314.8869,478,213.5969" style="stroke:#181818;stroke-width:1;"/><line style="stroke:#181818;stroke-width:1;" x1="711" x2="721" y1="213.5969" y2="203.5969"/><line style="stroke:#181818;stroke-width:1;" x1="478" x2="711" y1="213.5969" y2="213.5969"/><line style="stroke:#181818;stroke-width:1;" x1="711" x2="711" y1="213.5969" y2="314.8869"/><text fill="#000000" font-family="sans-serif" font-size="14" font-weight="700" lengthAdjust="spacing" textLength="167.3096" x="511.8452" y="229.592">Administrator Device</text></g><!--cluster Host--><g class="cluster" data-qualified-name="Host" data-source-line="13" id="ent0007"><polygon fill="none" points="16,381.8869,26,371.8869,1184,371.8869,1184,841.2269,1174,851.2269,16,851.2269,16,381.8869" style="stroke:#181818;stroke-width:1;"/><line style="stroke:#181818;stroke-width:1;" x1="1174" x2="1184" y1="381.8869" y2="371.8869"/><line style="stroke:#181818;stroke-width:1;" x1="16" x2="1174" y1="381.8869" y2="381.8869"/><line style="stroke:#181818;stroke-width:1;" x1="1174" x2="1174" y1="381.8869" y2="851.2269"/><text fill="#000000" font-family="sans-serif" font-size="14" font-weight="700" lengthAdjust="spacing" textLength="130.5322" x="530.7339" y="397.882">Application Host</text></g><!--cluster NodeRuntime--><g class="cluster" data-qualified-name="Host.NodeRuntime" data-source-line="14" id="ent0008"><polygon fill="none" points="48,437.8869,58,427.8869,542,427.8869,542,690.9269,532,700.9269,48,700.9269,48,437.8869" style="stroke:#181818;stroke-width:1;"/><line style="stroke:#181818;stroke-width:1;" x1="532" x2="542" y1="437.8869" y2="427.8869"/><line style="stroke:#181818;stroke-width:1;" x1="48" x2="532" y1="437.8869" y2="437.8869"/><line style="stroke:#181818;stroke-width:1;" x1="532" x2="532" y1="437.8869" y2="700.9269"/><text fill="#000000" font-family="sans-serif" font-size="14" font-weight="700" lengthAdjust="spacing" textLength="130.4639" x="225.7681" y="453.882">Node.js Runtime</text></g><!--cluster Files--><g class="cluster" data-qualified-name="Host.Files" data-source-line="21" id="ent0013"><path d="M584.5,586.4869 L727.25,586.4869 A3.75,3.75 0 0 1 729.75,588.9869 L736.75,608.7837 L1149.5,608.7837 A2.5,2.5 0 0 1 1152,611.2837 L1152,816.7269 A2.5,2.5 0 0 1 1149.5,819.2269 L584.5,819.2269 A2.5,2.5 0 0 1 582,816.7269 L582,588.9869 A2.5,2.5 0 0 1 584.5,586.4869" fill="none" style="stroke:#000000;stroke-width:1.5;"/><line style="stroke:#000000;stroke-width:1.5;" x1="582" x2="736.75" y1="608.7837" y2="608.7837"/><text fill="#000000" font-family="sans-serif" font-size="14" font-weight="700" lengthAdjust="spacing" textLength="141.75" x="586" y="601.482">Local File Storage</text></g><!--entity WhatsApp Mobile App--><g class="entity" data-qualified-name="CustomerDevice.WhatsApp Mobile App" data-source-line="4" id="ent0003"><rect fill="#F1F1F1" height="39.2969" rx="2.5" ry="2.5" style="stroke:#181818;stroke-width:0.5;" width="183.6035" x="156.2" y="91.2969"/><polygon fill="#F1F1F1" points="322.8035,96.2969,322.8035,110.2969,334.8035,110.2969,334.8035,102.2969,328.8035,96.2969,322.8035,96.2969" style="stroke:#181818;stroke-width:0.5;"/><line style="stroke:#181818;stroke-width:0.5;" x1="328.8035" x2="328.8035" y1="96.2969" y2="102.2969"/><line style="stroke:#181818;stroke-width:0.5;" x1="334.8035" x2="328.8035" y1="102.2969" y2="102.2969"/><text fill="#000000" font-family="sans-serif" font-size="14" lengthAdjust="spacing" textLength="153.6035" x="166.2" y="117.292">WhatsApp Mobile App</text></g><!--entity Web Browser--><g class="entity" data-qualified-name="AdminDevice.Web Browser" data-source-line="8" id="ent0005"><rect fill="#F1F1F1" height="39.2969" rx="2.5" ry="2.5" style="stroke:#181818;stroke-width:0.5;" width="122.832" x="501.58" y="251.5969"/><polygon fill="#F1F1F1" points="607.412,256.5969,607.412,270.5969,619.412,270.5969,619.412,262.5969,613.412,256.5969,607.412,256.5969" style="stroke:#181818;stroke-width:0.5;"/><line style="stroke:#181818;stroke-width:0.5;" x1="613.412" x2="613.412" y1="256.5969" y2="262.5969"/><line style="stroke:#181818;stroke-width:0.5;" x1="619.412" x2="613.412" y1="262.5969" y2="262.5969"/><text fill="#000000" font-family="sans-serif" font-size="14" lengthAdjust="spacing" textLength="92.832" x="511.58" y="277.592">Web Browser</text></g><!--entity Express Server\n(src/server.js)--><g class="entity" data-qualified-name="Host.NodeRuntime.Express Server.n.src.server.js." data-source-line="15" id="ent0009"><rect fill="#F1F1F1" height="55.5938" rx="2.5" ry="2.5" style="stroke:#181818;stroke-width:0.5;" width="135.335" x="112.33" y="475.8869"/><polygon fill="#F1F1F1" points="230.665,480.8869,230.665,494.8869,242.665,494.8869,242.665,486.8869,236.665,480.8869,230.665,480.8869" style="stroke:#181818;stroke-width:0.5;"/><line style="stroke:#181818;stroke-width:0.5;" x1="236.665" x2="236.665" y1="480.8869" y2="486.8869"/><line style="stroke:#181818;stroke-width:0.5;" x1="242.665" x2="236.665" y1="486.8869" y2="486.8869"/><text fill="#000000" font-family="sans-serif" font-size="14" lengthAdjust="spacing" textLength="105.335" x="122.33" y="501.882">Express Server</text><text fill="#000000" font-family="sans-serif" font-size="14" lengthAdjust="spacing" textLength="96.3389" x="122.33" y="518.1789">(src/server.js)</text></g><!--entity WhatsApp Bot\n(src/bot.js)--><g class="entity" data-qualified-name="Host.NodeRuntime.WhatsApp Bot.n.src.bot.js." data-source-line="16" id="ent0010"><rect fill="#F1F1F1" height="55.5938" rx="2.5" ry="2.5" style="stroke:#181818;stroke-width:0.5;" width="129.5381" x="282.23" y="475.8869"/><polygon fill="#F1F1F1" points="394.7681,480.8869,394.7681,494.8869,406.7681,494.8869,406.7681,486.8869,400.7681,480.8869,394.7681,480.8869" style="stroke:#181818;stroke-width:0.5;"/><line style="stroke:#181818;stroke-width:0.5;" x1="400.7681" x2="400.7681" y1="480.8869" y2="486.8869"/><line style="stroke:#181818;stroke-width:0.5;" x1="406.7681" x2="400.7681" y1="486.8869" y2="486.8869"/><text fill="#000000" font-family="sans-serif" font-size="14" lengthAdjust="spacing" textLength="99.5381" x="292.23" y="501.882">WhatsApp Bot</text><text fill="#000000" font-family="sans-serif" font-size="14" lengthAdjust="spacing" textLength="74.9629" x="292.23" y="518.1789">(src/bot.js)</text></g><!--entity Reminder Scheduler\n(src/reminderScheduler.js)--><g class="entity" data-qualified-name="Host.NodeRuntime.Reminder Scheduler.n.src.reminderScheduler.js." data-source-line="17" id="ent0011"><rect fill="#F1F1F1" height="55.5938" rx="2.5" ry="2.5" style="stroke:#181818;stroke-width:0.5;" width="216.1357" x="71.93" y="621.3369"/><polygon fill="#F1F1F1" points="271.0657,626.3369,271.0657,640.3369,283.0657,640.3369,283.0657,632.3369,277.0657,626.3369,271.0657,626.3369" style="stroke:#181818;stroke-width:0.5;"/><line style="stroke:#181818;stroke-width:0.5;" x1="277.0657" x2="277.0657" y1="626.3369" y2="632.3369"/><line style="stroke:#181818;stroke-width:0.5;" x1="283.0657" x2="277.0657" y1="632.3369" y2="632.3369"/><text fill="#000000" font-family="sans-serif" font-size="14" lengthAdjust="spacing" textLength="142.5361" x="81.93" y="647.332">Reminder Scheduler</text><text fill="#000000" font-family="sans-serif" font-size="14" lengthAdjust="spacing" textLength="186.1357" x="81.93" y="663.6289">(src/reminderScheduler.js)</text></g><!--entity Static Dashboard Files\n(public/)--><g class="entity" data-qualified-name="Host.NodeRuntime.Static Dashboard Files.n.public.." data-source-line="18" id="ent0012"><rect fill="#F1F1F1" height="55.5938" rx="2.5" ry="2.5" style="stroke:#181818;stroke-width:0.5;" width="186.8711" x="323.56" y="621.3369"/><polygon fill="#F1F1F1" points="493.4311,626.3369,493.4311,640.3369,505.4311,640.3369,505.4311,632.3369,499.4311,626.3369,493.4311,626.3369" style="stroke:#181818;stroke-width:0.5;"/><line style="stroke:#181818;stroke-width:0.5;" x1="499.4311" x2="499.4311" y1="626.3369" y2="632.3369"/><line style="stroke:#181818;stroke-width:0.5;" x1="505.4311" x2="499.4311" y1="632.3369" y2="632.3369"/><text fill="#000000" font-family="sans-serif" font-size="14" lengthAdjust="spacing" textLength="156.8711" x="333.56" y="647.332">Static Dashboard Files</text><text fill="#000000" font-family="sans-serif" font-size="14" lengthAdjust="spacing" textLength="57.7637" x="333.56" y="663.6289">(public/)</text></g><!--entity prices.json--><g class="entity" data-qualified-name="Host.Files.prices.json" data-source-line="22" id="ent0014"><rect fill="#F1F1F1" height="39.2969" rx="2.5" ry="2.5" style="stroke:#181818;stroke-width:0.5;" width="105.209" x="641.4" y="629.4869"/><polygon fill="#F1F1F1" points="729.609,634.4869,729.609,648.4869,741.609,648.4869,741.609,640.4869,735.609,634.4869,729.609,634.4869" style="stroke:#181818;stroke-width:0.5;"/><line style="stroke:#181818;stroke-width:0.5;" x1="735.609" x2="735.609" y1="634.4869" y2="640.4869"/><line style="stroke:#181818;stroke-width:0.5;" x1="741.609" x2="735.609" y1="640.4869" y2="640.4869"/><text fill="#000000" font-family="sans-serif" font-size="14" lengthAdjust="spacing" textLength="75.209" x="651.4" y="655.482">prices.json</text></g><!--entity orders.json--><g class="entity" data-qualified-name="Host.Files.orders.json" data-source-line="23" id="ent0015"><rect fill="#F1F1F1" height="39.2969" rx="2.5" ry="2.5" style="stroke:#181818;stroke-width:0.5;" width="107.9434" x="782.03" y="629.4869"/><polygon fill="#F1F1F1" points="872.9734,634.4869,872.9734,648.4869,884.9734,648.4869,884.9734,640.4869,878.9734,634.4869,872.9734,634.4869" style="stroke:#181818;stroke-width:0.5;"/><line style="stroke:#181818;stroke-width:0.5;" x1="878.9734" x2="878.9734" y1="634.4869" y2="640.4869"/><line style="stroke:#181818;stroke-width:0.5;" x1="884.9734" x2="878.9734" y1="640.4869" y2="640.4869"/><text fill="#000000" font-family="sans-serif" font-size="14" lengthAdjust="spacing" textLength="77.9434" x="792.03" y="655.482">orders.json</text></g><!--entity reminders.json--><g class="entity" data-qualified-name="Host.Files.reminders.json" data-source-line="24" id="ent0016"><rect fill="#F1F1F1" height="39.2969" rx="2.5" ry="2.5" style="stroke:#181818;stroke-width:0.5;" width="134.3916" x="924.8" y="629.4869"/><polygon fill="#F1F1F1" points="1042.1916,634.4869,1042.1916,648.4869,1054.1916,648.4869,1054.1916,640.4869,1048.1916,634.4869,1042.1916,634.4869" style="stroke:#181818;stroke-width:0.5;"/><line style="stroke:#181818;stroke-width:0.5;" x1="1048.1916" x2="1048.1916" y1="634.4869" y2="640.4869"/><line style="stroke:#181818;stroke-width:0.5;" x1="1054.1916" x2="1048.1916" y1="640.4869" y2="640.4869"/><text fill="#000000" font-family="sans-serif" font-size="14" lengthAdjust="spacing" textLength="104.3916" x="934.8" y="655.482">reminders.json</text></g><!--entity cleaning_supply.json--><g class="entity" data-qualified-name="Host.Files.cleaning_supply.json" data-source-line="25" id="ent0017"><rect fill="#F1F1F1" height="39.2969" rx="2.5" ry="2.5" style="stroke:#181818;stroke-width:0.5;" width="175.4893" x="606.26" y="755.9269"/><polygon fill="#F1F1F1" points="764.7493,760.9269,764.7493,774.9269,776.7493,774.9269,776.7493,766.9269,770.7493,760.9269,764.7493,760.9269" style="stroke:#181818;stroke-width:0.5;"/><line style="stroke:#181818;stroke-width:0.5;" x1="770.7493" x2="770.7493" y1="760.9269" y2="766.9269"/><line style="stroke:#181818;stroke-width:0.5;" x1="776.7493" x2="770.7493" y1="766.9269" y2="766.9269"/><text fill="#000000" font-family="sans-serif" font-size="14" lengthAdjust="spacing" textLength="145.4893" x="616.26" y="781.922">cleaning_supply.json</text></g><!--entity public/invoices/--><g class="entity" data-qualified-name="Host.Files.public.invoices." data-source-line="26" id="ent0018"><rect fill="#F1F1F1" height="39.2969" rx="2.5" ry="2.5" style="stroke:#181818;stroke-width:0.5;" width="138.6641" x="816.67" y="755.9269"/><polygon fill="#F1F1F1" points="938.3341,760.9269,938.3341,774.9269,950.3341,774.9269,950.3341,766.9269,944.3341,760.9269,938.3341,760.9269" style="stroke:#181818;stroke-width:0.5;"/><line style="stroke:#181818;stroke-width:0.5;" x1="944.3341" x2="944.3341" y1="760.9269" y2="766.9269"/><line style="stroke:#181818;stroke-width:0.5;" x1="950.3341" x2="944.3341" y1="766.9269" y2="766.9269"/><text fill="#000000" font-family="sans-serif" font-size="14" lengthAdjust="spacing" textLength="108.6641" x="826.67" y="781.922">public/invoices/</text></g><!--entity .wwebjs_auth/--><g class="entity" data-qualified-name="Host.Files..wwebjs_auth." data-source-line="27" id="ent0019"><rect fill="#F1F1F1" height="39.2969" rx="2.5" ry="2.5" style="stroke:#181818;stroke-width:0.5;" width="129.5654" x="990.22" y="755.9269"/><polygon fill="#F1F1F1" points="1102.7854,760.9269,1102.7854,774.9269,1114.7854,774.9269,1114.7854,766.9269,1108.7854,760.9269,1102.7854,760.9269" style="stroke:#181818;stroke-width:0.5;"/><line style="stroke:#181818;stroke-width:0.5;" x1="1108.7854" x2="1108.7854" y1="760.9269" y2="766.9269"/><line style="stroke:#181818;stroke-width:0.5;" x1="1114.7854" x2="1108.7854" y1="766.9269" y2="766.9269"/><text fill="#000000" font-family="sans-serif" font-size="14" lengthAdjust="spacing" textLength="99.5654" x="1000.22" y="781.922">.wwebjs_auth/</text></g><!--entity WhatsAppCloud--><g class="entity" data-qualified-name="WhatsAppCloud" data-source-line="11" id="ent0006"><path d="M305.5302,257.1211 C308.3339,251.8093 313.6794,251.8756 317.0889,256.41 C321.4373,250.7183 325.5946,251.6908 329.2227,257.1909 C331.0621,251.5964 336.1563,249.9282 340.3447,254.6612 C344.3537,248.6515 349.5501,248.6357 353.1803,255.0524 C355.5653,250.6016 360.0576,249.1764 363.2747,254.1625 C367.014,248.9428 372.3513,248.5185 375.5923,254.7007 C379.2797,248.4334 384.8292,248.9374 388.8102,254.369 C392.9261,249.9629 397.2255,249.8518 399.8311,255.9531 C402.9156,250.207 408.1339,248.364 412.4315,254.6865 C416.7789,249.4219 420.3693,250.1877 423.236,256.1158 C427.0487,251.2329 432.4479,250.3441 435.6852,256.7504 C439.0935,252.9004 443.5036,252.5419 445.8782,257.8954 C456.5419,257.4772 459.8897,264.6568 454.9899,273.3905 C459.6623,280.8856 456.3294,288.3239 446.9815,288.2759 C443.3488,293.3332 439.362,294.1917 435.1589,288.9294 C432.0039,293.6423 428.3327,295.4662 424.3022,289.8496 C421.0631,296.531 415.7422,297.2098 410.8973,291.6012 C408.3096,297.6829 403.6204,296.5551 400.2514,292.4149 C396.2229,298.9565 392.4886,298.3092 388.3931,292.4791 C384.9208,299.2873 380.6172,298.7024 375.8445,293.8824 C372.0875,299.1839 367.48,298.9403 364.2993,293.2756 C359.7248,299.5797 354.5986,297.349 351.4517,291.7364 C348.0969,296.3092 344.1241,296.1608 341.1584,291.3113 C336.3201,296.8991 332.3424,296.9073 328.7905,290.0345 C324.6394,295.7476 319.8376,296.1987 316.4188,289.3152 C312.0752,295.3114 306.5198,292.7413 304.192,287.1822 C295.4567,284.4452 294.299,278.8449 299.4731,271.8319 C294.3933,264.8512 297.1657,258.5662 305.5302,257.1211" fill="#F1F1F1" style="stroke:#181818;stroke-width:0.5;"/><text fill="#000000" font-family="sans-serif" font-size="14" lengthAdjust="spacing" textLength="127.6201" x="311.19" y="276.092">WhatsApp Service</text></g><!--link CustomerDevice to WhatsAppCloud--><g class="link" data-entity-1="ent0002" data-entity-2="ent0006" data-link-type="dependency" data-source-line="31" id="lnk20"><path d="M375,155.0045 C375,158.3386 375,161.7814 375,165.3006 C375,193.4544 375,220.4969 375,241.8769" fill="none" id="CustomerDevice-to-WhatsAppCloud" style="stroke:#181818;stroke-width:1;"/><polygon fill="#181818" points="375,247.8769,379,238.8769,375,242.8769,371,238.8769,375,247.8769" style="stroke:#181818;stroke-width:1;"/></g><!--link WhatsAppCloud to NodeRuntime--><g class="link" data-entity-1="ent0006" data-entity-2="ent0008" data-link-type="dependency" data-source-line="32" id="lnk21"><path d="M416.59,294.8569 C459.01,318.3269 519.5,353.0869 526,363.8869 C541.675,389.9519 544.2499,417.9972 542.4249,445.8397" fill="none" id="WhatsAppCloud-to-NodeRuntime" style="stroke:#181818;stroke-width:1;"/><polygon fill="#181818" points="542.0325,451.8269,546.6126,443.1078,542.3595,446.8376,538.6297,442.5845,542.0325,451.8269" style="stroke:#181818;stroke-width:1;"/></g><!--link AdminDevice to NodeRuntime--><g class="link" data-entity-1="ent0004" data-entity-2="ent0008" data-link-type="dependency" data-source-line="33" id="lnk22"><path d="M646.608,315.1784 C646.5695,315.2796 646.531,315.3808 646.4925,315.4819 C646.3383,315.8866 646.1831,316.2911 646.0268,316.6954 C645.402,318.3126 644.7611,319.9258 644.1053,321.5255 C642.7938,324.725 641.4225,327.8706 640,330.8869 C621.16,370.8269 595.1875,413.0694 573.6675,445.6719 C562.9075,461.9731 553.2606,475.8644 546.175,485.8528 C545.2893,487.1014 544.4436,488.2889 543.6408,489.4126 C543.2394,489.9745 542.8487,490.5203 542.469,491.0498 C542.3741,491.1822 545.7779,486.4387 545.6843,486.5691" fill="none" id="AdminDevice-to-NodeRuntime" style="stroke:#181818;stroke-width:1;"/><polygon fill="#181818" points="542.1864,491.4439,550.6832,486.4636,545.1013,487.3815,544.1834,481.7997,542.1864,491.4439" style="stroke:#181818;stroke-width:1;"/><text fill="#000000" font-family="sans-serif" font-size="13" lengthAdjust="spacing" textLength="163.0776" x="636" y="351.9538">HTTP / dashboard access</text></g><!--link NodeRuntime to Files--><g class="link" data-entity-1="ent0008" data-entity-2="ent0013" data-link-type="dependency" data-source-line="34" id="lnk23"><path d="M542.6101,504.9842 C542.9046,504.9948 543.2062,505.0057 543.5149,505.0169 C544.1323,505.0392 544.7781,505.0627 545.4518,505.0873 C546.7991,505.1365 548.2579,505.1903 549.8243,505.2487 C552.9571,505.3655 556.5201,505.5008 560.4817,505.655 C576.3282,506.2715 598.552,507.1893 625.1277,508.4305 C678.2791,510.9128 748.8381,514.6888 820.6013,519.9356 C964.1275,530.4294 1112.47,546.8069 1136,570.4869 C1138.9613,573.4669 1141.3227,576.8638 1143.1861,580.5328 C1144.1178,582.3674 1142.9118,600.9147 1143.6073,602.8672" fill="none" id="NodeRuntime-to-Files" style="stroke:#181818;stroke-width:1;"/><polygon fill="#181818" points="1145.6204,608.5194,1146.3688,598.699,1143.9428,603.8092,1138.8326,601.3832,1145.6204,608.5194" style="stroke:#181818;stroke-width:1;"/></g><?plantuml-src RLBBJiCm4BpdArOvmQ7apW6f3r0FW51JYGjIvJXkuyhnHbwdfKByEnidZTAGYsNlpCximrvxes2bAeENKbaFAoqEJfHHP35N42zhybWgnvIJbYe6GN2DjI7uYG24ytelf8Vuin2UvbK5RvXfbkPh7FrUvUPvgQqcxuJ76yq0J0kg31OEpwHS4986wtpWaohNgro3ouRJUrQLqL9uZHRMI3umcqimQZdlV3uS2JQrzRfinPfOzmxCOL7FtvLJHC5SkIzxHquc51uiSn-Fw7sn2_GTEKC_nTmedaFEyqvbeVBQzEAk0_huL7RgkKq9Aq55XiBbyC8h85Qewenda8G4dY707atZ4h-Y52RG8EMLY4FRUyZxrtNbUD34ncZ7pkXORXgwLZwDIgE4rVQmevhtT9daTDLhUyAcW6ICFvpFAZlIJjI-IDeMkSdHDvtDdaR_u-OLyC7Ae-6F767m2EljzWCIoFj92ycLKJHaDLbXa7y0?></g></svg>