<svg xmlns="http://www.w3.org/2000/svg" xmlns:xlink="http://www.w3.org/1999/xlink" contentStyleType="text/css" data-diagram-type="DESCRIPTION" height="747px" preserveAspectRatio="none" style="width:1324px;height:747px;background:#FFFFFF;" version="1.1" viewBox="0 0 1324 747" width="1324px" zoomAndPan="magnify"><?plantuml 1.2026.3beta6?><defs/><g><g class="title" data-source-line="1"><text fill="#000000" font-family="sans-serif" font-size="14" font-weight="700" lengthAdjust="spacing" textLength="137.9834" x="589.9633" y="22.9951">Package Diagram</text></g><!--cluster Entry--><g class="cluster" data-qualified-name="Entry" data-source-line="3" id="ent0002"><path d="M517.5,149.5969 L560.7529,149.5969 A3.75,3.75 0 0 1 563.2529,152.0969 L570.2529,171.8937 L638.5,171.8937 A2.5,2.5 0 0 1 641,174.3937 L641,244.3869 A2.5,2.5 0 0 1 638.5,246.8869 L517.5,246.8869 A2.5,2.5 0 0 1 515,244.3869 L515,152.0969 A2.5,2.5 0 0 1 517.5,149.5969" fill="none" style="stroke:#000000;stroke-width:1.5;"/><line style="stroke:#000000;stroke-width:1.5;" x1="515" x2="570.2529" y1="171.8937" y2="171.8937"/><text fill="#000000" font-family="sans-serif" font-size="14" font-weight="700" lengthAdjust="spacing" textLength="42.2529" x="519" y="164.592">Entry</text></g><!--cluster src.conversation--><g class="cluster" data-qualified-name="src.conversation" data-source-line="7" id="ent0004"><path d="M955.5,270.8869 L1087.6201,270.8869 A3.75,3.75 0 0 1 1090.1201,273.3869 L1097.1201,293.1838 L1273.5,293.1838 A2.5,2.5 0 0 1 1276,295.6838 L1276,486.9869 A2.5,2.5 0 0 1 1273.5,489.4869 L955.5,489.4869 A2.5,2.5 0 0 1 953,486.9869 L953,273.3869 A2.5,2.5 0 0 1 955.5,270.8869" fill="none" style="stroke:#000000;stroke-width:1.5;"/><line style="stroke:#000000;stroke-width:1.5;" x1="953" x2="1097.1201" y1="293.1838" y2="293.1838"/><text fill="#000000" font-family="sans-serif" font-size="14" font-weight="700" lengthAdjust="spacing" textLength="131.1201" x="957" y="285.882">src.conversation</text></g><!--cluster src.web--><g class="cluster" data-qualified-name="src.web" data-source-line="13" id="ent0008"><path d="M171.5,270.8869 L233.8047,270.8869 A3.75,3.75 0 0 1 236.3047,273.3869 L243.3047,293.1838 L298.5,293.1838 A2.5,2.5 0 0 1 301,295.6838 L301,365.6869 A2.5,2.5 0 0 1 298.5,368.1869 L171.5,368.1869 A2.5,2.5 0 0 1 169,365.6869 L169,273.3869 A2.5,2.5 0 0 1 171.5,270.8869" fill="none" style="stroke:#000000;stroke-width:1.5;"/><line style="stroke:#000000;stroke-width:1.5;" x1="169" x2="243.3047" y1="293.1838" y2="293.1838"/><text fill="#000000" font-family="sans-serif" font-size="14" font-weight="700" lengthAdjust="spacing" textLength="61.3047" x="173" y="285.882">src.web</text></g><!--cluster src.services--><g class="cluster" data-qualified-name="src.services" data-source-line="17" id="ent0010"><path d="M168.5,392.1869 L263.1387,392.1869 A3.75,3.75 0 0 1 265.6387,394.6869 L272.6387,414.4838 L926.5,414.4838 A2.5,2.5 0 0 1 929,416.9838 L929,608.2769 A2.5,2.5 0 0 1 926.5,610.7769 L168.5,610.7769 A2.5,2.5 0 0 1 166,608.2769 L166,394.6869 A2.5,2.5 0 0 1 168.5,392.1869" fill="none" style="stroke:#000000;stroke-width:1.5;"/><line style="stroke:#000000;stroke-width:1.5;" x1="166" x2="272.6387" y1="414.4838" y2="414.4838"/><text fill="#000000" font-family="sans-serif" font-size="14" font-weight="700" lengthAdjust="spacing" textLength="93.6387" x="170" y="407.182">src.services</text></g><!--cluster src.persistence--><g class="cluster" data-qualified-name="src.persistence" data-source-line="26" id="ent0017"><path d="M8.5,513.4869 L130.1885,513.4869 A3.75,3.75 0 0 1 132.6885,515.9869 L139.6885,535.7837 L139.5,535.7837 A2.5,2.5 0 0 1 142,538.2837 L142,608.2769 A2.5,2.5 0 0 1 139.5,610.7769 L8.5,610.7769 A2.5,2.5 0 0 1 6,608.2769 L6,515.9869 A2.5,2.5 0 0 1 8.5,513.4869" fill="none" style="stroke:#000000;stroke-width:1.5;"/><line style="stroke:#000000;stroke-width:1.5;" x1="6" x2="139.6885" y1="535.7837" y2="535.7837"/><text fill="#000000" font-family="sans-serif" font-size="14" font-weight="700" lengthAdjust="spacing" textLength="120.6885" x="10" y="528.482">src.persistence</text></g><!--cluster public--><g class="cluster" data-qualified-name="public" data-source-line="30" id="ent0019"><path d="M148.5,43.2969 L197.4063,43.2969 A3.75,3.75 0 0 1 199.9063,45.7969 L206.9063,65.5938 L471.5,65.5938 A2.5,2.5 0 0 1 474,68.0938 L474,244.3869 A2.5,2.5 0 0 1 471.5,246.8869 L148.5,246.8869 A2.5,2.5 0 0 1 146,244.3869 L146,45.7969 A2.5,2.5 0 0 1 148.5,43.2969" fill="none" style="stroke:#000000;stroke-width:1.5;"/><line style="stroke:#000000;stroke-width:1.5;" x1="146" x2="206.9063" y1="65.5938" y2="65.5938"/><text fill="#000000" font-family="sans-serif" font-size="14" font-weight="700" lengthAdjust="spacing" textLength="47.9063" x="150" y="58.292">public</text></g><!--cluster data files--><g class="cluster" data-qualified-name="data files" data-source-line="37" id="ent0024"><path d="M177.5,634.7769 L252.499,634.7769 A3.75,3.75 0 0 1 254.999,637.2769 L261.999,657.0738 L872.5,657.0738 A2.5,2.5 0 0 1 875,659.5738 L875,729.5769 A2.5,2.5 0 0 1 872.5,732.0769 L177.5,732.0769 A2.5,2.5 0 0 1 175,729.5769 L175,637.2769 A2.5,2.5 0 0 1 177.5,634.7769" fill="none" style="stroke:#000000;stroke-width:1.5;"/><line style="stroke:#000000;stroke-width:1.5;" x1="175" x2="261.999" y1="657.0738" y2="657.0738"/><text fill="#000000" font-family="sans-serif" font-size="14" font-weight="700" lengthAdjust="spacing" textLength="73.999" x="179" y="649.772">data files</text></g><!--entity index.js--><g class="entity" data-qualified-name="Entry.index.js" data-source-line="4" id="ent0003"><rect fill="#F1F1F1" height="46.2969" rx="2.5" ry="2.5" style="stroke:#181818;stroke-width:0.5;" width="94.1816" x="530.91" y="184.5969"/><rect fill="#F1F1F1" height="10" style="stroke:#181818;stroke-width:0.5;" width="15" x="605.0916" y="189.5969"/><rect fill="#F1F1F1" height="2" style="stroke:#181818;stroke-width:0.5;" width="4" x="603.0916" y="191.5969"/><rect fill="#F1F1F1" height="2" style="stroke:#181818;stroke-width:0.5;" width="4" x="603.0916" y="195.5969"/><text fill="#000000" font-family="sans-serif" font-size="14" lengthAdjust="spacing" textLength="54.1816" x="545.91" y="217.592">index.js</text></g><!--entity bot.js--><g class="entity" data-qualified-name="src.conversation.bot.js" data-source-line="8" id="ent0005"><rect fill="#F1F1F1" height="46.2969" rx="2.5" ry="2.5" style="stroke:#181818;stroke-width:0.5;" width="78.5752" x="968.71" y="305.8869"/><rect fill="#F1F1F1" height="10" style="stroke:#181818;stroke-width:0.5;" width="15" x="1027.2852" y="310.8869"/><rect fill="#F1F1F1" height="2" style="stroke:#181818;stroke-width:0.5;" width="4" x="1025.2852" y="312.8869"/><rect fill="#F1F1F1" height="2" style="stroke:#181818;stroke-width:0.5;" width="4" x="1025.2852" y="316.8869"/><text fill="#000000" font-family="sans-serif" font-size="14" lengthAdjust="spacing" textLength="38.5752" x="983.71" y="338.882">bot.js</text></g><!--entity botHelpers.js--><g class="entity" data-qualified-name="src.conversation.botHelpers.js" data-source-line="9" id="ent0006"><rect fill="#F1F1F1" height="46.2969" rx="2.5" ry="2.5" style="stroke:#181818;stroke-width:0.5;" width="132.1553" x="968.92" y="427.1869"/><rect fill="#F1F1F1" height="10" style="stroke:#181818;stroke-width:0.5;" width="15" x="1081.0753" y="432.1869"/><rect fill="#F1F1F1" height="2" style="stroke:#181818;stroke-width:0.5;" width="4" x="1079.0753" y="434.1869"/><rect fill="#F1F1F1" height="2" style="stroke:#181818;stroke-width:0.5;" width="4" x="1079.0753" y="438.1869"/><text fill="#000000" font-family="sans-serif" font-size="14" lengthAdjust="spacing" textLength="92.1553" x="983.92" y="460.182">botHelpers.js</text></g><!--entity orderUtils.js--><g class="entity" data-qualified-name="src.conversation.orderUtils.js" data-source-line="10" id="ent0007"><rect fill="#F1F1F1" height="46.2969" rx="2.5" ry="2.5" style="stroke:#181818;stroke-width:0.5;" width="124.0205" x="1135.99" y="427.1869"/><rect fill="#F1F1F1" height="10" style="stroke:#181818;stroke-width:0.5;" width="15" x="1240.0105" y="432.1869"/><rect fill="#F1F1F1" height="2" style="stroke:#181818;stroke-width:0.5;" width="4" x="1238.0105" y="434.1869"/><rect fill="#F1F1F1" height="2" style="stroke:#181818;stroke-width:0.5;" width="4" x="1238.0105" y="438.1869"/><text fill="#000000" font-family="sans-serif" font-size="14" lengthAdjust="spacing" textLength="84.0205" x="1150.99" y="460.182">orderUtils.js</text></g><!--entity server.js--><g class="entity" data-qualified-name="src.web.server.js" data-source-line="14" id="ent0009"><rect fill="#F1F1F1" height="46.2969" rx="2.5" ry="2.5" style="stroke:#181818;stroke-width:0.5;" width="99.9512" x="185.02" y="305.8869"/><rect fill="#F1F1F1" height="10" style="stroke:#181818;stroke-width:0.5;" width="15" x="264.9712" y="310.8869"/><rect fill="#F1F1F1" height="2" style="stroke:#181818;stroke-width:0.5;" width="4" x="262.9712" y="312.8869"/><rect fill="#F1F1F1" height="2" style="stroke:#181818;stroke-width:0.5;" width="4" x="262.9712" y="316.8869"/><text fill="#000000" font-family="sans-serif" font-size="14" lengthAdjust="spacing" textLength="59.9512" x="200.02" y="338.882">server.js</text></g><!--entity pricing.js--><g class="entity" data-qualified-name="src.services.pricing.js" data-source-line="18" id="ent0011"><rect fill="#F1F1F1" height="46.2969" rx="2.5" ry="2.5" style="stroke:#181818;stroke-width:0.5;" width="103.5127" x="809.24" y="427.1869"/><rect fill="#F1F1F1" height="10" style="stroke:#181818;stroke-width:0.5;" width="15" x="892.7527" y="432.1869"/><rect fill="#F1F1F1" height="2" style="stroke:#181818;stroke-width:0.5;" width="4" x="890.7527" y="434.1869"/><rect fill="#F1F1F1" height="2" style="stroke:#181818;stroke-width:0.5;" width="4" x="890.7527" y="438.1869"/><text fill="#000000" font-family="sans-serif" font-size="14" lengthAdjust="spacing" textLength="63.5127" x="824.24" y="460.182">pricing.js</text></g><!--entity invoice.js--><g class="entity" data-qualified-name="src.services.invoice.js" data-source-line="19" id="ent0012"><rect fill="#F1F1F1" height="46.2969" rx="2.5" ry="2.5" style="stroke:#181818;stroke-width:0.5;" width="105.4473" x="669.28" y="427.1869"/><rect fill="#F1F1F1" height="10" style="stroke:#181818;stroke-width:0.5;" width="15" x="754.7273" y="432.1869"/><rect fill="#F1F1F1" height="2" style="stroke:#181818;stroke-width:0.5;" width="4" x="752.7273" y="434.1869"/><rect fill="#F1F1F1" height="2" style="stroke:#181818;stroke-width:0.5;" width="4" x="752.7273" y="438.1869"/><text fill="#000000" font-family="sans-serif" font-size="14" lengthAdjust="spacing" textLength="65.4473" x="684.28" y="460.182">invoice.js</text></g><!--entity email.js--><g class="entity" data-qualified-name="src.services.email.js" data-source-line="20" id="ent0013"><rect fill="#F1F1F1" height="46.2969" rx="2.5" ry="2.5" style="stroke:#181818;stroke-width:0.5;" width="94.2432" x="181.88" y="427.1869"/><rect fill="#F1F1F1" height="10" style="stroke:#181818;stroke-width:0.5;" width="15" x="256.1232" y="432.1869"/><rect fill="#F1F1F1" height="2" style="stroke:#181818;stroke-width:0.5;" width="4" x="254.1232" y="434.1869"/><rect fill="#F1F1F1" height="2" style="stroke:#181818;stroke-width:0.5;" width="4" x="254.1232" y="438.1869"/><text fill="#000000" font-family="sans-serif" font-size="14" lengthAdjust="spacing" textLength="54.2432" x="196.88" y="460.182">email.js</text></g><!--entity reminderScheduler.js--><g class="entity" data-qualified-name="src.services.reminderScheduler.js" data-source-line="21" id="ent0014"><rect fill="#F1F1F1" height="46.2969" rx="2.5" ry="2.5" style="stroke:#181818;stroke-width:0.5;" width="189.748" x="311.13" y="427.1869"/><rect fill="#F1F1F1" height="10" style="stroke:#181818;stroke-width:0.5;" width="15" x="480.878" y="432.1869"/><rect fill="#F1F1F1" height="2" style="stroke:#181818;stroke-width:0.5;" width="4" x="478.878" y="434.1869"/><rect fill="#F1F1F1" height="2" style="stroke:#181818;stroke-width:0.5;" width="4" x="478.878" y="438.1869"/><text fill="#000000" font-family="sans-serif" font-size="14" lengthAdjust="spacing" textLength="149.748" x="326.13" y="460.182">reminderScheduler.js</text></g><!--entity reminders.js--><g class="entity" data-qualified-name="src.services.reminders.js" data-source-line="22" id="ent0015"><rect fill="#F1F1F1" height="46.2969" rx="2.5" ry="2.5" style="stroke:#181818;stroke-width:0.5;" width="126.9531" x="345.52" y="548.4869"/><rect fill="#F1F1F1" height="10" style="stroke:#181818;stroke-width:0.5;" width="15" x="452.4731" y="553.4869"/><rect fill="#F1F1F1" height="2" style="stroke:#181818;stroke-width:0.5;" width="4" x="450.4731" y="555.4869"/><rect fill="#F1F1F1" height="2" style="stroke:#181818;stroke-width:0.5;" width="4" x="450.4731" y="559.4869"/><text fill="#000000" font-family="sans-serif" font-size="14" lengthAdjust="spacing" textLength="86.9531" x="360.52" y="581.482">reminders.js</text></g><!--entity config.js--><g class="entity" data-qualified-name="src.services.config.js" data-source-line="23" id="ent0016"><rect fill="#F1F1F1" height="46.2969" rx="2.5" ry="2.5" style="stroke:#181818;stroke-width:0.5;" width="98.4746" x="535.76" y="427.1869"/><rect fill="#F1F1F1" height="10" style="stroke:#181818;stroke-width:0.5;" width="15" x="614.2346" y="432.1869"/><rect fill="#F1F1F1" height="2" style="stroke:#181818;stroke-width:0.5;" width="4" x="612.2346" y="434.1869"/><rect fill="#F1F1F1" height="2" style="stroke:#181818;stroke-width:0.5;" width="4" x="612.2346" y="438.1869"/><text fill="#000000" font-family="sans-serif" font-size="14" lengthAdjust="spacing" textLength="58.4746" x="550.76" y="460.182">config.js</text></g><!--entity orders.js--><g class="entity" data-qualified-name="src.persistence.orders.js" data-source-line="27" id="ent0018"><rect fill="#F1F1F1" height="46.2969" rx="2.5" ry="2.5" style="stroke:#181818;stroke-width:0.5;" width="100.5049" x="25.75" y="548.4869"/><rect fill="#F1F1F1" height="10" style="stroke:#181818;stroke-width:0.5;" width="15" x="106.2549" y="553.4869"/><rect fill="#F1F1F1" height="2" style="stroke:#181818;stroke-width:0.5;" width="4" x="104.2549" y="555.4869"/><rect fill="#F1F1F1" height="2" style="stroke:#181818;stroke-width:0.5;" width="4" x="104.2549" y="559.4869"/><text fill="#000000" font-family="sans-serif" font-size="14" lengthAdjust="spacing" textLength="60.5049" x="40.75" y="581.482">orders.js</text></g><!--entity login.html--><g class="entity" data-qualified-name="public.login.html" data-source-line="31" id="ent0020"><rect fill="#F1F1F1" height="46.2969" rx="2.5" ry="2.5" style="stroke:#181818;stroke-width:0.5;" width="110.4443" x="161.78" y="78.2969"/><rect fill="#F1F1F1" height="10" style="stroke:#181818;stroke-width:0.5;" width="15" x="252.2243" y="83.2969"/><rect fill="#F1F1F1" height="2" style="stroke:#181818;stroke-width:0.5;" width="4" x="250.2243" y="85.2969"/><rect fill="#F1F1F1" height="2" style="stroke:#181818;stroke-width:0.5;" width="4" x="250.2243" y="89.2969"/><text fill="#000000" font-family="sans-serif" font-size="14" lengthAdjust="spacing" textLength="70.4443" x="176.78" y="111.292">login.html</text></g><!--entity dashboard.html--><g class="entity" data-qualified-name="public.dashboard.html" data-source-line="32" id="ent0021"><rect fill="#F1F1F1" height="46.2969" rx="2.5" ry="2.5" style="stroke:#181818;stroke-width:0.5;" width="150.6465" x="307.68" y="78.2969"/><rect fill="#F1F1F1" height="10" style="stroke:#181818;stroke-width:0.5;" width="15" x="438.3265" y="83.2969"/><rect fill="#F1F1F1" height="2" style="stroke:#181818;stroke-width:0.5;" width="4" x="436.3265" y="85.2969"/><rect fill="#F1F1F1" height="2" style="stroke:#181818;stroke-width:0.5;" width="4" x="436.3265" y="89.2969"/><text fill="#000000" font-family="sans-serif" font-size="14" lengthAdjust="spacing" textLength="110.6465" x="322.68" y="111.292">dashboard.html</text></g><!--entity js/script.js--><g class="entity" data-qualified-name="public.js.script.js" data-source-line="33" id="ent0022"><rect fill="#F1F1F1" height="46.2969" rx="2.5" ry="2.5" style="stroke:#181818;stroke-width:0.5;" width="110.5469" x="179.73" y="184.5969"/><rect fill="#F1F1F1" height="10" style="stroke:#181818;stroke-width:0.5;" width="15" x="270.2769" y="189.5969"/><rect fill="#F1F1F1" height="2" style="stroke:#181818;stroke-width:0.5;" width="4" x="268.2769" y="191.5969"/><rect fill="#F1F1F1" height="2" style="stroke:#181818;stroke-width:0.5;" width="4" x="268.2769" y="195.5969"/><text fill="#000000" font-family="sans-serif" font-size="14" lengthAdjust="spacing" textLength="70.5469" x="194.73" y="217.592">js/script.js</text></g><!--entity css/style.css--><g class="entity" data-qualified-name="public.css.style.css" data-source-line="34" id="ent0023"><rect fill="#F1F1F1" height="46.2969" rx="2.5" ry="2.5" style="stroke:#181818;stroke-width:0.5;" width="127.3086" x="325.35" y="184.5969"/><rect fill="#F1F1F1" height="10" style="stroke:#181818;stroke-width:0.5;" width="15" x="432.6586" y="189.5969"/><rect fill="#F1F1F1" height="2" style="stroke:#181818;stroke-width:0.5;" width="4" x="430.6586" y="191.5969"/><rect fill="#F1F1F1" height="2" style="stroke:#181818;stroke-width:0.5;" width="4" x="430.6586" y="195.5969"/><text fill="#000000" font-family="sans-serif" font-size="14" lengthAdjust="spacing" textLength="87.3086" x="340.35" y="217.592">css/style.css</text></g><!--entity prices.json--><g class="entity" data-qualified-name="data files.prices.json" data-source-line="38" id="ent0025"><rect fill="#F1F1F1" height="46.2969" rx="2.5" ry="2.5" style="stroke:#181818;stroke-width:0.5;" width="115.209" x="523.4" y="669.7769"/><rect fill="#F1F1F1" height="10" style="stroke:#181818;stroke-width:0.5;" width="15" x="618.609" y="674.7769"/><rect fill="#F1F1F1" height="2" style="stroke:#181818;stroke-width:0.5;" width="4" x="616.609" y="676.7769"/><rect fill="#F1F1F1" height="2" style="stroke:#181818;stroke-width:0.5;" width="4" x="616.609" y="680.7769"/><text fill="#000000" font-family="sans-serif" font-size="14" lengthAdjust="spacing" textLength="75.209" x="538.4" y="702.772">prices.json</text></g><!--entity orders.json--><g class="entity" data-qualified-name="data files.orders.json" data-source-line="39" id="ent0026"><rect fill="#F1F1F1" height="46.2969" rx="2.5" ry="2.5" style="stroke:#181818;stroke-width:0.5;" width="117.9434" x="191.03" y="669.7769"/><rect fill="#F1F1F1" height="10" style="stroke:#181818;stroke-width:0.5;" width="15" x="288.9734" y="674.7769"/><rect fill="#F1F1F1" height="2" style="stroke:#181818;stroke-width:0.5;" width="4" x="286.9734" y="676.7769"/><rect fill="#F1F1F1" height="2" style="stroke:#181818;stroke-width:0.5;" width="4" x="286.9734" y="680.7769"/><text fill="#000000" font-family="sans-serif" font-size="14" lengthAdjust="spacing" textLength="77.9434" x="206.03" y="702.772">orders.json</text></g><!--entity reminders.json--><g class="entity" data-qualified-name="data files.reminders.json" data-source-line="40" id="ent0027"><rect fill="#F1F1F1" height="46.2969" rx="2.5" ry="2.5" style="stroke:#181818;stroke-width:0.5;" width="144.3916" x="343.8" y="669.7769"/><rect fill="#F1F1F1" height="10" style="stroke:#181818;stroke-width:0.5;" width="15" x="468.1916" y="674.7769"/><rect fill="#F1F1F1" height="2" style="stroke:#181818;stroke-width:0.5;" width="4" x="466.1916" y="676.7769"/><rect fill="#F1F1F1" height="2" style="stroke:#181818;stroke-width:0.5;" width="4" x="466.1916" y="680.7769"/><text fill="#000000" font-family="sans-serif" font-size="14" lengthAdjust="spacing" textLength="104.3916" x="358.8" y="702.772">reminders.json</text></g><!--entity cleaning_supply.json--><g class="entity" data-qualified-name="data files.cleaning_supply.json" data-source-line="41" id="ent0028"><rect fill="#F1F1F1" height="46.2969" rx="2.5" ry="2.5" style="stroke:#181818;stroke-width:0.5;" width="185.4893" x="673.26" y="669.7769"/><rect fill="#F1F1F1" height="10" style="stroke:#181818;stroke-width:0.5;" width="15" x="838.7493" y="674.7769"/><rect fill="#F1F1F1" height="2" style="stroke:#181818;stroke-width:0.5;" width="4" x="836.7493" y="676.7769"/><rect fill="#F1F1F1" height="2" style="stroke:#181818;stroke-width:0.5;" width="4" x="836.7493" y="680.7769"/><text fill="#000000" font-family="sans-serif" font-size="14" lengthAdjust="spacing" textLength="145.4893" x="688.26" y="702.772">cleaning_supply.json</text></g><!--link index.js to bot.js--><g class="link" data-entity-1="ent0003" data-entity-2="ent0005" data-link-type="dependency" data-source-line="44" id="lnk29"><path d="M625.25,221.8469 C710.55,245.5169 883.0084,293.3629 962.4884,315.4129" fill="none" id="index.js-to-bot.js" style="stroke:#181818;stroke-width:1;"/><polygon fill="#181818" points="968.27,317.0169,960.6669,310.7565,963.452,315.6802,958.5282,318.4653,968.27,317.0169" style="stroke:#181818;stroke-width:1;"/></g><!--link index.js to server.js--><g class="link" data-entity-1="ent0003" data-entity-2="ent0009" data-link-type="dependency" data-source-line="45" id="lnk30"><path d="M533.31,231.2769 C515.25,239.6569 493.99,248.6469 474,254.8869 C455.86,260.5569 450.39,258.1169 432,262.8869 C381.27,276.0469 330.2079,293.2717 290.7179,307.4317" fill="none" id="index.js-to-server.js" style="stroke:#181818;stroke-width:1;"/><polygon fill="#181818" points="285.07,309.4569,294.892,310.1844,289.7766,307.7692,292.1917,302.6539,285.07,309.4569" style="stroke:#181818;stroke-width:1;"/></g><!--link index.js to reminderScheduler.js--><g class="link" data-entity-1="ent0003" data-entity-2="ent0014" data-link-type="dependency" data-source-line="46" id="lnk31"><path d="M561.82,231.3769 C528.95,277.3469 458.2295,376.276 425.4995,422.056" fill="none" id="index.js-to-reminderScheduler.js" style="stroke:#181818;stroke-width:1;"/><polygon fill="#181818" points="422.01,426.9369,430.4982,421.9419,424.918,422.8695,423.9904,417.2892,422.01,426.9369" style="stroke:#181818;stroke-width:1;"/></g><!--link index.js to config.js--><g class="link" data-entity-1="ent0003" data-entity-2="ent0016" data-link-type="dependency" data-source-line="47" id="lnk32"><path d="M578.66,231.3769 C580,277.3469 582.8458,375.1594 584.1758,420.9394" fill="none" id="index.js-to-config.js" style="stroke:#181818;stroke-width:1;"/><polygon fill="#181818" points="584.35,426.9369,588.087,417.8245,584.2048,421.939,580.0903,418.0568,584.35,426.9369" style="stroke:#181818;stroke-width:1;"/></g><!--link bot.js to botHelpers.js--><g class="link" data-entity-1="ent0005" data-entity-2="ent0006" data-link-type="dependency" data-source-line="48" id="lnk33"><path d="M1013.08,352.4769 C1017.91,373.8069 1023.7957,399.8448 1028.6157,421.1448" fill="none" id="bot.js-to-botHelpers.js" style="stroke:#181818;stroke-width:1;"/><polygon fill="#181818" points="1029.94,426.9969,1031.855,417.336,1028.8364,422.1202,1024.0522,419.1017,1029.94,426.9969" style="stroke:#181818;stroke-width:1;"/></g><!--link bot.js to orderUtils.js--><g class="link" data-entity-1="ent0005" data-entity-2="ent0007" data-link-type="dependency" data-source-line="49" id="lnk34"><path d="M1047.74,346.6669 C1069.47,356.4369 1096.46,369.6869 1119,384.1869 C1138.58,396.7869 1154.3191,409.5679 1169.4091,422.9379" fill="none" id="bot.js-to-orderUtils.js" style="stroke:#181818;stroke-width:1;"/><polygon fill="#181818" points="1173.9,426.9169,1169.8164,417.9545,1170.1576,423.6011,1164.5111,423.9423,1173.9,426.9169" style="stroke:#181818;stroke-width:1;"/></g><!--link bot.js to pricing.js--><g class="link" data-entity-1="ent0005" data-entity-2="ent0011" data-link-type="dependency" data-source-line="50" id="lnk35"><path d="M980.35,352.4769 C954.07,373.8069 919.4284,401.9155 893.1884,423.2155" fill="none" id="bot.js-to-pricing.js" style="stroke:#181818;stroke-width:1;"/><polygon fill="#181818" points="888.53,426.9969,898.0386,424.4304,892.412,423.8457,892.9967,418.2191,888.53,426.9969" style="stroke:#181818;stroke-width:1;"/></g><!--link bot.js to invoice.js--><g class="link" data-entity-1="ent0005" data-entity-2="ent0012" data-link-type="dependency" data-source-line="51" id="lnk36"><path d="M968.4,333.9469 C923.37,339.7169 848.73,353.3669 792,384.1869 C772.16,394.9669 757.6853,408.2457 744.6853,422.4857" fill="none" id="bot.js-to-invoice.js" style="stroke:#181818;stroke-width:1;"/><polygon fill="#181818" points="740.64,426.9169,749.6621,422.967,744.0111,423.2242,743.7539,417.5732,740.64,426.9169" style="stroke:#181818;stroke-width:1;"/></g><!--link bot.js to email.js--><g class="link" data-entity-1="ent0005" data-entity-2="ent0013" data-link-type="dependency" data-source-line="52" id="lnk37"><path d="M968.27,329.4669 C836.5,328.1069 415.41,328.3369 294,384.1869 C273.82,393.4669 260.099,407.1606 248.389,422.0506" fill="none" id="bot.js-to-email.js" style="stroke:#181818;stroke-width:1;"/><polygon fill="#181818" points="244.68,426.7669,253.3877,422.1652,247.7709,422.8367,247.0994,417.2198,244.68,426.7669" style="stroke:#181818;stroke-width:1;"/></g><!--link server.js to orders.js--><g class="link" data-entity-1="ent0009" data-entity-2="ent0018" data-link-type="dependency" data-source-line="53" id="lnk38"><path d="M199.99,352.6369 C188.16,361.4669 175.55,372.3269 166,384.1869 C124.09,436.2769 97.4839,505.4103 85.0239,542.4303" fill="none" id="server.js-to-orders.js" style="stroke:#181818;stroke-width:1;"/><polygon fill="#181818" points="83.11,548.1169,89.772,540.863,84.705,543.3781,82.1899,538.3111,83.11,548.1169" style="stroke:#181818;stroke-width:1;"/></g><!--link server.js to invoice.js--><g class="link" data-entity-1="ent0009" data-entity-2="ent0012" data-link-type="dependency" data-source-line="54" id="lnk39"><path d="M285.25,332.7269 C381.48,338.4969 587.91,354.0669 652,384.1869 C672.73,393.9269 687.5081,407.5822 700.3581,422.2622" fill="none" id="server.js-to-invoice.js" style="stroke:#181818;stroke-width:1;"/><polygon fill="#181818" points="704.31,426.7769,701.392,417.3702,701.0168,423.0146,695.3724,422.6394,704.31,426.7769" style="stroke:#181818;stroke-width:1;"/></g><!--link server.js to email.js--><g class="link" data-entity-1="ent0009" data-entity-2="ent0013" data-link-type="dependency" data-source-line="55" id="lnk40"><path d="M233.87,352.4769 C232.8,373.8069 231.491,399.7044 230.421,421.0044" fill="none" id="server.js-to-email.js" style="stroke:#181818;stroke-width:1;"/><polygon fill="#181818" points="230.12,426.9969,234.5665,418.2089,230.3709,422.0032,226.5766,417.8075,230.12,426.9969" style="stroke:#181818;stroke-width:1;"/></g><!--link reminderScheduler.js to orders.js--><g class="link" data-entity-1="ent0014" data-entity-2="ent0018" data-link-type="dependency" data-source-line="56" id="lnk41"><path d="M360.8,473.9269 C340.82,482.8669 316.75,492.2369 294,497.4869 C238.46,510.2869 219.65,486.2369 166,505.4869 C140.58,514.6069 120.55,529.2683 103.53,544.2783" fill="none" id="reminderScheduler.js-to-orders.js" style="stroke:#181818;stroke-width:1;"/><polygon fill="#181818" points="99.03,548.2469,108.4258,545.294,102.78,544.9397,103.1343,539.294,99.03,548.2469" style="stroke:#181818;stroke-width:1;"/></g><!--link reminderScheduler.js to reminders.js--><g class="link" data-entity-1="ent0014" data-entity-2="ent0015" data-link-type="dependency" data-source-line="57" id="lnk42"><path d="M406.56,473.7769 C407.1,495.1069 407.7479,520.9988 408.2879,542.2988" fill="none" id="reminderScheduler.js-to-reminders.js" style="stroke:#181818;stroke-width:1;"/><polygon fill="#181818" points="408.44,548.2969,412.2106,539.1984,408.3133,543.2985,404.2132,539.4011,408.44,548.2969" style="stroke:#181818;stroke-width:1;"/></g><!--link config.js to prices.json--><g class="link" data-entity-1="ent0016" data-entity-2="ent0025" data-link-type="dependency" data-source-line="58" id="lnk43"><path d="M584.62,473.9669 C583.86,519.9369 582.2296,617.7577 581.4696,663.5277" fill="none" id="config.js-to-prices.json" style="stroke:#181818;stroke-width:1;"/><polygon fill="#181818" points="581.37,669.5269,585.5189,660.5945,581.453,664.5276,577.52,660.4617,581.37,669.5269" style="stroke:#181818;stroke-width:1;"/></g><!--link orders.js to orders.json--><g class="link" data-entity-1="ent0018" data-entity-2="ent0026" data-link-type="dependency" data-source-line="59" id="lnk44"><path d="M108.73,595.0669 C139.74,616.3269 181.111,644.7046 212.171,665.9946" fill="none" id="orders.js-to-orders.json" style="stroke:#181818;stroke-width:1;"/><polygon fill="#181818" points="217.12,669.3869,211.958,660.9991,212.9958,666.56,207.435,667.5978,217.12,669.3869" style="stroke:#181818;stroke-width:1;"/></g><!--link reminders.js to reminders.json--><g class="link" data-entity-1="ent0015" data-entity-2="ent0027" data-link-type="dependency" data-source-line="60" id="lnk45"><path d="M410.32,595.0669 C411.57,616.3969 413.0883,642.3072 414.3383,663.5972" fill="none" id="reminders.js-to-reminders.json" style="stroke:#181818;stroke-width:1;"/><polygon fill="#181818" points="414.69,669.5869,418.1556,660.3679,414.3969,664.5955,410.1694,660.8368,414.69,669.5869" style="stroke:#181818;stroke-width:1;"/></g><!--link bot.js to cleaning_supply.json--><g class="link" data-entity-1="ent0005" data-entity-2="ent0028" data-link-type="dependency" data-source-line="61" id="lnk46"><path d="M1047.65,332.0269 C1115.49,336.3469 1249.33,349.1969 1278,384.1869 C1309.91,423.1369 1306.59,456.0369 1278,497.4869 C1183.58,634.3469 985.2102,674.36 865.1802,686.36" fill="none" id="bot.js-to-cleaning_supply.json" style="stroke:#181818;stroke-width:1;"/><polygon fill="#181818" points="859.21,686.9569,868.5633,690.0417,864.1852,686.4595,867.7674,682.0814,859.21,686.9569" style="stroke:#181818;stroke-width:1;"/></g><!--link dashboard.html to js/script.js--><g class="link" data-entity-1="ent0021" data-entity-2="ent0022" data-link-type="dependency" data-source-line="62" id="lnk47"><path d="M335.55,124.9369 C326.17,130.0069 316.58,135.6669 308,141.5969 C289.7,154.2469 275.3343,166.8475 261.4443,180.2075" fill="none" id="dashboard.html-to-js/script.js" style="stroke:#181818;stroke-width:1;"/><polygon fill="#181818" points="257.12,184.3669,266.3794,181.0108,260.7236,180.9008,260.8336,175.245,257.12,184.3669" style="stroke:#181818;stroke-width:1;"/></g><!--link dashboard.html to css/style.css--><g class="link" data-entity-1="ent0021" data-entity-2="ent0023" data-link-type="dependency" data-source-line="63" id="lnk48"><path d="M384.3,125.0769 C385.31,142.5669 386.3441,160.6769 387.3541,178.1669" fill="none" id="dashboard.html-to-css/style.css" style="stroke:#181818;stroke-width:1;"/><polygon fill="#181818" points="387.7,184.1569,391.1745,174.9412,387.4117,179.1652,383.1878,175.4024,387.7,184.1569" style="stroke:#181818;stroke-width:1;"/></g><!--link js/script.js to server.js--><g class="link" data-entity-1="ent0022" data-entity-2="ent0009" data-link-type="dependency" data-source-line="64" id="lnk49"><path d="M235,231.1769 C235,252.5069 235,278.4069 235,299.6969" fill="none" id="js/script.js-to-server.js" style="stroke:#181818;stroke-width:1;"/><polygon fill="#181818" points="235,305.6969,239,296.6969,235,300.6969,231,296.6969,235,305.6969" style="stroke:#181818;stroke-width:1;"/></g><?plantuml-src VL91RiCW4Bpx5IZtk3_egPLwh5JrL4KHnXjxKmm8IDgewj-B7Mop6FLcTiQpkxFZqKjWhrnyyWxO4_BEyg6gJ2pidfMtjntxgHZxGDN2TtrsX-etOJWhQg7L5QpZ7hMAv4RxYNh_V05f0c6kQDk2VVSeNL7k2vgeui06uI9fX520YqnZKQ3gvWwehZgWynC6Zd9-M1Z6LUoRwA6zoAYV0CkSOQyJTiNsupheF2W1SO9fgUr2vj98594ZTOUgxlqW9_sMkxxHtBPhwUmUdB1e5lU42nL_ar27BohTSi_P2IKn0SOHj3gGaU8xNJ2MX0IkWd57Tp56tY8GkgpdPllzuthGl9wSA8VAHkUinEIvoT8npGq5imXHC0q3HT9SK6IDIB9IqikLCIAOWubcqOkj_3yqcix4jdNdvVQ9PjPZGedKLdtY47FAASdpU-VI19SvMQZfFtck_W00?></g></svg>