<svg xmlns="http://www.w3.org/2000/svg" xmlns:xlink="http://www.w3.org/1999/xlink" contentStyleType="text/css" data-diagram-type="ACTIVITY" height="438px" preserveAspectRatio="none" style="width:404px;height:438px;background:#FFFFFF;" version="1.1" viewBox="0 0 404 438" width="404px" zoomAndPan="magnify"><?plantuml 1.2026.3beta6?><defs/><g><g class="title" data-source-line="1"><text fill="#000000" font-family="sans-serif" font-size="14" font-weight="700" lengthAdjust="spacing" textLength="258.1045" x="72.4097" y="32.9951">Cancel Booking Activity Diagram</text></g><ellipse cx="223.1099" cy="62.2969" fill="#222222" rx="10" ry="10" style="stroke:#222222;stroke-width:1;"/><rect fill="#F1F1F1" height="33.9688" rx="12.5" ry="12.5" style="stroke:#181818;stroke-width:0.5;" width="242.4395" x="101.8901" y="92.2969"/><text fill="#000000" font-family="sans-serif" font-size="12" lengthAdjust="spacing" textLength="222.4395" x="111.8901" y="113.4355">Customer opens manage-orders flow</text><rect fill="#F1F1F1" height="33.9688" rx="12.5" ry="12.5" style="stroke:#181818;stroke-width:0.5;" width="236.873" x="104.6733" y="146.2656"/><text fill="#000000" font-family="sans-serif" font-size="12" lengthAdjust="spacing" textLength="216.873" x="114.6733" y="167.4043">Select booking and choose "Cancel"</text><rect fill="#F1F1F1" height="33.9688" rx="12.5" ry="12.5" style="stroke:#181818;stroke-width:0.5;" width="225.5234" x="110.3481" y="200.2344"/><text fill="#000000" font-family="sans-serif" font-size="12" lengthAdjust="spacing" textLength="205.5234" x="120.3481" y="221.373">Request cancellation confirmation</text><polygon fill="#F1F1F1" points="167.9031,254.2031,278.3167,254.2031,290.3167,266.2031,278.3167,278.2031,167.9031,278.2031,155.9031,266.2031,167.9031,254.2031" style="stroke:#181818;stroke-width:0.5;"/><text fill="#000000" font-family="sans-serif" font-size="11" lengthAdjust="spacing" textLength="110.4136" x="167.9031" y="270.0112">Customer confirms?</text><text fill="#000000" font-family="sans-serif" font-size="11" lengthAdjust="spacing" textLength="19.0083" x="136.8948" y="263.6089">yes</text><text fill="#000000" font-family="sans-serif" font-size="11" lengthAdjust="spacing" textLength="13.7017" x="290.3167" y="263.6089">no</text><rect fill="#F1F1F1" height="33.9688" rx="12.5" ry="12.5" style="stroke:#181818;stroke-width:0.5;" width="219.7578" x="16" y="288.2031"/><text fill="#000000" font-family="sans-serif" font-size="12" lengthAdjust="spacing" textLength="199.7578" x="26" y="309.3418">Delete booking from orders store</text><rect fill="#F1F1F1" height="33.9688" rx="12.5" ry="12.5" style="stroke:#181818;stroke-width:0.5;" width="206.4629" x="22.6475" y="342.1719"/><text fill="#000000" font-family="sans-serif" font-size="12" lengthAdjust="spacing" textLength="186.4629" x="32.6475" y="363.3105">Send cancellation confirmation</text><ellipse cx="125.8789" cy="407.1406" fill="none" rx="11" ry="11" style="stroke:#222222;stroke-width:1;"/><ellipse cx="125.8789" cy="407.1406" fill="#222222" rx="6" ry="6" style="stroke:#222222;stroke-width:1;"/><rect fill="#F1F1F1" height="33.9688" rx="12.5" ry="12.5" style="stroke:#181818;stroke-width:0.5;" width="129.166" x="255.7578" y="288.2031"/><text fill="#000000" font-family="sans-serif" font-size="12" lengthAdjust="spacing" textLength="109.166" x="265.7578" y="309.3418">Abort cancellation</text><ellipse cx="320.3408" cy="353.1719" fill="none" rx="11" ry="11" style="stroke:#222222;stroke-width:1;"/><ellipse cx="320.3408" cy="353.1719" fill="#222222" rx="6" ry="6" style="stroke:#222222;stroke-width:1;"/><line style="stroke:#181818;stroke-width:1;" x1="223.1099" x2="223.1099" y1="72.2969" y2="92.2969"/><polygon fill="#181818" points="219.1099,82.2969,223.1099,92.2969,227.1099,82.2969,223.1099,86.2969" style="stroke:#181818;stroke-width:1;"/><line style="stroke:#181818;stroke-width:1;" x1="223.1099" x2="223.1099" y1="126.2656" y2="146.2656"/><polygon fill="#181818" points="219.1099,136.2656,223.1099,146.2656,227.1099,136.2656,223.1099,140.2656" style="stroke:#181818;stroke-width:1;"/><line style="stroke:#181818;stroke-width:1;" x1="223.1099" x2="223.1099" y1="180.2344" y2="200.2344"/><polygon fill="#181818" points="219.1099,190.2344,223.1099,200.2344,227.1099,190.2344,223.1099,194.2344" style="stroke:#181818;stroke-width:1;"/><line style="stroke:#181818;stroke-width:1;" x1="125.8789" x2="125.8789" y1="322.1719" y2="342.1719"/><polygon fill="#181818" points="121.8789,332.1719,125.8789,342.1719,129.8789,332.1719,125.8789,336.1719" style="stroke:#181818;stroke-width:1;"/><line style="stroke:#181818;stroke-width:1;" x1="125.8789" x2="125.8789" y1="376.1406" y2="396.1406"/><polygon fill="#181818" points="121.8789,386.1406,125.8789,396.1406,129.8789,386.1406,125.8789,390.1406" style="stroke:#181818;stroke-width:1;"/><line style="stroke:#181818;stroke-width:1;" x1="320.3408" x2="320.3408" y1="322.1719" y2="342.1719"/><polygon fill="#181818" points="316.3408,332.1719,320.3408,342.1719,324.3408,332.1719,320.3408,336.1719" style="stroke:#181818;stroke-width:1;"/><line style="stroke:#181818;stroke-width:1;" x1="155.9031" x2="125.8789" y1="266.2031" y2="266.2031"/><line style="stroke:#181818;stroke-width:1;" x1="125.8789" x2="125.8789" y1="266.2031" y2="288.2031"/><polygon fill="#181818" points="121.8789,278.2031,125.8789,288.2031,129.8789,278.2031,125.8789,282.2031" style="stroke:#181818;stroke-width:1;"/><line style="stroke:#181818;stroke-width:1;" x1="290.3167" x2="320.3408" y1="266.2031" y2="266.2031"/><line style="stroke:#181818;stroke-width:1;" x1="320.3408" x2="320.3408" y1="266.2031" y2="288.2031"/><polygon fill="#181818" points="316.3408,278.2031,320.3408,288.2031,324.3408,278.2031,320.3408,282.2031" style="stroke:#181818;stroke-width:1;"/><line style="stroke:#181818;stroke-width:1;" x1="223.1099" x2="223.1099" y1="234.2031" y2="254.2031"/><polygon fill="#181818" points="219.1099,244.2031,223.1099,254.2031,227.1099,244.2031,223.1099,248.2031" style="stroke:#181818;stroke-width:1;"/><?plantuml-src TOv1Si8m34NtFiKVLc7H2oIB3eKJm0cC8mTFRGba0SFjIT8C38ik9JtzzorP9cmz1yhu4VbDF60JBDsIFR1BVb1VdAlcrLoxlLQJGWev4rSKptwWBz6Uj29ckNUkFL2cO3WkMPvxX9D89Qp-DAiHsjFbIjKGvatsbeGHX6FICW-TIn7DoxUSwlSQTY96yw2wTa2x6sr6BrjKALZwZAzAtGGTQ2hnlmeJUtQKnv8DonoyEOf-zdjptAVu1000?></g></svg>