<svg xmlns="http://www.w3.org/2000/svg" xmlns:xlink="http://www.w3.org/1999/xlink" contentStyleType="text/css" data-diagram-type="ACTIVITY" height="575px" preserveAspectRatio="none" style="width:855px;height:575px;background:#FFFFFF;" version="1.1" viewBox="0 0 855 575" width="855px" zoomAndPan="magnify"><?plantuml 1.2026.3beta6?><defs/><g><g class="title" data-source-line="1"><text fill="#000000" font-family="sans-serif" font-size="14" font-weight="700" lengthAdjust="spacing" textLength="287.6904" x="282.8472" y="32.9951">Receive Reminders Activity Diagram</text></g><ellipse cx="548.5398" cy="62.2969" fill="#222222" rx="10" ry="10" style="stroke:#222222;stroke-width:1;"/><rect fill="#F1F1F1" height="33.9688" rx="12.5" ry="12.5" style="stroke:#181818;stroke-width:0.5;" width="167.6563" x="464.7117" y="92.2969"/><text fill="#000000" font-family="sans-serif" font-size="12" lengthAdjust="spacing" textLength="147.6563" x="474.7117" y="113.4355">Scheduler interval starts</text><rect fill="#F1F1F1" height="33.9688" rx="12.5" ry="12.5" style="stroke:#181818;stroke-width:0.5;" width="133.3203" x="481.8796" y="146.2656"/><text fill="#000000" font-family="sans-serif" font-size="12" lengthAdjust="spacing" textLength="113.3203" x="491.8796" y="167.4043">Load stored orders</text><rect fill="#F1F1F1" height="33.9688" rx="12.5" ry="12.5" style="stroke:#181818;stroke-width:0.5;" width="236.9902" x="430.0447" y="200.2344"/><text fill="#000000" font-family="sans-serif" font-size="12" lengthAdjust="spacing" textLength="216.9902" x="440.0447" y="221.373">Filter orders with due reminderTime</text><polygon fill="#F1F1F1" points="493.2417,254.2031,603.8379,254.2031,615.8379,266.2031,603.8379,278.2031,493.2417,278.2031,481.2417,266.2031,493.2417,254.2031" style="stroke:#181818;stroke-width:0.5;"/><text fill="#000000" font-family="sans-serif" font-size="11" lengthAdjust="spacing" textLength="110.5962" x="493.2417" y="270.0112">Any due reminders?</text><text fill="#000000" font-family="sans-serif" font-size="11" lengthAdjust="spacing" textLength="19.0083" x="462.2334" y="263.6089">yes</text><text fill="#000000" font-family="sans-serif" font-size="11" lengthAdjust="spacing" textLength="13.7017" x="615.8379" y="263.6089">no</text><polygon fill="#F1F1F1" points="294.1177,288.2031,424.8071,288.2031,436.8071,300.2031,424.8071,312.2031,294.1177,312.2031,282.1177,300.2031,294.1177,288.2031" style="stroke:#181818;stroke-width:0.5;"/><text fill="#000000" font-family="sans-serif" font-size="11" lengthAdjust="spacing" textLength="130.6895" x="294.1177" y="304.0112">WhatsApp client ready?</text><text fill="#000000" font-family="sans-serif" font-size="11" lengthAdjust="spacing" textLength="19.0083" x="263.1094" y="297.6089">yes</text><text fill="#000000" font-family="sans-serif" font-size="11" lengthAdjust="spacing" textLength="13.7017" x="436.8071" y="297.6089">no</text><rect fill="#F1F1F1" height="33.9688" rx="12.5" ry="12.5" style="stroke:#181818;stroke-width:0.5;" width="166.6602" x="114.5449" y="322.2031"/><text fill="#000000" font-family="sans-serif" font-size="12" lengthAdjust="spacing" textLength="146.6602" x="124.5449" y="343.3418">Send reminder message</text><polygon fill="#F1F1F1" points="150.8914,391.1719,244.8586,391.1719,256.8586,403.1719,244.8586,415.1719,150.8914,415.1719,138.8914,403.1719,150.8914,391.1719" style="stroke:#181818;stroke-width:0.5;"/><text fill="#000000" font-family="sans-serif" font-size="11" lengthAdjust="spacing" textLength="93.9673" x="150.8914" y="406.98">Send successful?</text><text fill="#000000" font-family="sans-serif" font-size="11" lengthAdjust="spacing" textLength="19.0083" x="119.8831" y="400.5776">yes</text><text fill="#000000" font-family="sans-serif" font-size="11" lengthAdjust="spacing" textLength="13.7017" x="256.8586" y="400.5776">no</text><rect fill="#F1F1F1" height="33.9688" rx="12.5" ry="12.5" style="stroke:#181818;stroke-width:0.5;" width="155.4629" x="18.5811" y="425.1719"/><text fill="#000000" font-family="sans-serif" font-size="12" lengthAdjust="spacing" textLength="135.4629" x="28.5811" y="446.3105">Mark reminder as sent</text><rect fill="#F1F1F1" height="33.9688" rx="12.5" ry="12.5" style="stroke:#181818;stroke-width:0.5;" width="160.625" x="16" y="479.1406"/><text fill="#000000" font-family="sans-serif" font-size="12" lengthAdjust="spacing" textLength="140.625" x="26" y="500.2793">Write success log entry</text><ellipse cx="96.3125" cy="544.1094" fill="none" rx="11" ry="11" style="stroke:#222222;stroke-width:1;"/><ellipse cx="96.3125" cy="544.1094" fill="#222222" rx="6" ry="6" style="stroke:#222222;stroke-width:1;"/><rect fill="#F1F1F1" height="33.9688" rx="12.5" ry="12.5" style="stroke:#181818;stroke-width:0.5;" width="205.625" x="196.625" y="425.1719"/><text fill="#000000" font-family="sans-serif" font-size="12" lengthAdjust="spacing" textLength="185.625" x="206.625" y="446.3105">Write failed reminder log entry</text><ellipse cx="299.4375" cy="490.1406" fill="none" rx="11" ry="11" style="stroke:#222222;stroke-width:1;"/><ellipse cx="299.4375" cy="490.1406" fill="#222222" rx="6" ry="6" style="stroke:#222222;stroke-width:1;"/><rect fill="#F1F1F1" height="33.9688" rx="12.5" ry="12.5" style="stroke:#181818;stroke-width:0.5;" width="177.5996" x="432.25" y="322.2031"/><text fill="#000000" font-family="sans-serif" font-size="12" lengthAdjust="spacing" textLength="157.5996" x="442.25" y="343.3418">Skip sending for this cycle</text><ellipse cx="521.0498" cy="402.1719" fill="none" rx="11" ry="11" style="stroke:#222222;stroke-width:1;"/><ellipse cx="521.0498" cy="402.1719" fill="#222222" rx="6" ry="6" style="stroke:#222222;stroke-width:1;"/><rect fill="#F1F1F1" height="33.9688" rx="12.5" ry="12.5" style="stroke:#181818;stroke-width:0.5;" width="195.5352" x="639.8496" y="288.2031"/><text fill="#000000" font-family="sans-serif" font-size="12" lengthAdjust="spacing" textLength="175.5352" x="649.8496" y="309.3418">Wait for next scheduler cycle</text><ellipse cx="737.6172" cy="368.1719" fill="none" rx="11" ry="11" style="stroke:#222222;stroke-width:1;"/><ellipse cx="737.6172" cy="368.1719" fill="#222222" rx="6" ry="6" style="stroke:#222222;stroke-width:1;"/><line style="stroke:#181818;stroke-width:1;" x1="548.5398" x2="548.5398" y1="72.2969" y2="92.2969"/><polygon fill="#181818" points="544.5398,82.2969,548.5398,92.2969,552.5398,82.2969,548.5398,86.2969" style="stroke:#181818;stroke-width:1;"/><line style="stroke:#181818;stroke-width:1;" x1="548.5398" x2="548.5398" y1="126.2656" y2="146.2656"/><polygon fill="#181818" points="544.5398,136.2656,548.5398,146.2656,552.5398,136.2656,548.5398,140.2656" style="stroke:#181818;stroke-width:1;"/><line style="stroke:#181818;stroke-width:1;" x1="548.5398" x2="548.5398" y1="180.2344" y2="200.2344"/><polygon fill="#181818" points="544.5398,190.2344,548.5398,200.2344,552.5398,190.2344,548.5398,194.2344" style="stroke:#181818;stroke-width:1;"/><line style="stroke:#181818;stroke-width:1;" x1="96.3125" x2="96.3125" y1="459.1406" y2="479.1406"/><polygon fill="#181818" points="92.3125,469.1406,96.3125,479.1406,100.3125,469.1406,96.3125,473.1406" style="stroke:#181818;stroke-width:1;"/><line style="stroke:#181818;stroke-width:1;" x1="96.3125" x2="96.3125" y1="513.1094" y2="533.1094"/><polygon fill="#181818" points="92.3125,523.1094,96.3125,533.1094,100.3125,523.1094,96.3125,527.1094" style="stroke:#181818;stroke-width:1;"/><line style="stroke:#181818;stroke-width:1;" x1="299.4375" x2="299.4375" y1="459.1406" y2="479.1406"/><polygon fill="#181818" points="295.4375,469.1406,299.4375,479.1406,303.4375,469.1406,299.4375,473.1406" style="stroke:#181818;stroke-width:1;"/><line style="stroke:#181818;stroke-width:1;" x1="138.8914" x2="96.3125" y1="403.1719" y2="403.1719"/><line style="stroke:#181818;stroke-width:1;" x1="96.3125" x2="96.3125" y1="403.1719" y2="425.1719"/><polygon fill="#181818" points="92.3125,415.1719,96.3125,425.1719,100.3125,415.1719,96.3125,419.1719" style="stroke:#181818;stroke-width:1;"/><line style="stroke:#181818;stroke-width:1;" x1="256.8586" x2="299.4375" y1="403.1719" y2="403.1719"/><line style="stroke:#181818;stroke-width:1;" x1="299.4375" x2="299.4375" y1="403.1719" y2="425.1719"/><polygon fill="#181818" points="295.4375,415.1719,299.4375,425.1719,303.4375,415.1719,299.4375,419.1719" style="stroke:#181818;stroke-width:1;"/><line style="stroke:#181818;stroke-width:1;" x1="197.875" x2="197.875" y1="356.1719" y2="391.1719"/><polygon fill="#181818" points="193.875,381.1719,197.875,391.1719,201.875,381.1719,197.875,385.1719" style="stroke:#181818;stroke-width:1;"/><line style="stroke:#181818;stroke-width:1;" x1="521.0498" x2="521.0498" y1="356.1719" y2="391.1719"/><polygon fill="#181818" points="517.0498,381.1719,521.0498,391.1719,525.0498,381.1719,521.0498,385.1719" style="stroke:#181818;stroke-width:1;"/><line style="stroke:#181818;stroke-width:1;" x1="282.1177" x2="197.875" y1="300.2031" y2="300.2031"/><line style="stroke:#181818;stroke-width:1;" x1="197.875" x2="197.875" y1="300.2031" y2="322.2031"/><polygon fill="#181818" points="193.875,312.2031,197.875,322.2031,201.875,312.2031,197.875,316.2031" style="stroke:#181818;stroke-width:1;"/><line style="stroke:#181818;stroke-width:1;" x1="436.8071" x2="521.0498" y1="300.2031" y2="300.2031"/><line style="stroke:#181818;stroke-width:1;" x1="521.0498" x2="521.0498" y1="300.2031" y2="322.2031"/><polygon fill="#181818" points="517.0498,312.2031,521.0498,322.2031,525.0498,312.2031,521.0498,316.2031" style="stroke:#181818;stroke-width:1;"/><line style="stroke:#181818;stroke-width:1;" x1="737.6172" x2="737.6172" y1="322.1719" y2="357.1719"/><polygon fill="#181818" points="733.6172,347.1719,737.6172,357.1719,741.6172,347.1719,737.6172,351.1719" style="stroke:#181818;stroke-width:1;"/><line style="stroke:#181818;stroke-width:1;" x1="481.2417" x2="359.4624" y1="266.2031" y2="266.2031"/><line style="stroke:#181818;stroke-width:1;" x1="359.4624" x2="359.4624" y1="266.2031" y2="288.2031"/><polygon fill="#181818" points="355.4624,278.2031,359.4624,288.2031,363.4624,278.2031,359.4624,282.2031" style="stroke:#181818;stroke-width:1;"/><line style="stroke:#181818;stroke-width:1;" x1="615.8379" x2="737.6172" y1="266.2031" y2="266.2031"/><line style="stroke:#181818;stroke-width:1;" x1="737.6172" x2="737.6172" y1="266.2031" y2="288.2031"/><polygon fill="#181818" points="733.6172,278.2031,737.6172,288.2031,741.6172,278.2031,737.6172,282.2031" style="stroke:#181818;stroke-width:1;"/><line style="stroke:#181818;stroke-width:1;" x1="548.5398" x2="548.5398" y1="234.2031" y2="254.2031"/><polygon fill="#181818" points="544.5398,244.2031,548.5398,254.2031,552.5398,244.2031,548.5398,248.2031" style="stroke:#181818;stroke-width:1;"/><?plantuml-src VP7DReCm48JlVeev9gy0XofIrLDxAPKuM_O2gnY3l0ijRrz3IPgaKa_-cPblTsrb3OHtSiJpklOSFIN1oIdFh0kUsRR9ziQ8sgIcg5n7VWgKm54fpJPWKwGqnUjWVJuDYJo6j7BovGk7xDlF-6Jju2T2sajzS4-buGQ7Krpk57awGZkAE2maHmEifhgpAgTnX0jCKRFP-kNH21GLHNybeISHs-OwgxPYDbacvxBGJE4l82FUR3h_8gn0Si7oejQ9bIu8XA55LjDoqVChZDkMWX0ESJZU1nlBWMuw_0SGFJVc4LHKPnxNZZp75isGyW0iS8iB-vWxu2T-6ovgoxf58dqfvFgXr_0MtOBV?></g></svg>