<svg xmlns="http://www.w3.org/2000/svg" xmlns:xlink="http://www.w3.org/1999/xlink" contentStyleType="text/css" data-diagram-type="ACTIVITY" height="634px" preserveAspectRatio="none" style="width:613px;height:634px;background:#FFFFFF;" version="1.1" viewBox="0 0 613 634" width="613px" zoomAndPan="magnify"><?plantuml 1.2026.3beta6?><defs/><g><g class="title" data-source-line="1"><text fill="#000000" font-family="sans-serif" font-size="14" font-weight="700" lengthAdjust="spacing" textLength="285.3047" x="163.1895" y="32.9951">Request Quotation Activity Diagram</text></g><ellipse cx="354.3538" cy="62.2969" fill="#222222" rx="10" ry="10" style="stroke:#222222;stroke-width:1;"/><rect fill="#F1F1F1" height="33.9688" rx="12.5" ry="12.5" style="stroke:#181818;stroke-width:0.5;" width="243.1426" x="232.7825" y="92.2969"/><text fill="#000000" font-family="sans-serif" font-size="12" lengthAdjust="spacing" textLength="223.1426" x="242.7825" y="113.4355">Customer opens Goods/Services flow</text><rect fill="#F1F1F1" height="33.9688" rx="12.5" ry="12.5" style="stroke:#181818;stroke-width:0.5;" width="221.416" x="243.6458" y="146.2656"/><text fill="#000000" font-family="sans-serif" font-size="12" lengthAdjust="spacing" textLength="201.416" x="253.6458" y="167.4043">Select product category and item</text><rect fill="#F1F1F1" height="33.9688" rx="12.5" ry="12.5" style="stroke:#181818;stroke-width:0.5;" width="194.3691" x="257.1692" y="200.2344"/><text fill="#000000" font-family="sans-serif" font-size="12" lengthAdjust="spacing" textLength="174.3691" x="267.1692" y="221.373">Enter dimensions or quantity</text><polygon fill="#F1F1F1" points="322.2722,254.2031,386.4353,254.2031,398.4353,266.2031,386.4353,278.2031,322.2722,278.2031,310.2722,266.2031,322.2722,254.2031" style="stroke:#181818;stroke-width:0.5;"/><text fill="#000000" font-family="sans-serif" font-size="11" lengthAdjust="spacing" textLength="64.1631" x="322.2722" y="270.0112">Input valid?</text><text fill="#000000" font-family="sans-serif" font-size="11" lengthAdjust="spacing" textLength="19.0083" x="291.2639" y="263.6089">yes</text><text fill="#000000" font-family="sans-serif" font-size="11" lengthAdjust="spacing" textLength="13.7017" x="398.4353" y="263.6089">no</text><rect fill="#F1F1F1" height="33.9688" rx="12.5" ry="12.5" style="stroke:#181818;stroke-width:0.5;" width="109.7246" x="150.0747" y="288.2031"/><text fill="#000000" font-family="sans-serif" font-size="12" lengthAdjust="spacing" textLength="89.7246" x="160.0747" y="309.3418">Calculate price</text><rect fill="#F1F1F1" height="33.9688" rx="12.5" ry="12.5" style="stroke:#181818;stroke-width:0.5;" width="169.4375" x="120.2183" y="342.1719"/><text fill="#000000" font-family="sans-serif" font-size="12" lengthAdjust="spacing" textLength="149.4375" x="130.2183" y="363.3105">Show estimate summary</text><polygon fill="#F1F1F1" points="134.8442,396.1406,275.0298,396.1406,287.0298,408.1406,275.0298,420.1406,134.8442,420.1406,122.8442,408.1406,134.8442,396.1406" style="stroke:#181818;stroke-width:0.5;"/><text fill="#000000" font-family="sans-serif" font-size="11" lengthAdjust="spacing" textLength="140.1855" x="134.8442" y="411.9487">Customer finishes quote?</text><text fill="#000000" font-family="sans-serif" font-size="11" lengthAdjust="spacing" textLength="19.0083" x="103.8359" y="405.5464">yes</text><text fill="#000000" font-family="sans-serif" font-size="11" lengthAdjust="spacing" textLength="13.7017" x="287.0298" y="405.5464">no</text><rect fill="#F1F1F1" height="33.9688" rx="12.5" ry="12.5" style="stroke:#181818;stroke-width:0.5;" width="183.9453" x="16" y="430.1406"/><text fill="#000000" font-family="sans-serif" font-size="12" lengthAdjust="spacing" textLength="163.9453" x="26" y="451.2793">Build estimate order model</text><rect fill="#F1F1F1" height="33.9688" rx="12.5" ry="12.5" style="stroke:#181818;stroke-width:0.5;" width="159.8574" x="28.0439" y="484.1094"/><text fill="#000000" font-family="sans-serif" font-size="12" lengthAdjust="spacing" textLength="139.8574" x="38.0439" y="505.248">Generate estimate PDF</text><rect fill="#F1F1F1" height="33.9688" rx="12.5" ry="12.5" style="stroke:#181818;stroke-width:0.5;" width="176.0059" x="19.9697" y="538.0781"/><text fill="#000000" font-family="sans-serif" font-size="12" lengthAdjust="spacing" textLength="156.0059" x="29.9697" y="559.2168">Send quotation document</text><ellipse cx="107.9727" cy="603.0469" fill="none" rx="11" ry="11" style="stroke:#222222;stroke-width:1;"/><ellipse cx="107.9727" cy="603.0469" fill="#222222" rx="6" ry="6" style="stroke:#222222;stroke-width:1;"/><rect fill="#F1F1F1" height="33.9688" rx="12.5" ry="12.5" style="stroke:#181818;stroke-width:0.5;" width="163.9121" x="219.9453" y="430.1406"/><text fill="#000000" font-family="sans-serif" font-size="12" lengthAdjust="spacing" textLength="143.9121" x="229.9453" y="451.2793">Continue quotation flow</text><ellipse cx="301.9014" cy="495.1094" fill="none" rx="11" ry="11" style="stroke:#222222;stroke-width:1;"/><ellipse cx="301.9014" cy="495.1094" fill="#222222" rx="6" ry="6" style="stroke:#222222;stroke-width:1;"/><rect fill="#F1F1F1" height="33.9688" rx="12.5" ry="12.5" style="stroke:#181818;stroke-width:0.5;" width="179.8262" x="413.8574" y="288.2031"/><text fill="#000000" font-family="sans-serif" font-size="12" lengthAdjust="spacing" textLength="159.8262" x="423.8574" y="309.3418">Prompt for corrected input</text><ellipse cx="503.7705" cy="353.1719" fill="none" rx="11" ry="11" style="stroke:#222222;stroke-width:1;"/><ellipse cx="503.7705" cy="353.1719" fill="#222222" rx="6" ry="6" style="stroke:#222222;stroke-width:1;"/><line style="stroke:#181818;stroke-width:1;" x1="354.3538" x2="354.3538" y1="72.2969" y2="92.2969"/><polygon fill="#181818" points="350.3538,82.2969,354.3538,92.2969,358.3538,82.2969,354.3538,86.2969" style="stroke:#181818;stroke-width:1;"/><line style="stroke:#181818;stroke-width:1;" x1="354.3538" x2="354.3538" y1="126.2656" y2="146.2656"/><polygon fill="#181818" points="350.3538,136.2656,354.3538,146.2656,358.3538,136.2656,354.3538,140.2656" style="stroke:#181818;stroke-width:1;"/><line style="stroke:#181818;stroke-width:1;" x1="354.3538" x2="354.3538" y1="180.2344" y2="200.2344"/><polygon fill="#181818" points="350.3538,190.2344,354.3538,200.2344,358.3538,190.2344,354.3538,194.2344" style="stroke:#181818;stroke-width:1;"/><line style="stroke:#181818;stroke-width:1;" x1="204.937" x2="204.937" y1="322.1719" y2="342.1719"/><polygon fill="#181818" points="200.937,332.1719,204.937,342.1719,208.937,332.1719,204.937,336.1719" style="stroke:#181818;stroke-width:1;"/><line style="stroke:#181818;stroke-width:1;" x1="107.9727" x2="107.9727" y1="464.1094" y2="484.1094"/><polygon fill="#181818" points="103.9727,474.1094,107.9727,484.1094,111.9727,474.1094,107.9727,478.1094" style="stroke:#181818;stroke-width:1;"/><line style="stroke:#181818;stroke-width:1;" x1="107.9727" x2="107.9727" y1="518.0781" y2="538.0781"/><polygon fill="#181818" points="103.9727,528.0781,107.9727,538.0781,111.9727,528.0781,107.9727,532.0781" style="stroke:#181818;stroke-width:1;"/><line style="stroke:#181818;stroke-width:1;" x1="107.9727" x2="107.9727" y1="572.0469" y2="592.0469"/><polygon fill="#181818" points="103.9727,582.0469,107.9727,592.0469,111.9727,582.0469,107.9727,586.0469" style="stroke:#181818;stroke-width:1;"/><line style="stroke:#181818;stroke-width:1;" x1="301.9014" x2="301.9014" y1="464.1094" y2="484.1094"/><polygon fill="#181818" points="297.9014,474.1094,301.9014,484.1094,305.9014,474.1094,301.9014,478.1094" style="stroke:#181818;stroke-width:1;"/><line style="stroke:#181818;stroke-width:1;" x1="122.8442" x2="107.9727" y1="408.1406" y2="408.1406"/><line style="stroke:#181818;stroke-width:1;" x1="107.9727" x2="107.9727" y1="408.1406" y2="430.1406"/><polygon fill="#181818" points="103.9727,420.1406,107.9727,430.1406,111.9727,420.1406,107.9727,424.1406" style="stroke:#181818;stroke-width:1;"/><line style="stroke:#181818;stroke-width:1;" x1="287.0298" x2="301.9014" y1="408.1406" y2="408.1406"/><line style="stroke:#181818;stroke-width:1;" x1="301.9014" x2="301.9014" y1="408.1406" y2="430.1406"/><polygon fill="#181818" points="297.9014,420.1406,301.9014,430.1406,305.9014,420.1406,301.9014,424.1406" style="stroke:#181818;stroke-width:1;"/><line style="stroke:#181818;stroke-width:1;" x1="204.937" x2="204.937" y1="376.1406" y2="396.1406"/><polygon fill="#181818" points="200.937,386.1406,204.937,396.1406,208.937,386.1406,204.937,390.1406" style="stroke:#181818;stroke-width:1;"/><line style="stroke:#181818;stroke-width:1;" x1="503.7705" x2="503.7705" y1="322.1719" y2="342.1719"/><polygon fill="#181818" points="499.7705,332.1719,503.7705,342.1719,507.7705,332.1719,503.7705,336.1719" style="stroke:#181818;stroke-width:1;"/><line style="stroke:#181818;stroke-width:1;" x1="310.2722" x2="204.937" y1="266.2031" y2="266.2031"/><line style="stroke:#181818;stroke-width:1;" x1="204.937" x2="204.937" y1="266.2031" y2="288.2031"/><polygon fill="#181818" points="200.937,278.2031,204.937,288.2031,208.937,278.2031,204.937,282.2031" style="stroke:#181818;stroke-width:1;"/><line style="stroke:#181818;stroke-width:1;" x1="398.4353" x2="503.7705" y1="266.2031" y2="266.2031"/><line style="stroke:#181818;stroke-width:1;" x1="503.7705" x2="503.7705" y1="266.2031" y2="288.2031"/><polygon fill="#181818" points="499.7705,278.2031,503.7705,288.2031,507.7705,278.2031,503.7705,282.2031" style="stroke:#181818;stroke-width:1;"/><line style="stroke:#181818;stroke-width:1;" x1="354.3538" x2="354.3538" y1="234.2031" y2="254.2031"/><polygon fill="#181818" points="350.3538,244.2031,354.3538,254.2031,358.3538,244.2031,354.3538,248.2031" style="stroke:#181818;stroke-width:1;"/><?plantuml-src NL0nRiCm3Dpr2ex9rDqUYZPfWsvf_G91eXC2acXBb0F_lbGIf44d2JpU7U-4923yu5on27nN5Yl42TwSq4AomfxiATjeJ16RnNIxMeGZPk09Ku43ioyl0-Q571OO0rzwqmqOq0bCcNtLrrd14-SLRF90Wb5NFfAeYAUeAcfOW3FCrIPHqzxG29klD5M1nGRohrkGCoROh5Ys1g3RsU1gK5drKEE-pOOpNq1JK6ppKcEqUMr84tkSFLAYSjPJPysA_uLLvhrIy7ywdBso8diC_MtXW0bpWnuxn_td7HjG4ywF5ZsxgW7bXke5atum58HDuhlVZZLpglX4kxNuJ4cUHlDCx8wPuoGmQcsESzQwKRjjbJNcbNTb_G80?></g></svg>