<svg xmlns="http://www.w3.org/2000/svg" xmlns:xlink="http://www.w3.org/1999/xlink" contentStyleType="text/css" data-diagram-type="ACTIVITY" height="384px" preserveAspectRatio="none" style="width:531px;height:384px;background:#FFFFFF;" version="1.1" viewBox="0 0 531 384" width="531px" zoomAndPan="magnify"><?plantuml 1.2026.3beta6?><defs/><g><g class="title" data-source-line="1"><text fill="#000000" font-family="sans-serif" font-size="14" font-weight="700" lengthAdjust="spacing" textLength="272.6104" x="128.5552" y="32.9951">Retrieve Booking Activity Diagram</text></g><ellipse cx="246.7876" cy="62.2969" fill="#222222" rx="10" ry="10" style="stroke:#222222;stroke-width:1;"/><rect fill="#F1F1F1" height="33.9688" rx="12.5" ry="12.5" style="stroke:#181818;stroke-width:0.5;" width="230.9082" x="131.3335" y="92.2969"/><text fill="#000000" font-family="sans-serif" font-size="12" lengthAdjust="spacing" textLength="210.9082" x="141.3335" y="113.4355">Customer selects "Manage Orders"</text><rect fill="#F1F1F1" height="33.9688" rx="12.5" ry="12.5" style="stroke:#181818;stroke-width:0.5;" width="251.1816" x="121.1968" y="146.2656"/><text fill="#000000" font-family="sans-serif" font-size="12" lengthAdjust="spacing" textLength="231.1816" x="131.1968" y="167.4043">Load orders for current phone number</text><rect fill="#F1F1F1" height="33.9688" rx="12.5" ry="12.5" style="stroke:#181818;stroke-width:0.5;" width="148.7539" x="172.4106" y="200.2344"/><text fill="#000000" font-family="sans-serif" font-size="12" lengthAdjust="spacing" textLength="128.7539" x="182.4106" y="221.373">Filter active bookings</text><polygon fill="#F1F1F1" points="188.3743,254.2031,305.2009,254.2031,317.2009,266.2031,305.2009,278.2031,188.3743,278.2031,176.3743,266.2031,188.3743,254.2031" style="stroke:#181818;stroke-width:0.5;"/><text fill="#000000" font-family="sans-serif" font-size="11" lengthAdjust="spacing" textLength="116.8267" x="188.3743" y="270.0112">Any active bookings?</text><text fill="#000000" font-family="sans-serif" font-size="11" lengthAdjust="spacing" textLength="19.0083" x="157.366" y="263.6089">yes</text><text fill="#000000" font-family="sans-serif" font-size="11" lengthAdjust="spacing" textLength="13.7017" x="317.2009" y="263.6089">no</text><rect fill="#F1F1F1" height="33.9688" rx="12.5" ry="12.5" style="stroke:#181818;stroke-width:0.5;" width="203.7148" x="16" y="288.2031"/><text fill="#000000" font-family="sans-serif" font-size="12" lengthAdjust="spacing" textLength="183.7148" x="26" y="309.3418">Present selectable booking list</text><ellipse cx="117.8574" cy="353.1719" fill="none" rx="11" ry="11" style="stroke:#222222;stroke-width:1;"/><ellipse cx="117.8574" cy="353.1719" fill="#222222" rx="6" ry="6" style="stroke:#222222;stroke-width:1;"/><rect fill="#F1F1F1" height="33.9688" rx="12.5" ry="12.5" style="stroke:#181818;stroke-width:0.5;" width="272.0059" x="239.7148" y="288.2031"/><text fill="#000000" font-family="sans-serif" font-size="12" lengthAdjust="spacing" textLength="252.0059" x="249.7148" y="309.3418">Show "No upcoming appointments found"</text><ellipse cx="375.7178" cy="353.1719" fill="none" rx="11" ry="11" style="stroke:#222222;stroke-width:1;"/><ellipse cx="375.7178" cy="353.1719" fill="#222222" rx="6" ry="6" style="stroke:#222222;stroke-width:1;"/><line style="stroke:#181818;stroke-width:1;" x1="246.7876" x2="246.7876" y1="72.2969" y2="92.2969"/><polygon fill="#181818" points="242.7876,82.2969,246.7876,92.2969,250.7876,82.2969,246.7876,86.2969" style="stroke:#181818;stroke-width:1;"/><line style="stroke:#181818;stroke-width:1;" x1="246.7876" x2="246.7876" y1="126.2656" y2="146.2656"/><polygon fill="#181818" points="242.7876,136.2656,246.7876,146.2656,250.7876,136.2656,246.7876,140.2656" style="stroke:#181818;stroke-width:1;"/><line style="stroke:#181818;stroke-width:1;" x1="246.7876" x2="246.7876" y1="180.2344" y2="200.2344"/><polygon fill="#181818" points="242.7876,190.2344,246.7876,200.2344,250.7876,190.2344,246.7876,194.2344" style="stroke:#181818;stroke-width:1;"/><line style="stroke:#181818;stroke-width:1;" x1="117.8574" x2="117.8574" y1="322.1719" y2="342.1719"/><polygon fill="#181818" points="113.8574,332.1719,117.8574,342.1719,121.8574,332.1719,117.8574,336.1719" style="stroke:#181818;stroke-width:1;"/><line style="stroke:#181818;stroke-width:1;" x1="375.7178" x2="375.7178" y1="322.1719" y2="342.1719"/><polygon fill="#181818" points="371.7178,332.1719,375.7178,342.1719,379.7178,332.1719,375.7178,336.1719" style="stroke:#181818;stroke-width:1;"/><line style="stroke:#181818;stroke-width:1;" x1="176.3743" x2="117.8574" y1="266.2031" y2="266.2031"/><line style="stroke:#181818;stroke-width:1;" x1="117.8574" x2="117.8574" y1="266.2031" y2="288.2031"/><polygon fill="#181818" points="113.8574,278.2031,117.8574,288.2031,121.8574,278.2031,117.8574,282.2031" style="stroke:#181818;stroke-width:1;"/><line style="stroke:#181818;stroke-width:1;" x1="317.2009" x2="375.7178" y1="266.2031" y2="266.2031"/><line style="stroke:#181818;stroke-width:1;" x1="375.7178" x2="375.7178" y1="266.2031" y2="288.2031"/><polygon fill="#181818" points="371.7178,278.2031,375.7178,288.2031,379.7178,278.2031,375.7178,282.2031" style="stroke:#181818;stroke-width:1;"/><line style="stroke:#181818;stroke-width:1;" x1="246.7876" x2="246.7876" y1="234.2031" y2="254.2031"/><polygon fill="#181818" points="242.7876,244.2031,246.7876,254.2031,250.7876,244.2031,246.7876,248.2031" style="stroke:#181818;stroke-width:1;"/><?plantuml-src NOvBReH034JtVOeIA-OAi8WcYRBAJya96Z1WfTj6RZCHjm_CI8cKfULNLS_P4-63t9WkX7lLBvO9vzxvmhxXaUDaCOTGF9g7vc4jhfaCXHBrNb2zH8aJuSq6ibAreNdME42l9qOrzAiPYMEPLGYovevinvuu-TuJZoL2TnikRU0HzLcs_u-x4tmcGRrHEGMWUJSgH-rD97RfbqNYuktExAfBe5G8jUWrz3dhDwfNnRhqcWysBekoUDwh3jrLXkelAWEFFm00?></g></svg>