<svg xmlns="http://www.w3.org/2000/svg" xmlns:xlink="http://www.w3.org/1999/xlink" contentStyleType="text/css" data-diagram-type="ACTIVITY" height="722px" preserveAspectRatio="none" style="width:1028px;height:722px;background:#FFFFFF;" version="1.1" viewBox="0 0 1028 722" width="1028px" zoomAndPan="magnify"><?plantuml 1.2026.3beta6?><defs/><g><g class="title" data-source-line="1"><text fill="#000000" font-family="sans-serif" font-size="14" font-weight="700" lengthAdjust="spacing" textLength="316.6406" x="354.7334" y="32.9951">Schedule Appointment Activity Diagram</text></g><ellipse cx="658.3756" cy="62.2969" fill="#222222" rx="10" ry="10" style="stroke:#222222;stroke-width:1;"/><rect fill="#F1F1F1" height="33.9688" rx="12.5" ry="12.5" style="stroke:#181818;stroke-width:0.5;" width="230.9082" x="542.9215" y="92.2969"/><text fill="#000000" font-family="sans-serif" font-size="12" lengthAdjust="spacing" textLength="210.9082" x="552.9215" y="113.4355">Customer selects "Manage Orders"</text><rect fill="#F1F1F1" height="33.9688" rx="12.5" ry="12.5" style="stroke:#181818;stroke-width:0.5;" width="175.0039" x="570.8737" y="146.2656"/><text fill="#000000" font-family="sans-serif" font-size="12" lengthAdjust="spacing" textLength="155.0039" x="580.8737" y="167.4043">System lists active orders</text><polygon fill="#F1F1F1" points="609.9767,200.2344,706.7745,200.2344,718.7745,212.2344,706.7745,224.2344,609.9767,224.2344,597.9767,212.2344,609.9767,200.2344" style="stroke:#181818;stroke-width:0.5;"/><text fill="#000000" font-family="sans-serif" font-size="11" lengthAdjust="spacing" textLength="96.7979" x="609.9767" y="216.0425">Any active order?</text><text fill="#000000" font-family="sans-serif" font-size="11" lengthAdjust="spacing" textLength="19.0083" x="578.9684" y="209.6401">yes</text><text fill="#000000" font-family="sans-serif" font-size="11" lengthAdjust="spacing" textLength="13.7017" x="718.7745" y="209.6401">no</text><rect fill="#F1F1F1" height="33.9688" rx="12.5" ry="12.5" style="stroke:#181818;stroke-width:0.5;" width="178.8066" x="355.2434" y="234.2344"/><text fill="#000000" font-family="sans-serif" font-size="12" lengthAdjust="spacing" textLength="158.8066" x="365.2434" y="255.373">Customer selects an order</text><rect fill="#F1F1F1" height="33.9688" rx="12.5" ry="12.5" style="stroke:#181818;stroke-width:0.5;" width="259.0391" x="315.1272" y="288.2031"/><text fill="#000000" font-family="sans-serif" font-size="12" lengthAdjust="spacing" textLength="239.0391" x="325.1272" y="309.3418">System shows order details and actions</text><rect fill="#F1F1F1" height="33.9688" rx="12.5" ry="12.5" style="stroke:#181818;stroke-width:0.5;" width="215.2285" x="337.0325" y="342.1719"/><text fill="#000000" font-family="sans-serif" font-size="12" lengthAdjust="spacing" textLength="195.2285" x="347.0325" y="363.3105">Customer chooses "Reschedule"</text><rect fill="#F1F1F1" height="33.9688" rx="12.5" ry="12.5" style="stroke:#181818;stroke-width:0.5;" width="143.3281" x="372.9827" y="396.1406"/><text fill="#000000" font-family="sans-serif" font-size="12" lengthAdjust="spacing" textLength="123.3281" x="382.9827" y="417.2793">Prompt for new date</text><polygon fill="#F1F1F1" points="413.8972,450.1094,475.3962,450.1094,487.3962,462.1094,475.3962,474.1094,413.8972,474.1094,401.8972,462.1094,413.8972,450.1094" style="stroke:#181818;stroke-width:0.5;"/><text fill="#000000" font-family="sans-serif" font-size="11" lengthAdjust="spacing" textLength="61.499" x="413.8972" y="465.9175">Valid date?</text><text fill="#000000" font-family="sans-serif" font-size="11" lengthAdjust="spacing" textLength="19.0083" x="382.8889" y="459.5151">yes</text><text fill="#000000" font-family="sans-serif" font-size="11" lengthAdjust="spacing" textLength="13.7017" x="487.3962" y="459.5151">no</text><rect fill="#F1F1F1" height="33.9688" rx="12.5" ry="12.5" style="stroke:#181818;stroke-width:0.5;" width="143.3809" x="203.7466" y="484.1094"/><text fill="#000000" font-family="sans-serif" font-size="12" lengthAdjust="spacing" textLength="123.3809" x="213.7466" y="505.248">Prompt for new time</text><polygon fill="#F1F1F1" points="244.6633,538.0781,306.2107,538.0781,318.2107,550.0781,306.2107,562.0781,244.6633,562.0781,232.6633,550.0781,244.6633,538.0781" style="stroke:#181818;stroke-width:0.5;"/><text fill="#000000" font-family="sans-serif" font-size="11" lengthAdjust="spacing" textLength="61.5474" x="244.6633" y="553.8862">Valid time?</text><text fill="#000000" font-family="sans-serif" font-size="11" lengthAdjust="spacing" textLength="19.0083" x="213.655" y="547.4839">yes</text><text fill="#000000" font-family="sans-serif" font-size="11" lengthAdjust="spacing" textLength="13.7017" x="318.2107" y="547.4839">no</text><rect fill="#F1F1F1" height="33.9688" rx="12.5" ry="12.5" style="stroke:#181818;stroke-width:0.5;" width="271.0684" x="16" y="572.0781"/><text fill="#000000" font-family="sans-serif" font-size="12" lengthAdjust="spacing" textLength="251.0684" x="26" y="593.2168">Update scheduledDate and scheduleTime</text><rect fill="#F1F1F1" height="33.9688" rx="12.5" ry="12.5" style="stroke:#181818;stroke-width:0.5;" width="187.8477" x="57.6104" y="626.0469"/><text fill="#000000" font-family="sans-serif" font-size="12" lengthAdjust="spacing" textLength="167.8477" x="67.6104" y="647.1855">Send confirmation message</text><ellipse cx="151.5342" cy="691.0156" fill="none" rx="11" ry="11" style="stroke:#222222;stroke-width:1;"/><ellipse cx="151.5342" cy="691.0156" fill="#222222" rx="6" ry="6" style="stroke:#222222;stroke-width:1;"/><rect fill="#F1F1F1" height="33.9688" rx="12.5" ry="12.5" style="stroke:#181818;stroke-width:0.5;" width="184.543" x="307.0684" y="572.0781"/><text fill="#000000" font-family="sans-serif" font-size="12" lengthAdjust="spacing" textLength="164.543" x="317.0684" y="593.2168">Show invalid time message</text><ellipse cx="399.3398" cy="637.0469" fill="none" rx="11" ry="11" style="stroke:#222222;stroke-width:1;"/><ellipse cx="399.3398" cy="637.0469" fill="#222222" rx="6" ry="6" style="stroke:#222222;stroke-width:1;"/><rect fill="#F1F1F1" height="33.9688" rx="12.5" ry="12.5" style="stroke:#181818;stroke-width:0.5;" width="184.4902" x="521.6113" y="484.1094"/><text fill="#000000" font-family="sans-serif" font-size="12" lengthAdjust="spacing" textLength="164.4902" x="531.6113" y="505.248">Show invalid date message</text><ellipse cx="613.8564" cy="549.0781" fill="none" rx="11" ry="11" style="stroke:#222222;stroke-width:1;"/><ellipse cx="613.8564" cy="549.0781" fill="#222222" rx="6" ry="6" style="stroke:#222222;stroke-width:1;"/><rect fill="#F1F1F1" height="33.9688" rx="12.5" ry="12.5" style="stroke:#181818;stroke-width:0.5;" width="272.0059" x="736.1016" y="234.2344"/><text fill="#000000" font-family="sans-serif" font-size="12" lengthAdjust="spacing" textLength="252.0059" x="746.1016" y="255.373">Show "No upcoming appointments found"</text><ellipse cx="872.1045" cy="299.2031" fill="none" rx="11" ry="11" style="stroke:#222222;stroke-width:1;"/><ellipse cx="872.1045" cy="299.2031" fill="#222222" rx="6" ry="6" style="stroke:#222222;stroke-width:1;"/><line style="stroke:#181818;stroke-width:1;" x1="658.3756" x2="658.3756" y1="72.2969" y2="92.2969"/><polygon fill="#181818" points="654.3756,82.2969,658.3756,92.2969,662.3756,82.2969,658.3756,86.2969" style="stroke:#181818;stroke-width:1;"/><line style="stroke:#181818;stroke-width:1;" x1="658.3756" x2="658.3756" y1="126.2656" y2="146.2656"/><polygon fill="#181818" points="654.3756,136.2656,658.3756,146.2656,662.3756,136.2656,658.3756,140.2656" style="stroke:#181818;stroke-width:1;"/><line style="stroke:#181818;stroke-width:1;" x1="444.6467" x2="444.6467" y1="268.2031" y2="288.2031"/><polygon fill="#181818" points="440.6467,278.2031,444.6467,288.2031,448.6467,278.2031,444.6467,282.2031" style="stroke:#181818;stroke-width:1;"/><line style="stroke:#181818;stroke-width:1;" x1="444.6467" x2="444.6467" y1="322.1719" y2="342.1719"/><polygon fill="#181818" points="440.6467,332.1719,444.6467,342.1719,448.6467,332.1719,444.6467,336.1719" style="stroke:#181818;stroke-width:1;"/><line style="stroke:#181818;stroke-width:1;" x1="444.6467" x2="444.6467" y1="376.1406" y2="396.1406"/><polygon fill="#181818" points="440.6467,386.1406,444.6467,396.1406,448.6467,386.1406,444.6467,390.1406" style="stroke:#181818;stroke-width:1;"/><line style="stroke:#181818;stroke-width:1;" x1="151.5342" x2="151.5342" y1="606.0469" y2="626.0469"/><polygon fill="#181818" points="147.5342,616.0469,151.5342,626.0469,155.5342,616.0469,151.5342,620.0469" style="stroke:#181818;stroke-width:1;"/><line style="stroke:#181818;stroke-width:1;" x1="151.5342" x2="151.5342" y1="660.0156" y2="680.0156"/><polygon fill="#181818" points="147.5342,670.0156,151.5342,680.0156,155.5342,670.0156,151.5342,674.0156" style="stroke:#181818;stroke-width:1;"/><line style="stroke:#181818;stroke-width:1;" x1="399.3398" x2="399.3398" y1="606.0469" y2="626.0469"/><polygon fill="#181818" points="395.3398,616.0469,399.3398,626.0469,403.3398,616.0469,399.3398,620.0469" style="stroke:#181818;stroke-width:1;"/><line style="stroke:#181818;stroke-width:1;" x1="232.6633" x2="151.5342" y1="550.0781" y2="550.0781"/><line style="stroke:#181818;stroke-width:1;" x1="151.5342" x2="151.5342" y1="550.0781" y2="572.0781"/><polygon fill="#181818" points="147.5342,562.0781,151.5342,572.0781,155.5342,562.0781,151.5342,566.0781" style="stroke:#181818;stroke-width:1;"/><line style="stroke:#181818;stroke-width:1;" x1="318.2107" x2="399.3398" y1="550.0781" y2="550.0781"/><line style="stroke:#181818;stroke-width:1;" x1="399.3398" x2="399.3398" y1="550.0781" y2="572.0781"/><polygon fill="#181818" points="395.3398,562.0781,399.3398,572.0781,403.3398,562.0781,399.3398,566.0781" style="stroke:#181818;stroke-width:1;"/><line style="stroke:#181818;stroke-width:1;" x1="275.437" x2="275.437" y1="518.0781" y2="538.0781"/><polygon fill="#181818" points="271.437,528.0781,275.437,538.0781,279.437,528.0781,275.437,532.0781" style="stroke:#181818;stroke-width:1;"/><line style="stroke:#181818;stroke-width:1;" x1="613.8564" x2="613.8564" y1="518.0781" y2="538.0781"/><polygon fill="#181818" points="609.8564,528.0781,613.8564,538.0781,617.8564,528.0781,613.8564,532.0781" style="stroke:#181818;stroke-width:1;"/><line style="stroke:#181818;stroke-width:1;" x1="401.8972" x2="275.437" y1="462.1094" y2="462.1094"/><line style="stroke:#181818;stroke-width:1;" x1="275.437" x2="275.437" y1="462.1094" y2="484.1094"/><polygon fill="#181818" points="271.437,474.1094,275.437,484.1094,279.437,474.1094,275.437,478.1094" style="stroke:#181818;stroke-width:1;"/><line style="stroke:#181818;stroke-width:1;" x1="487.3962" x2="613.8564" y1="462.1094" y2="462.1094"/><line style="stroke:#181818;stroke-width:1;" x1="613.8564" x2="613.8564" y1="462.1094" y2="484.1094"/><polygon fill="#181818" points="609.8564,474.1094,613.8564,484.1094,617.8564,474.1094,613.8564,478.1094" style="stroke:#181818;stroke-width:1;"/><line style="stroke:#181818;stroke-width:1;" x1="444.6467" x2="444.6467" y1="430.1094" y2="450.1094"/><polygon fill="#181818" points="440.6467,440.1094,444.6467,450.1094,448.6467,440.1094,444.6467,444.1094" style="stroke:#181818;stroke-width:1;"/><line style="stroke:#181818;stroke-width:1;" x1="872.1045" x2="872.1045" y1="268.2031" y2="288.2031"/><polygon fill="#181818" points="868.1045,278.2031,872.1045,288.2031,876.1045,278.2031,872.1045,282.2031" style="stroke:#181818;stroke-width:1;"/><line style="stroke:#181818;stroke-width:1;" x1="597.9767" x2="444.6467" y1="212.2344" y2="212.2344"/><line style="stroke:#181818;stroke-width:1;" x1="444.6467" x2="444.6467" y1="212.2344" y2="234.2344"/><polygon fill="#181818" points="440.6467,224.2344,444.6467,234.2344,448.6467,224.2344,444.6467,228.2344" style="stroke:#181818;stroke-width:1;"/><line style="stroke:#181818;stroke-width:1;" x1="718.7745" x2="872.1045" y1="212.2344" y2="212.2344"/><line style="stroke:#181818;stroke-width:1;" x1="872.1045" x2="872.1045" y1="212.2344" y2="234.2344"/><polygon fill="#181818" points="868.1045,224.2344,872.1045,234.2344,876.1045,224.2344,872.1045,228.2344" style="stroke:#181818;stroke-width:1;"/><line style="stroke:#181818;stroke-width:1;" x1="658.3756" x2="658.3756" y1="180.2344" y2="200.2344"/><polygon fill="#181818" points="654.3756,190.2344,658.3756,200.2344,662.3756,190.2344,658.3756,194.2344" style="stroke:#181818;stroke-width:1;"/><?plantuml-src TPBFRi8m3CRlUGgh9tW5UfZGkEwFODizQbnggN6gs0NrxPUam2Xej-Iplry-krNI7k7GTEZ6TDWEGo1MZwomRPHEf1Fio1wZzSQ8sgXcypgA1eyH17jiLA1wisoF21_HOPIgDfl398eUUf9KjXc444grDjJ2QilJGdvPWtR8i9fGrWRW-GtBSsUTgnUyTE4iimmErLAV-rmX1vPw0Mgw40HJs3tAPTogT7p6u0U5DaHWF8EpYbdFCNziJwueZm6VVKg--EwTMNjs9k_taA5m3U9s-PQZNvMl6osFYwdI16ufUfj70uyYQUFNZZJYK8xO2yAAm-sXGreH49zkSVwtigFMF2AMW19w0RZOP_EzTJPMxm76eGcU-0Zsx-UIjBQHNVa01L40lm00?></g></svg>