<svg xmlns="http://www.w3.org/2000/svg" xmlns:xlink="http://www.w3.org/1999/xlink" contentStyleType="text/css" data-diagram-type="ACTIVITY" height="418px" preserveAspectRatio="none" style="width:586px;height:418px;background:#FFFFFF;" version="1.1" viewBox="0 0 586 418" width="586px" zoomAndPan="magnify"><?plantuml 1.2026.3beta6?><defs/><g><g class="title" data-source-line="1"><text fill="#000000" font-family="sans-serif" font-size="14" font-weight="700" lengthAdjust="spacing" textLength="353.4385" x="115.6021" y="32.9951">Send Proactive Notification Activity Diagram</text></g><ellipse cx="342.8203" cy="62.2969" fill="#222222" rx="10" ry="10" style="stroke:#222222;stroke-width:1;"/><rect fill="#F1F1F1" height="33.9688" rx="12.5" ry="12.5" style="stroke:#181818;stroke-width:0.5;" width="232.9531" x="226.3438" y="92.2969"/><text fill="#000000" font-family="sans-serif" font-size="12" lengthAdjust="spacing" textLength="212.9531" x="236.3438" y="113.4355">Administrator changes order status</text><rect fill="#F1F1F1" height="33.9688" rx="12.5" ry="12.5" style="stroke:#181818;stroke-width:0.5;" width="143.8555" x="270.8926" y="146.2656"/><text fill="#000000" font-family="sans-serif" font-size="12" lengthAdjust="spacing" textLength="123.8555" x="280.8926" y="167.4043">Save updated status</text><polygon fill="#F1F1F1" points="296.8948,200.2344,388.7458,200.2344,400.7458,212.2344,388.7458,224.2344,296.8948,224.2344,284.8948,212.2344,296.8948,200.2344" style="stroke:#181818;stroke-width:0.5;"/><text fill="#000000" font-family="sans-serif" font-size="11" lengthAdjust="spacing" textLength="91.8511" x="296.8948" y="216.0425">Status changed?</text><text fill="#000000" font-family="sans-serif" font-size="11" lengthAdjust="spacing" textLength="19.0083" x="265.8865" y="209.6401">yes</text><text fill="#000000" font-family="sans-serif" font-size="11" lengthAdjust="spacing" textLength="13.7017" x="400.7458" y="209.6401">no</text><rect fill="#F1F1F1" height="33.9688" rx="12.5" ry="12.5" style="stroke:#181818;stroke-width:0.5;" width="221.0879" x="90.4629" y="234.2344"/><text fill="#000000" font-family="sans-serif" font-size="12" lengthAdjust="spacing" textLength="201.0879" x="100.4629" y="255.373">Generate status-update message</text><polygon fill="#F1F1F1" points="143.4529,288.2031,258.5608,288.2031,270.5608,300.2031,258.5608,312.2031,143.4529,312.2031,131.4529,300.2031,143.4529,288.2031" style="stroke:#181818;stroke-width:0.5;"/><text fill="#000000" font-family="sans-serif" font-size="11" lengthAdjust="spacing" textLength="115.1079" x="143.4529" y="304.0112">WhatsApp available?</text><text fill="#000000" font-family="sans-serif" font-size="11" lengthAdjust="spacing" textLength="19.0083" x="112.4446" y="297.6089">yes</text><text fill="#000000" font-family="sans-serif" font-size="11" lengthAdjust="spacing" textLength="13.7017" x="270.5608" y="297.6089">no</text><rect fill="#F1F1F1" height="33.9688" rx="12.5" ry="12.5" style="stroke:#181818;stroke-width:0.5;" width="181.7012" x="16" y="322.2031"/><text fill="#000000" font-family="sans-serif" font-size="12" lengthAdjust="spacing" textLength="161.7012" x="26" y="343.3418">Send proactive notification</text><ellipse cx="106.8506" cy="387.1719" fill="none" rx="11" ry="11" style="stroke:#222222;stroke-width:1;"/><ellipse cx="106.8506" cy="387.1719" fill="#222222" rx="6" ry="6" style="stroke:#222222;stroke-width:1;"/><rect fill="#F1F1F1" height="33.9688" rx="12.5" ry="12.5" style="stroke:#181818;stroke-width:0.5;" width="154.9238" x="217.7012" y="322.2031"/><text fill="#000000" font-family="sans-serif" font-size="12" lengthAdjust="spacing" textLength="134.9238" x="227.7012" y="343.3418">Log notification failure</text><ellipse cx="295.1631" cy="387.1719" fill="none" rx="11" ry="11" style="stroke:#222222;stroke-width:1;"/><ellipse cx="295.1631" cy="387.1719" fill="#222222" rx="6" ry="6" style="stroke:#222222;stroke-width:1;"/><rect fill="#F1F1F1" height="33.9688" rx="12.5" ry="12.5" style="stroke:#181818;stroke-width:0.5;" width="164.0176" x="402.625" y="234.2344"/><text fill="#000000" font-family="sans-serif" font-size="12" lengthAdjust="spacing" textLength="144.0176" x="412.625" y="255.373">Do not send notification</text><ellipse cx="484.6338" cy="299.2031" fill="none" rx="11" ry="11" style="stroke:#222222;stroke-width:1;"/><ellipse cx="484.6338" cy="299.2031" fill="#222222" rx="6" ry="6" style="stroke:#222222;stroke-width:1;"/><line style="stroke:#181818;stroke-width:1;" x1="342.8203" x2="342.8203" y1="72.2969" y2="92.2969"/><polygon fill="#181818" points="338.8203,82.2969,342.8203,92.2969,346.8203,82.2969,342.8203,86.2969" style="stroke:#181818;stroke-width:1;"/><line style="stroke:#181818;stroke-width:1;" x1="342.8203" x2="342.8203" y1="126.2656" y2="146.2656"/><polygon fill="#181818" points="338.8203,136.2656,342.8203,146.2656,346.8203,136.2656,342.8203,140.2656" style="stroke:#181818;stroke-width:1;"/><line style="stroke:#181818;stroke-width:1;" x1="106.8506" x2="106.8506" y1="356.1719" y2="376.1719"/><polygon fill="#181818" points="102.8506,366.1719,106.8506,376.1719,110.8506,366.1719,106.8506,370.1719" style="stroke:#181818;stroke-width:1;"/><line style="stroke:#181818;stroke-width:1;" x1="295.1631" x2="295.1631" y1="356.1719" y2="376.1719"/><polygon fill="#181818" points="291.1631,366.1719,295.1631,376.1719,299.1631,366.1719,295.1631,370.1719" style="stroke:#181818;stroke-width:1;"/><line style="stroke:#181818;stroke-width:1;" x1="131.4529" x2="106.8506" y1="300.2031" y2="300.2031"/><line style="stroke:#181818;stroke-width:1;" x1="106.8506" x2="106.8506" y1="300.2031" y2="322.2031"/><polygon fill="#181818" points="102.8506,312.2031,106.8506,322.2031,110.8506,312.2031,106.8506,316.2031" style="stroke:#181818;stroke-width:1;"/><line style="stroke:#181818;stroke-width:1;" x1="270.5608" x2="295.1631" y1="300.2031" y2="300.2031"/><line style="stroke:#181818;stroke-width:1;" x1="295.1631" x2="295.1631" y1="300.2031" y2="322.2031"/><polygon fill="#181818" points="291.1631,312.2031,295.1631,322.2031,299.1631,312.2031,295.1631,316.2031" style="stroke:#181818;stroke-width:1;"/><line style="stroke:#181818;stroke-width:1;" x1="201.0068" x2="201.0068" y1="268.2031" y2="288.2031"/><polygon fill="#181818" points="197.0068,278.2031,201.0068,288.2031,205.0068,278.2031,201.0068,282.2031" style="stroke:#181818;stroke-width:1;"/><line style="stroke:#181818;stroke-width:1;" x1="484.6338" x2="484.6338" y1="268.2031" y2="288.2031"/><polygon fill="#181818" points="480.6338,278.2031,484.6338,288.2031,488.6338,278.2031,484.6338,282.2031" style="stroke:#181818;stroke-width:1;"/><line style="stroke:#181818;stroke-width:1;" x1="284.8948" x2="201.0068" y1="212.2344" y2="212.2344"/><line style="stroke:#181818;stroke-width:1;" x1="201.0068" x2="201.0068" y1="212.2344" y2="234.2344"/><polygon fill="#181818" points="197.0068,224.2344,201.0068,234.2344,205.0068,224.2344,201.0068,228.2344" style="stroke:#181818;stroke-width:1;"/><line style="stroke:#181818;stroke-width:1;" x1="400.7458" x2="484.6338" y1="212.2344" y2="212.2344"/><line style="stroke:#181818;stroke-width:1;" x1="484.6338" x2="484.6338" y1="212.2344" y2="234.2344"/><polygon fill="#181818" points="480.6338,224.2344,484.6338,234.2344,488.6338,224.2344,484.6338,228.2344" style="stroke:#181818;stroke-width:1;"/><line style="stroke:#181818;stroke-width:1;" x1="342.8203" x2="342.8203" y1="180.2344" y2="200.2344"/><polygon fill="#181818" points="338.8203,190.2344,342.8203,200.2344,346.8203,190.2344,342.8203,194.2344" style="stroke:#181818;stroke-width:1;"/><?plantuml-src NOynYiD034NxEOLAfzWBs4Km1D8i8U0YjTOZsm9xD8paG6w_uua9IJeX_dkVRsmpGKV1mpK9ziPtWeiO3zoZiGHejn_R0qwCOyB5EJLCvkhMBnnOBQ59Wdx2C9A294y9SiHMRLpTOVQjqQEHVtrvWAehzuxvum5ieW3LW_JW0Eep1SfYsfcVfm8MKiMHcXpP9BS9JTiO0U_8C_xDz2tAgZ8kliQ5jt5DIQX9p0VDIb05sR5V6J-oCEIADT4d4pmFxfsiJx9Xe5lhTrUX2lCF?></g></svg>