<svg xmlns="http://www.w3.org/2000/svg" xmlns:xlink="http://www.w3.org/1999/xlink" contentStyleType="text/css" data-diagram-type="ACTIVITY" height="433px" preserveAspectRatio="none" style="width:585px;height:433px;background:#FFFFFF;" version="1.1" viewBox="0 0 585 433" width="585px" zoomAndPan="magnify"><?plantuml 1.2026.3beta6?><defs/><g><g class="title" data-source-line="1"><text fill="#000000" font-family="sans-serif" font-size="14" font-weight="700" lengthAdjust="spacing" textLength="345.1875" x="119.3408" y="32.9951">Send Completion Message Activity Diagram</text></g><ellipse cx="334.3191" cy="62.2969" fill="#222222" rx="10" ry="10" style="stroke:#222222;stroke-width:1;"/><rect fill="#F1F1F1" height="33.9688" rx="12.5" ry="12.5" style="stroke:#181818;stroke-width:0.5;" width="231.0371" x="218.8005" y="92.2969"/><text fill="#000000" font-family="sans-serif" font-size="12" lengthAdjust="spacing" textLength="211.0371" x="228.8005" y="113.4355">Administrator clicks "Notify Ready"</text><rect fill="#F1F1F1" height="33.9688" rx="12.5" ry="12.5" style="stroke:#181818;stroke-width:0.5;" width="195.7051" x="236.4666" y="146.2656"/><text fill="#000000" font-family="sans-serif" font-size="12" lengthAdjust="spacing" textLength="175.7051" x="246.4666" y="167.4043">Send notify request to server</text><polygon fill="#F1F1F1" points="297.8708,200.2344,370.7673,200.2344,382.7673,212.2344,370.7673,224.2344,297.8708,224.2344,285.8708,212.2344,297.8708,200.2344" style="stroke:#181818;stroke-width:0.5;"/><text fill="#000000" font-family="sans-serif" font-size="11" lengthAdjust="spacing" textLength="72.8965" x="297.8708" y="216.0425">Order exists?</text><text fill="#000000" font-family="sans-serif" font-size="11" lengthAdjust="spacing" textLength="19.0083" x="266.8625" y="209.6401">yes</text><text fill="#000000" font-family="sans-serif" font-size="11" lengthAdjust="spacing" textLength="13.7017" x="382.7673" y="209.6401">no</text><polygon fill="#F1F1F1" points="136.9241,234.2344,252.032,234.2344,264.032,246.2344,252.032,258.2344,136.9241,258.2344,124.9241,246.2344,136.9241,234.2344" style="stroke:#181818;stroke-width:0.5;"/><text fill="#000000" font-family="sans-serif" font-size="11" lengthAdjust="spacing" textLength="115.1079" x="136.9241" y="250.0425">WhatsApp available?</text><text fill="#000000" font-family="sans-serif" font-size="11" lengthAdjust="spacing" textLength="19.0083" x="105.9158" y="243.6401">yes</text><text fill="#000000" font-family="sans-serif" font-size="11" lengthAdjust="spacing" textLength="13.7017" x="264.032" y="243.6401">no</text><rect fill="#F1F1F1" height="33.9688" rx="12.5" ry="12.5" style="stroke:#181818;stroke-width:0.5;" width="178.7305" x="16" y="268.2344"/><text fill="#000000" font-family="sans-serif" font-size="12" lengthAdjust="spacing" textLength="158.7305" x="26" y="289.373">Send completion message</text><rect fill="#F1F1F1" height="33.9688" rx="12.5" ry="12.5" style="stroke:#181818;stroke-width:0.5;" width="162.0723" x="24.3291" y="337.2031"/><text fill="#000000" font-family="sans-serif" font-size="12" lengthAdjust="spacing" textLength="142.0723" x="34.3291" y="358.3418">Show success feedback</text><ellipse cx="105.3652" cy="402.1719" fill="none" rx="11" ry="11" style="stroke:#222222;stroke-width:1;"/><ellipse cx="105.3652" cy="402.1719" fill="#222222" rx="6" ry="6" style="stroke:#222222;stroke-width:1;"/><rect fill="#F1F1F1" height="33.9688" rx="12.5" ry="12.5" style="stroke:#181818;stroke-width:0.5;" width="137.7207" x="214.7305" y="268.2344"/><text fill="#000000" font-family="sans-serif" font-size="12" lengthAdjust="spacing" textLength="117.7207" x="224.7305" y="289.373">Show delivery error</text><ellipse cx="283.5908" cy="348.2031" fill="none" rx="11" ry="11" style="stroke:#222222;stroke-width:1;"/><ellipse cx="283.5908" cy="348.2031" fill="#222222" rx="6" ry="6" style="stroke:#222222;stroke-width:1;"/><rect fill="#F1F1F1" height="33.9688" rx="12.5" ry="12.5" style="stroke:#181818;stroke-width:0.5;" width="183.418" x="382.4512" y="234.2344"/><text fill="#000000" font-family="sans-serif" font-size="12" lengthAdjust="spacing" textLength="163.418" x="392.4512" y="255.373">Show order not found error</text><ellipse cx="474.1602" cy="314.2031" fill="none" rx="11" ry="11" style="stroke:#222222;stroke-width:1;"/><ellipse cx="474.1602" cy="314.2031" fill="#222222" rx="6" ry="6" style="stroke:#222222;stroke-width:1;"/><line style="stroke:#181818;stroke-width:1;" x1="334.3191" x2="334.3191" y1="72.2969" y2="92.2969"/><polygon fill="#181818" points="330.3191,82.2969,334.3191,92.2969,338.3191,82.2969,334.3191,86.2969" style="stroke:#181818;stroke-width:1;"/><line style="stroke:#181818;stroke-width:1;" x1="334.3191" x2="334.3191" y1="126.2656" y2="146.2656"/><polygon fill="#181818" points="330.3191,136.2656,334.3191,146.2656,338.3191,136.2656,334.3191,140.2656" style="stroke:#181818;stroke-width:1;"/><line style="stroke:#181818;stroke-width:1;" x1="105.3652" x2="105.3652" y1="302.2031" y2="337.2031"/><polygon fill="#181818" points="101.3652,327.2031,105.3652,337.2031,109.3652,327.2031,105.3652,331.2031" style="stroke:#181818;stroke-width:1;"/><line style="stroke:#181818;stroke-width:1;" x1="105.3652" x2="105.3652" y1="371.1719" y2="391.1719"/><polygon fill="#181818" points="101.3652,381.1719,105.3652,391.1719,109.3652,381.1719,105.3652,385.1719" style="stroke:#181818;stroke-width:1;"/><line style="stroke:#181818;stroke-width:1;" x1="283.5908" x2="283.5908" y1="302.2031" y2="337.2031"/><polygon fill="#181818" points="279.5908,327.2031,283.5908,337.2031,287.5908,327.2031,283.5908,331.2031" style="stroke:#181818;stroke-width:1;"/><line style="stroke:#181818;stroke-width:1;" x1="124.9241" x2="105.3652" y1="246.2344" y2="246.2344"/><line style="stroke:#181818;stroke-width:1;" x1="105.3652" x2="105.3652" y1="246.2344" y2="268.2344"/><polygon fill="#181818" points="101.3652,258.2344,105.3652,268.2344,109.3652,258.2344,105.3652,262.2344" style="stroke:#181818;stroke-width:1;"/><line style="stroke:#181818;stroke-width:1;" x1="264.032" x2="283.5908" y1="246.2344" y2="246.2344"/><line style="stroke:#181818;stroke-width:1;" x1="283.5908" x2="283.5908" y1="246.2344" y2="268.2344"/><polygon fill="#181818" points="279.5908,258.2344,283.5908,268.2344,287.5908,258.2344,283.5908,262.2344" style="stroke:#181818;stroke-width:1;"/><line style="stroke:#181818;stroke-width:1;" x1="474.1602" x2="474.1602" y1="268.2031" y2="303.2031"/><polygon fill="#181818" points="470.1602,293.2031,474.1602,303.2031,478.1602,293.2031,474.1602,297.2031" style="stroke:#181818;stroke-width:1;"/><line style="stroke:#181818;stroke-width:1;" x1="285.8708" x2="194.478" y1="212.2344" y2="212.2344"/><line style="stroke:#181818;stroke-width:1;" x1="194.478" x2="194.478" y1="212.2344" y2="234.2344"/><polygon fill="#181818" points="190.478,224.2344,194.478,234.2344,198.478,224.2344,194.478,228.2344" style="stroke:#181818;stroke-width:1;"/><line style="stroke:#181818;stroke-width:1;" x1="382.7673" x2="474.1602" y1="212.2344" y2="212.2344"/><line style="stroke:#181818;stroke-width:1;" x1="474.1602" x2="474.1602" y1="212.2344" y2="234.2344"/><polygon fill="#181818" points="470.1602,224.2344,474.1602,234.2344,478.1602,224.2344,474.1602,228.2344" style="stroke:#181818;stroke-width:1;"/><line style="stroke:#181818;stroke-width:1;" x1="334.3191" x2="334.3191" y1="180.2344" y2="200.2344"/><polygon fill="#181818" points="330.3191,190.2344,334.3191,200.2344,338.3191,190.2344,334.3191,194.2344" style="stroke:#181818;stroke-width:1;"/><?plantuml-src NO-nJiH034Jx_OhHLSalN0eKGGj8K53lxJeNwpQxETi9vEy92OA3plBuZMUCBH5UAKVSbs5CP5mo7adLdmbjC9xP5ZomFuiVd5FpOkxOne4pguct8WY9mqLnU2h6tO8Nyd4vDEwusUPzANITI0rMe2GpIUEuG_KiaGJqiNhfNGthAQDQI6i7VEbllJTjnn5-zfpyAT7_As3_4txZ3tlyvbljopjq2c7TeYEA9nykkwPMndMWf8Ggb_e6Y9HuJRc0H8hyFS-HEtSBxKZPkgnzqPLfJVH3Rjn6VG80?></g></svg>