<svg xmlns="http://www.w3.org/2000/svg" xmlns:xlink="http://www.w3.org/1999/xlink" contentStyleType="text/css" data-diagram-type="ACTIVITY" height="584px" preserveAspectRatio="none" style="width:526px;height:584px;background:#FFFFFF;" version="1.1" viewBox="0 0 526 584" width="526px" zoomAndPan="magnify"><?plantuml 1.2026.3beta6?><defs/><g><g class="title" data-source-line="1"><text fill="#000000" font-family="sans-serif" font-size="14" font-weight="700" lengthAdjust="spacing" textLength="279.8018" x="122.5737" y="32.9951">Update Job Status Activity Diagram</text></g><ellipse cx="282.0029" cy="62.2969" fill="#222222" rx="10" ry="10" style="stroke:#222222;stroke-width:1;"/><rect fill="#F1F1F1" height="33.9688" rx="12.5" ry="12.5" style="stroke:#181818;stroke-width:0.5;" width="212.2578" x="175.874" y="92.2969"/><text fill="#000000" font-family="sans-serif" font-size="12" lengthAdjust="spacing" textLength="192.2578" x="185.874" y="113.4355">Administrator opens order table</text><rect fill="#F1F1F1" height="33.9688" rx="12.5" ry="12.5" style="stroke:#181818;stroke-width:0.5;" width="235.0742" x="164.4658" y="146.2656"/><text fill="#000000" font-family="sans-serif" font-size="12" lengthAdjust="spacing" textLength="215.0742" x="174.4658" y="167.4043">Select order and choose new status</text><rect fill="#F1F1F1" height="33.9688" rx="12.5" ry="12.5" style="stroke:#181818;stroke-width:0.5;" width="149.3516" x="207.3271" y="200.2344"/><text fill="#000000" font-family="sans-serif" font-size="12" lengthAdjust="spacing" textLength="129.3516" x="217.3271" y="221.373">Submit status update</text><polygon fill="#F1F1F1" points="245.5547,254.2031,318.4512,254.2031,330.4512,266.2031,318.4512,278.2031,245.5547,278.2031,233.5547,266.2031,245.5547,254.2031" style="stroke:#181818;stroke-width:0.5;"/><text fill="#000000" font-family="sans-serif" font-size="11" lengthAdjust="spacing" textLength="72.8965" x="245.5547" y="270.0112">Order exists?</text><text fill="#000000" font-family="sans-serif" font-size="11" lengthAdjust="spacing" textLength="19.0083" x="214.5464" y="263.6089">yes</text><text fill="#000000" font-family="sans-serif" font-size="11" lengthAdjust="spacing" textLength="13.7017" x="330.4512" y="263.6089">no</text><rect fill="#F1F1F1" height="33.9688" rx="12.5" ry="12.5" style="stroke:#181818;stroke-width:0.5;" width="129.4004" x="84.0654" y="288.2031"/><text fill="#000000" font-family="sans-serif" font-size="12" lengthAdjust="spacing" textLength="109.4004" x="94.0654" y="309.3418">Persist new status</text><rect fill="#F1F1F1" height="33.9688" rx="12.5" ry="12.5" style="stroke:#181818;stroke-width:0.5;" width="265.5313" x="16" y="390.5742"/><text fill="#000000" font-family="sans-serif" font-size="12" lengthAdjust="spacing" textLength="245.5313" x="26" y="411.7129">Attempt proactive WhatsApp notification</text><polygon fill="#F1F1F1" points="102.8401,342.1719,194.6912,342.1719,206.6912,354.1719,194.6912,366.1719,102.8401,366.1719,90.8401,354.1719,102.8401,342.1719" style="stroke:#181818;stroke-width:0.5;"/><text fill="#000000" font-family="sans-serif" font-size="11" lengthAdjust="spacing" textLength="19.0083" x="152.7656" y="376.3823">yes</text><text fill="#000000" font-family="sans-serif" font-size="11" lengthAdjust="spacing" textLength="91.8511" x="102.8401" y="357.98">Status changed?</text><polygon fill="#F1F1F1" points="148.7656,444.543,160.7656,456.543,148.7656,468.543,136.7656,456.543,148.7656,444.543" style="stroke:#181818;stroke-width:0.5;"/><rect fill="#F1F1F1" height="33.9688" rx="12.5" ry="12.5" style="stroke:#181818;stroke-width:0.5;" width="159.5293" x="69.001" y="488.543"/><text fill="#000000" font-family="sans-serif" font-size="12" lengthAdjust="spacing" textLength="139.5293" x="79.001" y="509.6816">Refresh dashboard row</text><ellipse cx="148.7656" cy="553.5117" fill="none" rx="11" ry="11" style="stroke:#222222;stroke-width:1;"/><ellipse cx="148.7656" cy="553.5117" fill="#222222" rx="6" ry="6" style="stroke:#222222;stroke-width:1;"/><rect fill="#F1F1F1" height="33.9688" rx="12.5" ry="12.5" style="stroke:#181818;stroke-width:0.5;" width="183.418" x="323.5313" y="288.2031"/><text fill="#000000" font-family="sans-serif" font-size="12" lengthAdjust="spacing" textLength="163.418" x="333.5313" y="309.3418">Show order not found error</text><ellipse cx="415.2402" cy="353.1719" fill="none" rx="11" ry="11" style="stroke:#222222;stroke-width:1;"/><ellipse cx="415.2402" cy="353.1719" fill="#222222" rx="6" ry="6" style="stroke:#222222;stroke-width:1;"/><line style="stroke:#181818;stroke-width:1;" x1="282.0029" x2="282.0029" y1="72.2969" y2="92.2969"/><polygon fill="#181818" points="278.0029,82.2969,282.0029,92.2969,286.0029,82.2969,282.0029,86.2969" style="stroke:#181818;stroke-width:1;"/><line style="stroke:#181818;stroke-width:1;" x1="282.0029" x2="282.0029" y1="126.2656" y2="146.2656"/><polygon fill="#181818" points="278.0029,136.2656,282.0029,146.2656,286.0029,136.2656,282.0029,140.2656" style="stroke:#181818;stroke-width:1;"/><line style="stroke:#181818;stroke-width:1;" x1="282.0029" x2="282.0029" y1="180.2344" y2="200.2344"/><polygon fill="#181818" points="278.0029,190.2344,282.0029,200.2344,286.0029,190.2344,282.0029,194.2344" style="stroke:#181818;stroke-width:1;"/><line style="stroke:#181818;stroke-width:1;" x1="148.7656" x2="148.7656" y1="366.1719" y2="390.5742"/><polygon fill="#181818" points="144.7656,380.5742,148.7656,390.5742,152.7656,380.5742,148.7656,384.5742" style="stroke:#181818;stroke-width:1;"/><line style="stroke:#181818;stroke-width:1;" x1="206.6912" x2="291.5313" y1="354.1719" y2="354.1719"/><polygon fill="#181818" points="287.5313,397.5586,291.5313,407.5586,295.5313,397.5586,291.5313,401.5586" style="stroke:#181818;stroke-width:1;"/><line style="stroke:#181818;stroke-width:1;" x1="291.5313" x2="291.5313" y1="354.1719" y2="456.543"/><line style="stroke:#181818;stroke-width:1;" x1="291.5313" x2="160.7656" y1="456.543" y2="456.543"/><polygon fill="#181818" points="170.7656,452.543,160.7656,456.543,170.7656,460.543,166.7656,456.543" style="stroke:#181818;stroke-width:1;"/><line style="stroke:#181818;stroke-width:1;" x1="148.7656" x2="148.7656" y1="424.543" y2="444.543"/><polygon fill="#181818" points="144.7656,434.543,148.7656,444.543,152.7656,434.543,148.7656,438.543" style="stroke:#181818;stroke-width:1;"/><line style="stroke:#181818;stroke-width:1;" x1="148.7656" x2="148.7656" y1="322.1719" y2="342.1719"/><polygon fill="#181818" points="144.7656,332.1719,148.7656,342.1719,152.7656,332.1719,148.7656,336.1719" style="stroke:#181818;stroke-width:1;"/><line style="stroke:#181818;stroke-width:1;" x1="148.7656" x2="148.7656" y1="468.543" y2="488.543"/><polygon fill="#181818" points="144.7656,478.543,148.7656,488.543,152.7656,478.543,148.7656,482.543" style="stroke:#181818;stroke-width:1;"/><line style="stroke:#181818;stroke-width:1;" x1="148.7656" x2="148.7656" y1="522.5117" y2="542.5117"/><polygon fill="#181818" points="144.7656,532.5117,148.7656,542.5117,152.7656,532.5117,148.7656,536.5117" style="stroke:#181818;stroke-width:1;"/><line style="stroke:#181818;stroke-width:1;" x1="415.2402" x2="415.2402" y1="322.1719" y2="342.1719"/><polygon fill="#181818" points="411.2402,332.1719,415.2402,342.1719,419.2402,332.1719,415.2402,336.1719" style="stroke:#181818;stroke-width:1;"/><line style="stroke:#181818;stroke-width:1;" x1="233.5547" x2="148.7656" y1="266.2031" y2="266.2031"/><line style="stroke:#181818;stroke-width:1;" x1="148.7656" x2="148.7656" y1="266.2031" y2="288.2031"/><polygon fill="#181818" points="144.7656,278.2031,148.7656,288.2031,152.7656,278.2031,148.7656,282.2031" style="stroke:#181818;stroke-width:1;"/><line style="stroke:#181818;stroke-width:1;" x1="330.4512" x2="415.2402" y1="266.2031" y2="266.2031"/><line style="stroke:#181818;stroke-width:1;" x1="415.2402" x2="415.2402" y1="266.2031" y2="288.2031"/><polygon fill="#181818" points="411.2402,278.2031,415.2402,288.2031,419.2402,278.2031,415.2402,282.2031" style="stroke:#181818;stroke-width:1;"/><line style="stroke:#181818;stroke-width:1;" x1="282.0029" x2="282.0029" y1="234.2031" y2="254.2031"/><polygon fill="#181818" points="278.0029,244.2031,282.0029,254.2031,286.0029,244.2031,282.0029,248.2031" style="stroke:#181818;stroke-width:1;"/><?plantuml-src NO-nRiCm34HtVSMDoIyaGs6WKvSM3OhEj4L70cnH8Ecw-VjQXe6Y7KdUlUDvzednKICvuqLwt9nyCNI3vw_i3pndkYlD8PYJUhXqSSubcokvAAHoCOX6LZZr4r_3vSOJ3tuigKGCISGOXLVOJc-YfP-p7pEMFVyQyeZJw-xZxot3dixmn0Md1ziv09StLjiEVrX0inr_3udAdUD_usRjt7ckZgf2hHpZCv5RLokAU1xpG9wbD1wNcCSMzywZiYL4ijGBQOJAsXJcKWDFMwjJaVspMvBrwBpXCCgoDMTLqLzzm_u0?></g></svg>