<svg xmlns="http://www.w3.org/2000/svg" xmlns:xlink="http://www.w3.org/1999/xlink" contentStyleType="text/css" data-diagram-type="ACTIVITY" height="492px" preserveAspectRatio="none" style="width:454px;height:492px;background:#FFFFFF;" version="1.1" viewBox="0 0 454 492" width="454px" zoomAndPan="magnify"><?plantuml 1.2026.3beta6?><defs/><g><g class="title" data-source-line="1"><text fill="#000000" font-family="sans-serif" font-size="14" font-weight="700" lengthAdjust="spacing" textLength="253.9141" x="99.4922" y="32.9951">Update Pricing Activity Diagram</text></g><ellipse cx="245.2773" cy="62.2969" fill="#222222" rx="10" ry="10" style="stroke:#222222;stroke-width:1;"/><rect fill="#F1F1F1" height="33.9688" rx="12.5" ry="12.5" style="stroke:#181818;stroke-width:0.5;" width="192.2539" x="149.1504" y="92.2969"/><text fill="#000000" font-family="sans-serif" font-size="12" lengthAdjust="spacing" textLength="172.2539" x="159.1504" y="113.4355">Maintainer opens prices.json</text><rect fill="#F1F1F1" height="33.9688" rx="12.5" ry="12.5" style="stroke:#181818;stroke-width:0.5;" width="216.043" x="137.2559" y="146.2656"/><text fill="#000000" font-family="sans-serif" font-size="12" lengthAdjust="spacing" textLength="196.043" x="147.2559" y="167.4043">Edit product definitions or prices</text><polygon fill="#F1F1F1" points="213.8806,200.2344,276.6741,200.2344,288.6741,212.2344,276.6741,224.2344,213.8806,224.2344,201.8806,212.2344,213.8806,200.2344" style="stroke:#181818;stroke-width:0.5;"/><text fill="#000000" font-family="sans-serif" font-size="11" lengthAdjust="spacing" textLength="62.7935" x="213.8806" y="216.0425">JSON valid?</text><text fill="#000000" font-family="sans-serif" font-size="11" lengthAdjust="spacing" textLength="19.0083" x="182.8723" y="209.6401">yes</text><text fill="#000000" font-family="sans-serif" font-size="11" lengthAdjust="spacing" textLength="13.7017" x="288.6741" y="209.6401">no</text><rect fill="#F1F1F1" height="33.9688" rx="12.5" ry="12.5" style="stroke:#181818;stroke-width:0.5;" width="173.375" x="48.8652" y="234.2344"/><text fill="#000000" font-family="sans-serif" font-size="12" lengthAdjust="spacing" textLength="153.375" x="58.8652" y="255.373">Save updated catalog file</text><rect fill="#F1F1F1" height="33.9688" rx="12.5" ry="12.5" style="stroke:#181818;stroke-width:0.5;" width="191.5449" x="39.7803" y="288.2031"/><text fill="#000000" font-family="sans-serif" font-size="12" lengthAdjust="spacing" textLength="171.5449" x="49.7803" y="309.3418">Restart or reload application</text><rect fill="#F1F1F1" height="33.9688" rx="12.5" ry="12.5" style="stroke:#181818;stroke-width:0.5;" width="239.1055" x="16" y="342.1719"/><text fill="#000000" font-family="sans-serif" font-size="12" lengthAdjust="spacing" textLength="219.1055" x="26" y="363.3105">Pricing service loads revised catalog</text><rect fill="#F1F1F1" height="33.9688" rx="12.5" ry="12.5" style="stroke:#181818;stroke-width:0.5;" width="232.5488" x="19.2783" y="396.1406"/><text fill="#000000" font-family="sans-serif" font-size="12" lengthAdjust="spacing" textLength="212.5488" x="29.2783" y="417.2793">New quotations use updated prices</text><ellipse cx="135.5527" cy="461.1094" fill="none" rx="11" ry="11" style="stroke:#222222;stroke-width:1;"/><ellipse cx="135.5527" cy="461.1094" fill="#222222" rx="6" ry="6" style="stroke:#222222;stroke-width:1;"/><rect fill="#F1F1F1" height="33.9688" rx="12.5" ry="12.5" style="stroke:#181818;stroke-width:0.5;" width="159.793" x="275.1055" y="234.2344"/><text fill="#000000" font-family="sans-serif" font-size="12" lengthAdjust="spacing" textLength="139.793" x="285.1055" y="255.373">Fix invalid catalog data</text><ellipse cx="355.002" cy="299.2031" fill="none" rx="11" ry="11" style="stroke:#222222;stroke-width:1;"/><ellipse cx="355.002" cy="299.2031" fill="#222222" rx="6" ry="6" style="stroke:#222222;stroke-width:1;"/><line style="stroke:#181818;stroke-width:1;" x1="245.2773" x2="245.2773" y1="72.2969" y2="92.2969"/><polygon fill="#181818" points="241.2773,82.2969,245.2773,92.2969,249.2773,82.2969,245.2773,86.2969" style="stroke:#181818;stroke-width:1;"/><line style="stroke:#181818;stroke-width:1;" x1="245.2773" x2="245.2773" y1="126.2656" y2="146.2656"/><polygon fill="#181818" points="241.2773,136.2656,245.2773,146.2656,249.2773,136.2656,245.2773,140.2656" style="stroke:#181818;stroke-width:1;"/><line style="stroke:#181818;stroke-width:1;" x1="135.5527" x2="135.5527" y1="268.2031" y2="288.2031"/><polygon fill="#181818" points="131.5527,278.2031,135.5527,288.2031,139.5527,278.2031,135.5527,282.2031" style="stroke:#181818;stroke-width:1;"/><line style="stroke:#181818;stroke-width:1;" x1="135.5527" x2="135.5527" y1="322.1719" y2="342.1719"/><polygon fill="#181818" points="131.5527,332.1719,135.5527,342.1719,139.5527,332.1719,135.5527,336.1719" style="stroke:#181818;stroke-width:1;"/><line style="stroke:#181818;stroke-width:1;" x1="135.5527" x2="135.5527" y1="376.1406" y2="396.1406"/><polygon fill="#181818" points="131.5527,386.1406,135.5527,396.1406,139.5527,386.1406,135.5527,390.1406" style="stroke:#181818;stroke-width:1;"/><line style="stroke:#181818;stroke-width:1;" x1="135.5527" x2="135.5527" y1="430.1094" y2="450.1094"/><polygon fill="#181818" points="131.5527,440.1094,135.5527,450.1094,139.5527,440.1094,135.5527,444.1094" style="stroke:#181818;stroke-width:1;"/><line style="stroke:#181818;stroke-width:1;" x1="355.002" x2="355.002" y1="268.2031" y2="288.2031"/><polygon fill="#181818" points="351.002,278.2031,355.002,288.2031,359.002,278.2031,355.002,282.2031" style="stroke:#181818;stroke-width:1;"/><line style="stroke:#181818;stroke-width:1;" x1="201.8806" x2="135.5527" y1="212.2344" y2="212.2344"/><line style="stroke:#181818;stroke-width:1;" x1="135.5527" x2="135.5527" y1="212.2344" y2="234.2344"/><polygon fill="#181818" points="131.5527,224.2344,135.5527,234.2344,139.5527,224.2344,135.5527,228.2344" style="stroke:#181818;stroke-width:1;"/><line style="stroke:#181818;stroke-width:1;" x1="288.6741" x2="355.002" y1="212.2344" y2="212.2344"/><line style="stroke:#181818;stroke-width:1;" x1="355.002" x2="355.002" y1="212.2344" y2="234.2344"/><polygon fill="#181818" points="351.002,224.2344,355.002,234.2344,359.002,224.2344,355.002,228.2344" style="stroke:#181818;stroke-width:1;"/><line style="stroke:#181818;stroke-width:1;" x1="245.2773" x2="245.2773" y1="180.2344" y2="200.2344"/><polygon fill="#181818" points="241.2773,190.2344,245.2773,200.2344,249.2773,190.2344,245.2773,194.2344" style="stroke:#181818;stroke-width:1;"/><?plantuml-src HOz1JiGm34NtESLVTZOSe5qW9621n80OSG2hSOjHI4BY1kRsk8MX2s_iz-rd5GsCr-n96Sz5HeapRaQL9dh6hT1SwCEvgbJKzOyaKQsu86ME5TaINA_UQug3w--ygBMINqQ5vqcYg2J3KlaZ1oSJkeVJqn6DWlZh0_ID8xepruC3-XCrnhBfU8oa5DACIG8Fw_I5Dv5rN-6Go8Do3cASh096N5weN9eTn0fLWvlKVU567laBdqjI-bLSwdxtuWfKJTbni5aNqoPuBz-GkCd_-rcATZfwcNu0?></g></svg>