<svg xmlns="http://www.w3.org/2000/svg" xmlns:xlink="http://www.w3.org/1999/xlink" contentStyleType="text/css" data-diagram-type="ACTIVITY" height="526px" preserveAspectRatio="none" style="width:747px;height:526px;background:#FFFFFF;" version="1.1" viewBox="0 0 747 526" width="747px" zoomAndPan="magnify"><?plantuml 1.2026.3beta6?><defs/><g><g class="title" data-source-line="1"><text fill="#000000" font-family="sans-serif" font-size="14" font-weight="700" lengthAdjust="spacing" textLength="265.2617" x="239.9463" y="32.9951">View Dashboard Activity Diagram</text></g><ellipse cx="463.7197" cy="62.2969" fill="#222222" rx="10" ry="10" style="stroke:#222222;stroke-width:1;"/><rect fill="#F1F1F1" height="33.9688" rx="12.5" ry="12.5" style="stroke:#181818;stroke-width:0.5;" width="208.8594" x="359.29" y="92.2969"/><text fill="#000000" font-family="sans-serif" font-size="12" lengthAdjust="spacing" textLength="188.8594" x="369.29" y="113.4355">Administrator opens login page</text><rect fill="#F1F1F1" height="33.9688" rx="12.5" ry="12.5" style="stroke:#181818;stroke-width:0.5;" width="213.9746" x="356.7324" y="146.2656"/><text fill="#000000" font-family="sans-serif" font-size="12" lengthAdjust="spacing" textLength="193.9746" x="366.7324" y="167.4043">Submit username and password</text><polygon fill="#F1F1F1" points="414.585,200.2344,512.8545,200.2344,524.8545,212.2344,512.8545,224.2344,414.585,224.2344,402.585,212.2344,414.585,200.2344" style="stroke:#181818;stroke-width:0.5;"/><text fill="#000000" font-family="sans-serif" font-size="11" lengthAdjust="spacing" textLength="98.2695" x="414.585" y="216.0425">Credentials valid?</text><text fill="#000000" font-family="sans-serif" font-size="11" lengthAdjust="spacing" textLength="19.0083" x="383.5767" y="209.6401">yes</text><text fill="#000000" font-family="sans-serif" font-size="11" lengthAdjust="spacing" textLength="13.7017" x="524.8545" y="209.6401">no</text><rect fill="#F1F1F1" height="33.9688" rx="12.5" ry="12.5" style="stroke:#181818;stroke-width:0.5;" width="144.9277" x="216.2051" y="234.2344"/><text fill="#000000" font-family="sans-serif" font-size="12" lengthAdjust="spacing" textLength="124.9277" x="226.2051" y="255.373">Generate auth token</text><rect fill="#F1F1F1" height="33.9688" rx="12.5" ry="12.5" style="stroke:#181818;stroke-width:0.5;" width="150.2891" x="213.5244" y="288.2031"/><text fill="#000000" font-family="sans-serif" font-size="12" lengthAdjust="spacing" textLength="130.2891" x="223.5244" y="309.3418">Load dashboard page</text><rect fill="#F1F1F1" height="33.9688" rx="12.5" ry="12.5" style="stroke:#181818;stroke-width:0.5;" width="225.834" x="175.752" y="342.1719"/><text fill="#000000" font-family="sans-serif" font-size="12" lengthAdjust="spacing" textLength="205.834" x="185.752" y="363.3105">Request orders and system status</text><polygon fill="#F1F1F1" points="217.1206,396.1406,360.2173,396.1406,372.2173,408.1406,360.2173,420.1406,217.1206,420.1406,205.1206,408.1406,217.1206,396.1406" style="stroke:#181818;stroke-width:0.5;"/><text fill="#000000" font-family="sans-serif" font-size="11" lengthAdjust="spacing" textLength="143.0967" x="217.1206" y="411.9487">API responses successful?</text><text fill="#000000" font-family="sans-serif" font-size="11" lengthAdjust="spacing" textLength="19.0083" x="186.1123" y="405.5464">yes</text><text fill="#000000" font-family="sans-serif" font-size="11" lengthAdjust="spacing" textLength="13.7017" x="372.2173" y="405.5464">no</text><rect fill="#F1F1F1" height="33.9688" rx="12.5" ry="12.5" style="stroke:#181818;stroke-width:0.5;" width="283.1445" x="16" y="430.1406"/><text fill="#000000" font-family="sans-serif" font-size="12" lengthAdjust="spacing" textLength="263.1445" x="26" y="451.2793">Render charts, tables, and connection state</text><ellipse cx="157.5723" cy="495.1094" fill="none" rx="11" ry="11" style="stroke:#222222;stroke-width:1;"/><ellipse cx="157.5723" cy="495.1094" fill="#222222" rx="6" ry="6" style="stroke:#222222;stroke-width:1;"/><rect fill="#F1F1F1" height="33.9688" rx="12.5" ry="12.5" style="stroke:#181818;stroke-width:0.5;" width="201.2422" x="319.1445" y="430.1406"/><text fill="#000000" font-family="sans-serif" font-size="12" lengthAdjust="spacing" textLength="181.2422" x="329.1445" y="451.2793">Show dashboard loading error</text><ellipse cx="419.7656" cy="495.1094" fill="none" rx="11" ry="11" style="stroke:#222222;stroke-width:1;"/><ellipse cx="419.7656" cy="495.1094" fill="#222222" rx="6" ry="6" style="stroke:#222222;stroke-width:1;"/><rect fill="#F1F1F1" height="33.9688" rx="12.5" ry="12.5" style="stroke:#181818;stroke-width:0.5;" width="176.7676" x="550.3867" y="234.2344"/><text fill="#000000" font-family="sans-serif" font-size="12" lengthAdjust="spacing" textLength="156.7676" x="560.3867" y="255.373">Show authentication error</text><ellipse cx="638.7705" cy="299.2031" fill="none" rx="11" ry="11" style="stroke:#222222;stroke-width:1;"/><ellipse cx="638.7705" cy="299.2031" fill="#222222" rx="6" ry="6" style="stroke:#222222;stroke-width:1;"/><line style="stroke:#181818;stroke-width:1;" x1="463.7197" x2="463.7197" y1="72.2969" y2="92.2969"/><polygon fill="#181818" points="459.7197,82.2969,463.7197,92.2969,467.7197,82.2969,463.7197,86.2969" style="stroke:#181818;stroke-width:1;"/><line style="stroke:#181818;stroke-width:1;" x1="463.7197" x2="463.7197" y1="126.2656" y2="146.2656"/><polygon fill="#181818" points="459.7197,136.2656,463.7197,146.2656,467.7197,136.2656,463.7197,140.2656" style="stroke:#181818;stroke-width:1;"/><line style="stroke:#181818;stroke-width:1;" x1="288.6689" x2="288.6689" y1="268.2031" y2="288.2031"/><polygon fill="#181818" points="284.6689,278.2031,288.6689,288.2031,292.6689,278.2031,288.6689,282.2031" style="stroke:#181818;stroke-width:1;"/><line style="stroke:#181818;stroke-width:1;" x1="288.6689" x2="288.6689" y1="322.1719" y2="342.1719"/><polygon fill="#181818" points="284.6689,332.1719,288.6689,342.1719,292.6689,332.1719,288.6689,336.1719" style="stroke:#181818;stroke-width:1;"/><line style="stroke:#181818;stroke-width:1;" x1="157.5723" x2="157.5723" y1="464.1094" y2="484.1094"/><polygon fill="#181818" points="153.5723,474.1094,157.5723,484.1094,161.5723,474.1094,157.5723,478.1094" style="stroke:#181818;stroke-width:1;"/><line style="stroke:#181818;stroke-width:1;" x1="419.7656" x2="419.7656" y1="464.1094" y2="484.1094"/><polygon fill="#181818" points="415.7656,474.1094,419.7656,484.1094,423.7656,474.1094,419.7656,478.1094" style="stroke:#181818;stroke-width:1;"/><line style="stroke:#181818;stroke-width:1;" x1="205.1206" x2="157.5723" y1="408.1406" y2="408.1406"/><line style="stroke:#181818;stroke-width:1;" x1="157.5723" x2="157.5723" y1="408.1406" y2="430.1406"/><polygon fill="#181818" points="153.5723,420.1406,157.5723,430.1406,161.5723,420.1406,157.5723,424.1406" style="stroke:#181818;stroke-width:1;"/><line style="stroke:#181818;stroke-width:1;" x1="372.2173" x2="419.7656" y1="408.1406" y2="408.1406"/><line style="stroke:#181818;stroke-width:1;" x1="419.7656" x2="419.7656" y1="408.1406" y2="430.1406"/><polygon fill="#181818" points="415.7656,420.1406,419.7656,430.1406,423.7656,420.1406,419.7656,424.1406" style="stroke:#181818;stroke-width:1;"/><line style="stroke:#181818;stroke-width:1;" x1="288.6689" x2="288.6689" y1="376.1406" y2="396.1406"/><polygon fill="#181818" points="284.6689,386.1406,288.6689,396.1406,292.6689,386.1406,288.6689,390.1406" style="stroke:#181818;stroke-width:1;"/><line style="stroke:#181818;stroke-width:1;" x1="638.7705" x2="638.7705" y1="268.2031" y2="288.2031"/><polygon fill="#181818" points="634.7705,278.2031,638.7705,288.2031,642.7705,278.2031,638.7705,282.2031" style="stroke:#181818;stroke-width:1;"/><line style="stroke:#181818;stroke-width:1;" x1="402.585" x2="288.6689" y1="212.2344" y2="212.2344"/><line style="stroke:#181818;stroke-width:1;" x1="288.6689" x2="288.6689" y1="212.2344" y2="234.2344"/><polygon fill="#181818" points="284.6689,224.2344,288.6689,234.2344,292.6689,224.2344,288.6689,228.2344" style="stroke:#181818;stroke-width:1;"/><line style="stroke:#181818;stroke-width:1;" x1="524.8545" x2="638.7705" y1="212.2344" y2="212.2344"/><line style="stroke:#181818;stroke-width:1;" x1="638.7705" x2="638.7705" y1="212.2344" y2="234.2344"/><polygon fill="#181818" points="634.7705,224.2344,638.7705,234.2344,642.7705,224.2344,638.7705,228.2344" style="stroke:#181818;stroke-width:1;"/><line style="stroke:#181818;stroke-width:1;" x1="463.7197" x2="463.7197" y1="180.2344" y2="200.2344"/><polygon fill="#181818" points="459.7197,190.2344,463.7197,200.2344,467.7197,190.2344,463.7197,194.2344" style="stroke:#181818;stroke-width:1;"/><?plantuml-src NP11QWCn34NtFeMM2VG4oQ8C3PH25oM1xfMnCYFgaQQMd93Rr-EKa7Pb8Vdz_oLdJmIVJ1VOeOr7nHoXwvtFx5VOCGuPfn3CCNlOT75YOVEChXbq9Z58Eh30Z0Djm-PGZXCx5ACiE16Wn3eoksYEsy0dMBraYYJEc0pEc3W-hy574bXToTO1OFDAGjMWmiL7SFqYsIxzTyK8yHxovbZxU_ekP0xLWh8rIxkQqmGrjHTRFYtEtSSRPB9PnSZ0Ij-JsQca_m6Qf5GjwCUwjJs1up5HVHVfNaMetaUboRS8K4kTQq7925QYlpA7KIyFYLDTW6K0obdpNquYdy8ZVMEN2op7wh4Pti66DUW7?></g></svg>